<svg width="645" height="625" viewBox="0 0 645 625" fill="none" xmlns="http://www.w3.org/2000/svg">
<circle cx="317" cy="311" r="200" fill="#FA8714"/>
<rect x="176" y="170" width="282.843" height="282.843" fill="#FB9F43"/>
<rect x="117.421" y="311.421" width="282.843" height="282.843" transform="rotate(-45 117.421 311.421)" fill="#FB9F43"/>
<path d="M191.1 263.6C191.1 252.8 193.9 244.667 199.5 239.2C205.1 233.733 211.767 231 219.5 231C227.367 231 238.033 232.333 251.5 235C264.967 237.667 275.1 239.067 281.9 239.2C293.233 237.067 304.033 234.467 314.3 231.4C315.367 234.867 315.9 239.2 315.9 244.4C315.9 255.2 312.767 263.333 306.5 268.8C300.367 274.267 292.5 277 282.9 277C280.5 277 277.3 276.867 273.3 276.6C265.967 315.133 262.3 336.667 262.3 341.2C262.3 354.133 264.3 363.8 268.3 370.2C260.3 376.2 251.967 379.2 243.3 379.2C234.633 379.2 228.433 376.733 224.7 371.8C220.967 366.733 219.1 359.267 219.1 349.4C219.1 339.4 222.967 312.867 230.7 269.8C215.633 271.8 202.967 274.067 192.7 276.6C191.633 273.267 191.1 268.933 191.1 263.6ZM390.245 229C407.845 229 421.045 231.067 429.845 235.2C438.645 239.2 443.045 245.667 443.045 254.6C443.045 263.4 440.312 270.133 434.845 274.8C429.512 279.333 423.379 281.6 416.445 281.6C409.512 281.6 403.245 279.867 397.645 276.4C392.179 272.8 388.379 268.067 386.245 262.2C381.312 262.2 376.579 263.867 372.045 267.2C367.645 270.4 364.845 274.6 363.645 279.8C390.045 286.2 408.979 293.667 420.445 302.2C431.912 310.733 437.645 321.667 437.645 335C437.645 348.333 431.579 359 419.445 367C407.445 375 391.179 379 370.645 379C350.245 379 335.779 376.2 327.245 370.6C318.712 365 314.445 357.6 314.445 348.4C314.445 339.2 317.312 330.733 323.045 323C325.845 329 331.179 334.4 339.045 339.2C347.045 344 354.912 346.4 362.645 346.4C376.912 346.4 385.979 341.867 389.845 332.8C367.712 329.867 350.845 323.733 339.245 314.4C327.645 304.933 321.845 293.533 321.845 280.2C321.845 271.267 324.245 263.333 329.045 256.4C333.845 249.333 339.979 243.933 347.445 240.2C362.112 232.733 376.379 229 390.245 229Z" fill="#E17305"/>
<path d="M485.458 136.11C414.52 94.875 485.458 136.11 414.52 94.875C336 71.0611 414.52 94.875 336 71.0611C441.657 32.5247 336 71.0611 441.657 32.5247C485.458 136.11 441.657 32.5247 485.458 136.11Z" fill="#FA8714" stroke="#FFBB99"/>
<path d="M572.255 299.932C552 220.42 572.255 299.932 552 220.42C514 147.698 552 220.42 514 147.698C615.509 196.117 514 147.698 615.509 196.117C572.255 299.932 615.509 196.117 572.255 299.932Z" fill="#FA8714" stroke="#FB9F43"/>
<path d="M507 481.995C546.498 410.076 507 481.995 546.498 410.076C568.396 331 546.498 410.076 568.396 331C609.49 435.689 568.396 331 609.49 435.689C507 481.995 609.49 435.689 507 481.995Z" fill="#FA8714" stroke="#FB9F43"/>
<path d="M334 553.002C412.838 530.263 334 553.002 412.838 530.263C484.332 490 412.838 530.263 484.332 490C439.121 592.978 484.332 490 439.121 592.978C334 553.002 439.121 592.978 334 553.002Z" fill="#FA8714" stroke="#FB9F43"/>
<path d="M160.953 491C233.54 529.256 160.953 491 233.54 529.256C312.981 549.791 233.54 529.256 312.981 549.791C209.014 592.679 312.981 549.791 209.014 592.679C160.953 491 209.014 592.679 160.953 491Z" fill="#FA8714" stroke="#FB9F43"/>
<path d="M69.893 335.831C98.7535 412.64 69.893 335.831 98.7535 412.64C144.506 480.751 98.7535 412.64 144.506 480.751C38.2961 443.767 144.506 480.751 38.2961 443.767C69.893 335.831 38.2961 443.767 69.893 335.831Z" fill="#FA8714" stroke="#FB9F43"/>
<path d="M136.019 157.937C100.012 231.665 136.019 157.937 100.012 231.665C81.9272 311.7 100.012 231.665 81.9272 311.7C35.865 209.1 81.9272 311.7 35.865 209.1C136.019 157.937 35.865 209.1 136.019 157.937Z" fill="#FA8714" stroke="#FB9F43"/>
<path d="M298.486 69.9076C220.869 96.5189 298.486 69.9076 220.869 96.5189C151.454 140.269 220.869 96.5189 151.454 140.269C191.516 35.1806 151.454 140.269 191.516 35.1806C298.486 69.9076 191.516 35.1806 298.486 69.9076Z" fill="#FA8714" stroke="#FB9F43"/>
</svg>
