<svg width="1537" height="200" viewBox="0 0 1537 200" fill="none" xmlns="http://www.w3.org/2000/svg">
<path d="M0 200V18.3471C43.3479 12.4608 57.7613 12.9076 116.623 18.3466C177.135 18.3466 230.245 17.7125 283.305 18.344C336.365 18.9756 353.719 27.2982 442.286 12.9079C503.348 26.5407 581.19 6.92069 645.88 2.93234C710.569 -1.05601 740.313 -0.897878 792.111 2.9317C843.91 6.76127 917.764 14.2623 967.158 18.3455C1016.55 22.4286 1048.76 30.8011 1106.27 18.3455C1164.03 18.3455 1227.76 13.3406 1271.85 18.3455C1315.94 23.3503 1326.62 31.4139 1375.27 18.3455C1445.68 18.3455 1471.04 23.9215 1537 18.3455V200H0Z" fill="#ECF2C1"/>
</svg>
