<svg width="488" height="186" viewBox="0 0 488 186" fill="none" xmlns="http://www.w3.org/2000/svg">
<path d="M140.02 183.338L130.65 169.836C170.063 166.081 84.901 181.402 140.079 165.374C195.257 149.346 216.668 158.993 264.893 159.57C222.02 128.896 313.118 160.147 264.893 159.57C307.767 190.244 71.8452 172.274 130.65 169.836C83.5784 167.152 189.456 167.398 130.65 169.836C85.7653 166.992 177.723 172.52 130.65 169.836C78.3579 177.885 175.536 172.68 130.65 169.836C90.5905 166.399 182.943 161.787 130.65 169.836C170.71 173.273 -20.9806 20.2469 23.2686 11.7671C67.5177 3.28741 427.653 6.28971 487.621 2.80789L487.018 184.49L140.02 183.338Z" fill="#0693E3"/>
<path d="M328.069 184.029L336.995 170.56C299.838 166.543 380.081 182.445 328.129 166.027C276.177 149.61 382.495 170.293 336.995 170.56C377.641 140.098 291.496 170.826 336.995 170.56C392.457 173.382 296.35 201.021 336.995 170.56C381.421 168.174 281.534 167.737 336.995 170.56C379.359 167.999 292.57 172.945 336.995 170.56C386.277 178.962 294.632 173.12 336.995 170.56C374.81 167.374 287.714 162.157 336.995 170.56C299.18 173.745 220.476 117.195 178.786 108.412C137.095 99.6285 57.856 4.75555 1.30457 0.879351L0.700446 182.943L328.069 184.029Z" fill="#ECF2C1"/>
<rect x="310.844" y="140.222" width="51" height="44" transform="rotate(0.190118 310.844 140.222)" fill="#0693E3"/>
</svg>
