<svg width="1048" height="545" viewBox="0 0 1048 545" fill="none" xmlns="http://www.w3.org/2000/svg">
<circle cx="456.634" cy="137.795" r="86.0931" transform="rotate(14.1533 456.634 137.795)" fill="#FA8714"/>
<rect x="412.622" y="64.1006" width="121.754" height="121.754" transform="rotate(14.1533 412.622 64.1006)" fill="#FB9F43"/>
<rect x="373.286" y="116.964" width="121.754" height="121.754" transform="rotate(-30.8467 373.286 116.964)" fill="#FB9F43"/>
<path d="M564.342 160.042C564.257 124.722 564.342 160.042 564.257 124.722C556.05 90.3682 564.257 124.722 556.05 90.3682C593.323 121.263 556.05 90.3682 593.323 121.263C564.342 160.042 593.323 121.263 564.342 160.042Z" fill="#FA8714" stroke="#FB9F43"/>
<path d="M442.431 239.872C477.731 238.679 442.431 239.872 477.731 238.679C511.81 229.399 477.731 238.679 511.81 229.399C482.1 267.623 511.81 229.399 482.1 267.623C442.431 239.872 482.1 267.623 442.431 239.872Z" fill="#FA8714" stroke="#FB9F43"/>
<path d="M372.554 196.502C398.825 220.11 372.554 196.502 398.825 220.11C429.822 237.043 398.825 220.11 429.822 237.043C381.912 244.001 429.822 237.043 381.912 244.001C372.554 196.502 381.912 244.001 372.554 196.502Z" fill="#FA8714" stroke="#FB9F43"/>
<path d="M397.203 54.8571C374.413 81.8414 397.203 54.8571 374.413 81.8414C358.441 113.344 374.413 81.8414 358.441 113.344C350.014 65.6706 358.441 113.344 350.014 65.6706C397.203 54.8571 350.014 65.6706 397.203 54.8571Z" fill="#FA8714" stroke="#FB9F43"/>
<path d="M457.518 104.056C456.508 108.062 453.269 111.155 448.751 112.881C444.235 114.607 438.485 114.945 432.579 113.456C426.673 111.966 421.771 108.942 418.613 105.281C415.454 101.619 414.068 97.3604 415.079 93.3543C416.089 89.3483 419.328 86.2557 423.846 84.5294C428.362 82.8038 434.112 82.4658 440.018 83.9552C445.924 85.4445 450.826 88.4687 453.984 92.1294C457.143 95.7914 458.529 100.05 457.518 104.056Z" fill="white" stroke="white"/>
<path d="M518.041 119.319C517.031 123.325 513.792 126.417 509.274 128.144C504.758 129.869 499.008 130.207 493.102 128.718C487.196 127.228 482.294 124.204 479.136 120.544C475.977 116.881 474.591 112.623 475.601 108.616C476.612 104.61 479.851 101.518 484.369 99.7916C488.885 98.066 494.635 97.728 500.541 99.2173C506.447 100.707 511.349 103.731 514.507 107.392C517.666 111.054 519.052 115.313 518.041 119.319Z" fill="white" stroke="white"/>
<ellipse cx="436.298" cy="98.7054" rx="11.6226" ry="7.53315" transform="rotate(14.1533 436.298 98.7054)" fill="#7C96F2"/>
<ellipse cx="496.821" cy="113.968" rx="11.6226" ry="7.53315" transform="rotate(14.1533 496.821 113.968)" fill="#7C96F2"/>
<path d="M495.749 153.43C492.872 164.841 470.926 179.356 449.717 174.008C428.509 168.66 416.07 145.474 418.948 134.063C457.348 143.746 418.948 134.063 457.348 143.746C495.749 153.43 457.348 143.746 495.749 153.43Z" fill="#F5D8BA"/>
<circle cx="632.1" cy="187.465" r="90.608" transform="rotate(28.6568 632.1 187.465)" fill="#FA8714"/>
<rect x="606.68" y="100.777" width="128.139" height="128.139" transform="rotate(28.6568 606.68 100.777)" fill="#FB9F43"/>
<rect x="552.667" y="144.272" width="128.139" height="128.139" transform="rotate(-16.3432 552.667 144.272)" fill="#FB9F43"/>
<rect x="552.667" y="144.272" width="128.139" height="128.139" transform="rotate(-16.3432 552.667 144.272)" fill="#FB9F43"/>
<path d="M735.981 238.522C745.203 202.511 735.981 238.522 745.203 202.511C745.896 165.345 745.203 202.511 745.896 165.345C775.731 206.648 745.896 165.345 775.731 206.648C735.981 238.522 775.731 206.648 735.981 238.522Z" fill="#FA8714" stroke="#FB9F43"/>
<path d="M590.724 287.728C627.006 295.817 590.724 287.728 627.006 295.817C664.176 295.343 627.006 295.817 664.176 295.343C623.829 326.459 664.176 295.343 623.829 326.459C590.724 287.728 623.829 326.459 590.724 287.728Z" fill="#FA8714" stroke="#FB9F43"/>
<path d="M530.957 225.12C551.503 256.099 530.957 225.12 551.503 256.099C578.623 281.522 551.503 256.099 578.623 281.522C527.973 275.984 578.623 281.522 527.973 275.984C530.957 225.12 527.973 275.984 530.957 225.12Z" fill="#FA8714" stroke="#FB9F43"/>
<path d="M593.407 87.295C563.074 108.783 593.407 87.295 563.074 108.783C538.496 136.671 563.074 108.783 538.496 136.671C542.475 85.8751 538.496 136.671 542.475 85.8751C593.407 87.295 542.475 85.8751 593.407 87.295Z" fill="#FA8714" stroke="#FB9F43"/>
<path d="M699.561 184.837C697.471 188.662 693.346 190.963 688.282 191.531C683.22 192.1 677.267 190.927 671.637 187.851C666.008 184.775 661.806 180.397 659.551 175.83C657.295 171.261 657.004 166.547 659.094 162.722C661.184 158.897 665.309 156.596 670.373 156.027C675.435 155.459 681.389 156.631 687.018 159.708C692.647 162.784 696.849 167.161 699.104 171.729C701.36 176.298 701.652 181.012 699.561 184.837Z" fill="white" stroke="white"/>
<ellipse cx="679.328" cy="173.779" rx="12.2321" ry="7.9282" transform="rotate(28.6568 679.328 173.779)" fill="#19D659"/>
<path d="M648.21 156.773C646.12 160.598 641.995 162.899 636.931 163.468C631.869 164.036 625.915 162.864 620.286 159.787C614.657 156.711 610.455 152.334 608.2 147.766C605.944 143.197 605.652 138.483 607.743 134.658C609.833 130.833 613.958 128.532 619.022 127.964C624.084 127.395 630.037 128.568 635.667 131.644C641.296 134.72 645.498 139.098 647.753 143.665C650.009 148.234 650.3 152.948 648.21 156.773Z" fill="white" stroke="white"/>
<ellipse cx="627.976" cy="145.716" rx="12.2321" ry="7.9282" transform="rotate(28.6568 627.976 145.716)" fill="#19D659"/>
<path d="M655.574 217.083C651.613 224.331 638.874 235.567 616.686 223.441C594.499 211.315 600.329 196.305 604.29 189.057C608.252 181.809 597.368 206.066 619.555 218.191C641.742 230.317 659.535 209.835 655.574 217.083Z" fill="#FF8000"/>
<circle cx="872.098" cy="200.326" r="79.9055" transform="rotate(22.0237 872.098 200.326)" fill="#FA8714"/>
<rect x="841" y="126.979" width="113.003" height="113.003" transform="rotate(22.0237 841 126.979)" fill="#FB9F43"/>
<rect x="798.116" y="170.581" width="113.003" height="113.003" transform="rotate(-22.9763 798.116 170.581)" fill="#FB9F43"/>
<path d="M968.296 234.469C972.707 201.985 968.296 234.469 972.707 201.985C969.528 169.357 972.707 201.985 969.528 169.357C999.87 202.499 969.528 169.357 999.87 202.499C968.296 234.469 999.87 202.499 968.296 234.469Z" fill="#FA8714" stroke="#FB9F43"/>
<path d="M846.067 292.369C878.673 295.758 846.067 292.369 878.673 295.758C911.185 291.557 878.673 295.758 911.185 291.557C879.012 322.924 911.185 291.557 879.012 322.924C846.067 292.369 879.012 322.924 846.067 292.369Z" fill="#FA8714" stroke="#FB9F43"/>
<path d="M787.335 243.614C808.488 268.658 787.335 243.614 808.488 268.658C834.834 288.165 808.488 268.658 834.834 288.165C789.902 288.474 834.834 288.165 789.902 288.474C787.335 243.614 789.902 288.474 787.335 243.614Z" fill="#FA8714" stroke="#FB9F43"/>
<path d="M828 116.521C803.617 138.433 828 116.521 803.617 138.433C784.929 165.367 803.617 138.433 784.929 165.367C783.24 120.465 784.929 165.367 783.24 120.465C828 116.521 783.24 120.465 828 116.521Z" fill="#FA8714" stroke="#FB9F43"/>
<path d="M926.496 193.239C925.063 196.78 921.704 199.206 917.339 200.217C912.975 201.227 907.653 200.809 902.419 198.691C897.184 196.574 893.068 193.175 890.634 189.415C888.2 185.653 887.472 181.574 888.904 178.033C890.336 174.492 893.696 172.066 898.061 171.055C902.424 170.044 907.746 170.463 912.981 172.581C918.215 174.698 922.332 178.097 924.765 181.857C927.2 185.619 927.928 189.698 926.496 193.239Z" fill="white" stroke="white"/>
<ellipse cx="903.713" cy="180.576" rx="10.7872" ry="6.99173" transform="rotate(22.0237 903.713 180.576)" fill="#7C96F2"/>
<path d="M874.14 168.182C872.708 171.723 869.348 174.149 864.983 175.16C860.62 176.17 855.298 175.751 850.063 173.634C844.828 171.517 840.712 168.118 838.279 164.358C835.844 160.596 835.116 156.517 836.548 152.976C837.98 149.435 841.34 147.009 845.705 145.998C850.068 144.987 855.39 145.406 860.625 147.524C865.86 149.641 869.976 153.04 872.409 156.8C874.844 160.562 875.572 164.641 874.14 168.182Z" fill="white" stroke="white"/>
<ellipse cx="851.357" cy="155.518" rx="10.7872" ry="6.99173" transform="rotate(22.0237 851.357 155.518)" fill="#7C96F2"/>
<ellipse cx="863.949" cy="218.147" rx="33.5603" ry="19.1773" transform="rotate(22.0237 863.949 218.147)" fill="#F5D8BA"/>
<path d="M1029.34 259.995C1027.13 254.895 1023.1 251.26 1018.29 250.037L770.693 187.224C761.76 184.981 752.527 191.664 750.279 202.241C748.031 212.819 753.566 223.283 762.596 225.573L797.789 234.494L793.103 284.153L710.328 265.77L719.509 168.468L755.269 117.639C759.174 112.09 760.267 104.618 758.146 98.0868C756.009 91.5333 750.986 86.9171 744.986 86.0158L395.023 33.2708C389.383 32.6784 383.638 34.998 379.829 40.082L283.151 169.031C282.764 169.547 282.635 170.205 282.296 170.746L49.8776 119.153C45.1761 118.118 40.3161 119.455 36.4338 122.815C32.5651 126.199 30.039 131.286 29.5152 136.838C13.2411 309.312 172.855 465.955 385.314 486.002L921.402 536.585C928.756 537.279 935.784 532.3 938.72 524.293L1029.71 276.46C1031.67 271.104 1031.53 265.074 1029.34 259.995ZM826.268 290.914L830.802 242.859L896.829 259.601L892.434 306.19L826.113 291.47C826.133 291.278 826.249 291.111 826.268 290.914ZM556.243 97.2849L710.326 120.503L690.399 148.802C688.27 151.835 686.923 155.535 686.56 159.386L677.214 258.43L528.153 225.33L556.243 97.2849ZM398.826 73.5556L522.796 92.2359L495.331 217.439C495.295 217.632 495.345 217.835 495.309 218.028L319.724 179.053L398.826 73.5556ZM912.709 496.317L389.003 446.902C240.941 432.932 120.881 349.351 78.5761 243.484L934.277 437.563L912.709 496.317ZM947.899 400.483L66.2181 200.519C63.8307 187.847 62.1663 175.027 62.0764 162.021L962.096 361.82L947.899 400.483ZM975.722 324.703L925.543 313.558L929.843 267.984L990.869 283.467L975.722 324.703Z" fill="#BEBEBE"/>
<rect x="72" y="230" width="905.171" height="44.3042" transform="rotate(12.1684 72 230)" fill="#BEBEBE"/>
<rect x="84.1924" y="273.006" width="876.677" height="38.8671" transform="rotate(12.1684 84.1924 273.006)" fill="#BEBEBE"/>
<rect x="117.6" y="316.391" width="833.118" height="31.3123" transform="rotate(12.1684 117.6 316.391)" fill="#BEBEBE"/>
<rect x="159.144" y="352.466" width="585.54" height="20.7693" transform="rotate(12.1684 159.144 352.466)" fill="#BEBEBE"/>
<rect x="198.279" y="374.479" width="402.077" height="20.7693" transform="rotate(12.1684 198.279 374.479)" fill="#BEBEBE"/>
<rect x="194.378" y="391" width="402.077" height="20.7693" transform="rotate(12.1684 194.378 391)" fill="#BEBEBE"/>
</svg>
