<svg width="1713" height="813" viewBox="0 0 1713 813" fill="none" xmlns="http://www.w3.org/2000/svg">
<circle cx="1385.18" cy="501" r="200" fill="#FA8714"/>
<rect x="1244.18" y="360" width="282.843" height="282.843" fill="#FB9F43"/>
<rect x="1185.6" y="501.421" width="282.843" height="282.843" transform="rotate(-45 1185.6 501.421)" fill="#FB9F43"/>
<rect x="1185.6" y="501.422" width="282.843" height="282.843" transform="rotate(-45 1185.6 501.422)" fill="#FB9F43"/>
<path d="M1640.44 489.932C1620.18 410.42 1640.44 489.932 1620.18 410.42C1582.18 337.698 1620.18 410.42 1582.18 337.698C1683.69 386.117 1582.18 337.698 1683.69 386.117C1640.44 489.932 1683.69 386.117 1640.44 489.932Z" fill="#FA8714" stroke="#FB9F43"/>
<path d="M1411.17 739.002C1490.01 716.262 1411.17 739.002 1490.01 716.262C1561.5 676 1490.01 716.262 1561.5 676C1516.29 778.978 1561.5 676 1516.29 778.978C1411.17 739.002 1516.29 778.978 1411.17 739.002Z" fill="#FA8714" stroke="#FB9F43"/>
<path d="M1229.13 681C1301.72 719.256 1229.13 681 1301.72 719.256C1381.16 739.791 1301.72 719.256 1381.16 739.791C1277.2 782.679 1381.16 739.791 1277.2 782.679C1229.13 681 1277.2 782.679 1229.13 681Z" fill="#FA8714" stroke="#FB9F43"/>
<path d="M1204.2 347.937C1168.19 421.666 1204.2 347.937 1168.19 421.666C1150.11 501.7 1168.19 421.666 1150.11 501.7C1104.05 399.1 1150.11 501.7 1104.05 399.1C1204.2 347.937 1104.05 399.1 1204.2 347.937Z" fill="#FA8714" stroke="#FB9F43"/>
<path d="M1462 533.521C1462 551.753 1449.22 587 1393.41 587C1337.6 587 1333 551.753 1333 533.521C1333 515.289 1337.6 573.795 1393.41 573.795C1449.22 573.795 1462 515.289 1462 533.521Z" fill="#FF8000"/>
<circle cx="308.181" cy="499" r="200" fill="#FA8714"/>
<rect x="167.181" y="358" width="282.843" height="282.843" fill="#FB9F43"/>
<rect x="108.602" y="499.421" width="282.843" height="282.843" transform="rotate(-45 108.602 499.421)" fill="#FB9F43"/>
<rect x="108.602" y="499.422" width="282.843" height="282.843" transform="rotate(-45 108.602 499.422)" fill="#FB9F43"/>
<path d="M563.436 487.932C543.181 408.42 563.436 487.932 543.181 408.42C505.181 335.698 543.181 408.42 505.181 335.698C606.69 384.117 505.181 335.698 606.69 384.117C563.436 487.932 606.69 384.117 563.436 487.932Z" fill="#FA8714" stroke="#FB9F43"/>
<path d="M334.17 737.002C413.008 714.262 334.17 737.002 413.008 714.262C484.502 674 413.008 714.262 484.502 674C439.291 776.978 484.502 674 439.291 776.978C334.17 737.002 439.291 776.978 334.17 737.002Z" fill="#FA8714" stroke="#FB9F43"/>
<path d="M152.134 679C224.721 717.256 152.134 679 224.721 717.256C304.162 737.791 224.721 717.256 304.162 737.791C200.195 780.679 304.162 737.791 200.195 780.679C152.134 679 200.195 780.679 152.134 679Z" fill="#FA8714" stroke="#FB9F43"/>
<path d="M127.2 345.937C91.1925 419.666 127.2 345.937 91.1925 419.666C73.1081 499.7 91.1925 419.666 73.1081 499.7C27.046 397.1 73.1081 499.7 27.046 397.1C127.2 345.937 27.046 397.1 127.2 345.937Z" fill="#FA8714" stroke="#FB9F43"/>
<path d="M385 531.521C385 549.753 372.218 585 316.407 585C260.596 585 256 549.753 256 531.521C256 513.289 260.596 571.795 316.407 571.795C372.218 571.795 385 513.289 385 531.521Z" fill="#FF8000"/>
<path d="M293.5 422.5C293.5 432.372 287.8 441.36 278.482 447.9C269.166 454.439 256.269 458.5 242 458.5C227.731 458.5 214.834 454.439 205.518 447.9C196.2 441.36 190.5 432.372 190.5 422.5C190.5 412.628 196.2 403.64 205.518 397.1C214.834 390.561 227.731 386.5 242 386.5C256.269 386.5 269.166 390.561 278.482 397.1C287.8 403.64 293.5 412.628 293.5 422.5Z" fill="white" stroke="white"/>
<ellipse cx="253" cy="417.5" rx="27" ry="17.5" fill="#19D659"/>
<path d="M436.5 422.5C436.5 432.372 430.8 441.36 421.482 447.9C412.166 454.439 399.269 458.5 385 458.5C370.731 458.5 357.834 454.439 348.518 447.9C339.2 441.36 333.5 432.372 333.5 422.5C333.5 412.628 339.2 403.64 348.518 397.1C357.834 390.561 370.731 386.5 385 386.5C399.269 386.5 412.166 390.561 421.482 397.1C430.8 403.64 436.5 412.628 436.5 422.5Z" fill="white" stroke="white"/>
<ellipse cx="396" cy="417.5" rx="27" ry="17.5" fill="#19D659"/>
<path d="M1380.5 424.5C1380.5 434.372 1374.8 443.36 1365.48 449.9C1356.17 456.439 1343.27 460.5 1329 460.5C1314.73 460.5 1301.83 456.439 1292.52 449.9C1283.2 443.36 1277.5 434.372 1277.5 424.5C1277.5 414.628 1283.2 405.64 1292.52 399.1C1301.83 392.561 1314.73 388.5 1329 388.5C1343.27 388.5 1356.17 392.561 1365.48 399.1C1374.8 405.64 1380.5 414.628 1380.5 424.5Z" fill="white" stroke="white"/>
<ellipse cx="1317" cy="419.5" rx="27" ry="17.5" fill="#19D659"/>
<path d="M1513.5 424.5C1513.5 434.372 1507.8 443.36 1498.48 449.9C1489.17 456.439 1476.27 460.5 1462 460.5C1447.73 460.5 1434.83 456.439 1425.52 449.9C1416.2 443.36 1410.5 434.372 1410.5 424.5C1410.5 414.628 1416.2 405.64 1425.52 399.1C1434.83 392.561 1447.73 388.5 1462 388.5C1476.27 388.5 1489.17 392.561 1498.48 399.1C1507.8 405.64 1513.5 414.628 1513.5 424.5Z" fill="white" stroke="white"/>
<ellipse cx="1450" cy="419.5" rx="27" ry="17.5" fill="#19D659"/>
<path d="M1260.42 78.5625C1247.47 72.6937 1233.63 68.4286 1219.16 66C1217.38 69.1134 1215.3 73.301 1213.87 76.6322C1198.49 74.3906 1183.24 74.3906 1168.14 76.6322C1166.71 73.301 1164.59 69.1134 1162.79 66C1148.31 68.4286 1134.45 72.7094 1121.5 78.5935C1095.39 116.825 1088.31 154.107 1091.85 190.86C1109.17 203.391 1125.95 211.003 1142.45 215.985C1146.53 210.552 1150.16 204.777 1153.29 198.69C1147.33 196.495 1141.62 193.787 1136.23 190.642C1137.66 189.615 1139.06 188.54 1140.41 187.435C1173.32 202.348 1209.07 202.348 1241.59 187.435C1242.96 188.54 1244.36 189.615 1245.77 190.642C1240.36 193.802 1234.64 196.511 1228.67 198.706C1231.8 204.777 1235.42 210.567 1239.51 216C1256.03 211.019 1272.83 203.407 1290.15 190.86C1294.3 148.254 1283.06 111.315 1260.42 78.5625ZM1157.78 168.257C1147.9 168.257 1139.8 159.322 1139.8 148.441C1139.8 137.56 1147.72 128.609 1157.78 128.609C1167.83 128.609 1175.93 137.544 1175.76 148.441C1175.77 159.322 1167.83 168.257 1157.78 168.257ZM1224.22 168.257C1214.34 168.257 1206.24 159.322 1206.24 148.441C1206.24 137.56 1214.17 128.609 1224.22 128.609C1234.27 128.609 1242.38 137.544 1242.2 148.441C1242.2 159.322 1234.27 168.257 1224.22 168.257Z" fill="#5865F2"/>
<path d="M893.5 25L843.5 56.25L793.5 25V12.5L843.5 43.75L893.5 12.5V25ZM893.5 0H793.5C786.562 0 781 5.5625 781 12.5V87.5C781 90.8152 782.317 93.9946 784.661 96.3388C787.005 98.683 790.185 100 793.5 100H893.5C896.815 100 899.995 98.683 902.339 96.3388C904.683 93.9946 906 90.8152 906 87.5V12.5C906 5.5625 900.375 0 893.5 0Z" fill="#FA8714"/>
<path d="M642.25 181.25H623.5L611 196.875L598.5 181.25H579.75C565.944 181.25 554.75 170.056 554.75 156.25V93.75C554.75 79.9437 565.944 68.75 579.75 68.75H642.25C656.056 68.75 667.25 79.9437 667.25 93.75V156.25C667.25 170.056 656.056 181.25 642.25 181.25Z" fill="#29B6F6"/>
<path d="M604.75 90.625H595.375V134.375H604.75V90.625Z" fill="#ECEFF1"/>
<path d="M626.625 90.625H617.25V134.375H626.625V90.625Z" fill="#ECEFF1"/>
<path d="M632.875 106.25V96.875H589.125V106.25H632.875Z" fill="#ECEFF1"/>
<path d="M632.875 128.125V118.75H589.125V128.125H632.875Z" fill="#ECEFF1"/>
<path d="M611 162.5C596.159 162.5 582.041 154.766 573.234 141.809C571.778 139.669 572.334 136.753 574.472 135.297C576.616 133.85 579.528 134.397 580.984 136.538C588.15 147.078 599.091 153.125 611 153.125C622.909 153.125 633.85 147.078 641.013 136.541C642.472 134.394 645.384 133.85 647.525 135.3C649.666 136.756 650.219 139.672 648.763 141.813C639.959 154.766 625.841 162.5 611 162.5Z" fill="#ECEFF1"/>
<path fill-rule="evenodd" clip-rule="evenodd" d="M851.739 304.275L861.808 267.671C855.596 256.96 852.33 244.805 852.333 232.356C852.352 193.408 884.181 161.722 923.298 161.722C942.281 161.729 960.094 169.087 973.493 182.437C986.888 195.79 994.266 213.535 994.259 232.412C994.244 271.36 962.407 303.05 923.298 303.05C923.294 303.05 923.298 303.05 923.298 303.05H923.268C911.394 303.046 899.722 300.08 889.357 294.449L851.739 304.275Z" fill="white"/>
<path fill-rule="evenodd" clip-rule="evenodd" d="M851.739 306.136C851.246 306.136 850.767 305.942 850.412 305.585C849.945 305.112 849.762 304.424 849.938 303.787L859.801 267.925C853.686 257.11 850.461 244.828 850.468 232.36C850.483 192.382 883.153 159.861 923.298 159.861C942.77 159.869 961.066 167.42 974.816 181.123C988.566 194.831 996.135 213.045 996.127 232.412C996.113 272.387 963.439 304.911 923.298 304.911C911.379 304.908 899.587 301.979 889.122 296.437L852.214 306.073C852.057 306.117 851.9 306.136 851.739 306.136Z" fill="white"/>
<path fill-rule="evenodd" clip-rule="evenodd" d="M923.298 161.722C942.281 161.729 960.094 169.087 973.493 182.437C986.888 195.79 994.266 213.535 994.259 232.412C994.244 271.36 962.407 303.05 923.298 303.05H923.268C911.394 303.046 899.722 300.08 889.357 294.449L851.739 304.275L861.808 267.671C855.596 256.96 852.33 244.805 852.333 232.356C852.352 193.408 884.181 161.722 923.298 161.722ZM923.298 158C882.125 158 848.614 191.354 848.596 232.356C848.592 244.887 851.769 257.236 857.794 268.166L848.132 303.296C847.781 304.58 848.14 305.949 849.082 306.895C849.792 307.609 850.752 308 851.739 308C852.057 308 852.374 307.959 852.688 307.877L888.894 298.424C899.464 303.888 911.312 306.772 923.268 306.776C964.471 306.776 997.981 273.418 998 232.416C998.007 212.545 990.245 193.862 976.143 179.809C962.034 165.752 943.268 158.007 923.298 158Z" fill="#CFD8DC"/>
<path fill-rule="evenodd" clip-rule="evenodd" d="M965.016 190.871C953.878 179.773 939.074 173.658 923.317 173.654C890.785 173.654 864.327 199.989 864.312 232.361C864.308 243.455 867.426 254.255 873.331 263.608L874.736 265.83L868.775 287.494L891.099 281.666L893.256 282.939C902.308 288.291 912.691 291.119 923.275 291.123H923.298C955.807 291.123 982.265 264.784 982.276 232.409C982.28 216.722 976.154 201.969 965.016 190.871Z" fill="#40C351"/>
<path fill-rule="evenodd" clip-rule="evenodd" d="M905.56 202.828C904.233 199.888 902.835 199.828 901.568 199.776C900.533 199.732 899.352 199.735 898.17 199.735C896.989 199.735 895.068 200.178 893.442 201.946C891.817 203.714 887.234 207.983 887.234 216.669C887.234 225.356 893.588 233.752 894.474 234.928C895.36 236.104 906.741 254.5 924.763 261.579C939.739 267.459 942.789 266.291 946.041 265.997C949.292 265.703 956.532 261.728 958.008 257.604C959.485 253.481 959.485 249.949 959.044 249.212C958.599 248.475 957.418 248.036 955.646 247.15C953.875 246.264 945.155 241.995 943.529 241.407C941.903 240.819 940.722 240.525 939.537 242.293C938.356 244.057 934.959 248.036 933.924 249.212C932.888 250.392 931.853 250.541 930.082 249.655C928.31 248.769 922.599 246.908 915.823 240.894C910.553 236.216 906.995 230.436 905.959 228.668C904.924 226.904 905.847 225.947 906.737 225.065C907.533 224.273 908.508 223.004 909.398 221.973C910.284 220.942 910.579 220.205 911.17 219.029C911.76 217.849 911.465 216.818 911.02 215.936C910.583 215.05 907.137 206.319 905.56 202.828Z" fill="white"/>
<path d="M1012 498.625C1012 503.8 1007.8 508 1002.62 508H871.375C866.2 508 862 503.8 862 498.625V367.375C862 362.2 866.2 358 871.375 358H1002.62C1007.8 358 1012 362.2 1012 367.375V498.625Z" fill="#3B5998"/>
<path d="M965.125 508V451.75H983.875L988.562 428.312H965.125V418.938C965.125 409.562 969.822 404.875 979.188 404.875H988.562V381.438C983.875 381.438 978.062 381.438 969.812 381.438C952.586 381.438 941.688 394.942 941.688 414.25V428.312H922.938V451.75H941.688V508H965.125Z" fill="white"/>
<path d="M691.625 335.687C700.625 353.375 715.125 367.875 732.813 376.875L746.562 363.125C748.312 361.375 750.75 360.875 752.938 361.563C759.938 363.875 767.438 365.125 775.25 365.125C776.908 365.125 778.497 365.783 779.669 366.956C780.842 368.128 781.5 369.717 781.5 371.375V393.25C781.5 394.908 780.842 396.497 779.669 397.669C778.497 398.842 776.908 399.5 775.25 399.5C747.071 399.5 720.046 388.306 700.12 368.38C680.194 348.454 669 321.429 669 293.25C669 291.592 669.658 290.003 670.831 288.831C672.003 287.658 673.592 287 675.25 287H697.125C698.783 287 700.372 287.658 701.544 288.831C702.717 290.003 703.375 291.592 703.375 293.25C703.375 301.062 704.625 308.563 706.937 315.563C707.625 317.75 707.125 320.188 705.375 321.938L691.625 335.687Z" fill="#FA8714"/>
</svg>
