<svg width="3000" height="1500" viewBox="0 0 3000 1500" fill="none" xmlns="http://www.w3.org/2000/svg">
<circle cx="487.632" cy="608.834" r="85.2446" transform="rotate(-42.0526 487.632 608.834)" fill="#FA8714"/>
<rect x="402.754" y="604.463" width="120.554" height="120.554" transform="rotate(-42.0526 402.754 604.463)" fill="#FB9F43"/>
<rect x="424.589" y="665.944" width="120.554" height="120.554" transform="rotate(-87.0526 424.589 665.944)" fill="#FB9F43"/>
<path d="M565.256 532.458C536.146 513.076 565.256 532.458 536.146 513.076C503.358 500.91 536.146 513.076 503.358 500.91C549.307 487.254 503.358 500.91 549.307 487.254C565.256 532.458 549.307 487.254 565.256 532.458Z" fill="#FA8714" stroke="#FB9F43"/>
<path d="M563.804 676.738C582.263 647.034 563.804 676.738 582.263 647.034C593.395 613.88 582.263 647.034 593.395 613.88C608.486 659.378 593.395 613.88 608.486 659.378C563.804 676.738 608.486 659.378 563.804 676.738Z" fill="#FA8714" stroke="#FB9F43"/>
<path d="M489.634 710.35C523.529 701.735 489.634 710.35 523.529 701.735C554.533 685.554 523.529 701.735 554.533 685.554C533.873 728.809 554.533 685.554 533.873 728.809C489.634 710.35 533.873 728.809 489.634 710.35Z" fill="#FA8714" stroke="#FB9F43"/>
<path d="M386.656 612.06C396.309 645.673 386.656 612.06 396.309 645.673C413.435 676.166 396.309 645.673 413.435 676.166C369.566 656.845 413.435 676.166 369.566 656.845C386.656 612.06 369.566 656.845 386.656 612.06Z" fill="#FA8714" stroke="#FB9F43"/>
<path d="M460.354 589.528C463.093 592.564 463.853 596.931 462.786 601.598C461.719 606.264 458.831 611.18 454.354 615.219C449.876 619.258 444.689 621.626 439.939 622.208C435.187 622.791 430.921 621.585 428.182 618.55C425.444 615.514 424.683 611.146 425.75 606.479C426.817 601.814 429.705 596.898 434.183 592.859C438.66 588.82 443.848 586.452 448.598 585.87C453.349 585.287 457.615 586.492 460.354 589.528Z" fill="white" stroke="white"/>
<path d="M506.244 548.132C508.982 551.168 509.743 555.535 508.676 560.202C507.609 564.868 504.721 569.784 500.243 573.823C495.766 577.862 490.578 580.23 485.828 580.812C481.076 581.395 476.811 580.189 474.072 577.154C471.333 574.118 470.573 569.75 471.64 565.083C472.707 560.418 475.595 555.502 480.072 551.463C484.55 547.424 489.737 545.056 494.487 544.474C499.239 543.891 503.505 545.096 506.244 548.132Z" fill="white" stroke="white"/>
<ellipse cx="444.268" cy="604.039" rx="11.508" ry="7.4589" transform="rotate(-42.0526 444.268 604.039)" fill="#7C96F2"/>
<ellipse cx="490.158" cy="562.643" rx="11.508" ry="7.4589" transform="rotate(-42.0526 490.158 562.643)" fill="#7C96F2"/>
<path d="M522.039 585.258C529.843 593.91 529.701 619.963 513.62 634.468C497.54 648.974 471.61 646.441 463.806 637.789C492.922 611.523 463.806 637.789 492.922 611.523C522.039 585.258 492.922 611.523 522.039 585.258Z" fill="#F5D8BA"/>
<circle cx="305.243" cy="814.229" r="81.2544" transform="rotate(-47.8798 305.243 814.229)" fill="#FA8714"/>
<rect x="224.333" y="818.299" width="114.911" height="114.911" transform="rotate(-47.8798 224.333 818.299)" fill="#FB9F43"/>
<rect x="250.989" y="874.486" width="114.911" height="114.911" transform="rotate(-92.8798 250.989 874.486)" fill="#FB9F43"/>
<rect x="250.989" y="874.486" width="114.911" height="114.911" transform="rotate(-92.8798 250.989 874.486)" fill="#FB9F43"/>
<path d="M371.46 734.293C341.98 718.731 371.46 734.293 341.98 718.731C309.711 710.367 341.98 718.731 309.711 710.367C351.961 692.971 309.711 710.367 351.961 692.971C371.46 734.293 351.961 692.971 371.46 734.293Z" fill="#FA8714" stroke="#FB9F43"/>
<path d="M384.046 871.249C398.675 841.295 384.046 871.249 398.675 841.295C406.023 808.779 398.675 841.295 406.023 808.779C424.736 850.463 406.023 808.779 424.736 850.463C384.046 871.249 424.736 850.463 384.046 871.249Z" fill="#FA8714" stroke="#FB9F43"/>
<path d="M316.966 910.3C348.273 898.85 316.966 910.3 348.273 898.85C376.108 880.506 348.273 898.85 376.108 880.506C360.703 923.523 376.108 880.506 360.703 923.523C316.966 910.3 360.703 923.523 316.966 910.3Z" fill="#FA8714" stroke="#FB9F43"/>
<path d="M209.803 827.06C222.21 858.001 209.803 827.06 222.21 858.001C241.4 885.258 222.21 858.001 241.4 885.258C197.931 871.183 241.4 885.258 197.931 871.183C209.803 827.06 197.931 871.183 209.803 827.06Z" fill="#FA8714" stroke="#FB9F43"/>
<path d="M317.002 754.885C319.886 757.492 321.028 761.551 320.469 766.074C319.909 770.596 317.649 775.534 313.797 779.794C309.944 784.054 305.259 786.799 300.816 787.809C296.371 788.82 292.218 788.09 289.335 785.483C286.451 782.876 285.308 778.817 285.868 774.293C286.427 769.771 288.688 764.834 292.54 760.574C296.392 756.313 301.078 753.569 305.521 752.558C309.965 751.547 314.118 752.277 317.002 754.885Z" fill="white" stroke="white"/>
<ellipse cx="303.169" cy="770.184" rx="10.9693" ry="7.10976" transform="rotate(-47.8798 303.169 770.184)" fill="#19D659"/>
<path d="M281.805 793.81C284.688 796.417 285.831 800.476 285.271 805C284.712 809.521 282.451 814.459 278.599 818.719C274.747 822.979 270.061 825.724 265.619 826.734C261.174 827.745 257.021 827.015 254.137 824.408C251.254 821.801 250.111 817.742 250.671 813.218C251.23 808.696 253.491 803.759 257.343 799.499C261.195 795.238 265.881 792.494 270.323 791.483C274.768 790.472 278.921 791.202 281.805 793.81Z" fill="white" stroke="white"/>
<ellipse cx="267.971" cy="809.109" rx="10.9693" ry="7.10976" transform="rotate(-47.8798 267.971 809.109)" fill="#19D659"/>
<path d="M335.975 799.941C341.469 804.909 348.608 818.365 333.4 835.184C318.193 852.002 306.319 843.783 300.825 838.815C295.331 833.847 314.214 848.404 329.421 831.586C344.629 814.767 330.481 794.973 335.975 799.941Z" fill="#FF8000"/>
<path d="M1245.81 0L2324.71 1125H166.906L1245.81 0Z" fill="#A19999"/>
<path d="M1907.75 151.559L2853.67 1123.27H961.834L1907.75 151.559Z" fill="#A19999"/>
<circle cx="662.169" cy="437.819" r="76.1598" transform="rotate(-39.9061 662.169 437.819)" fill="#FA8714"/>
<rect x="586.535" y="431.077" width="107.706" height="107.706" transform="rotate(-39.9061 586.535 431.077)" fill="#FB9F43"/>
<rect x="603.974" y="486.698" width="107.706" height="107.706" transform="rotate(-84.9061 603.974 486.698)" fill="#FB9F43"/>
<rect x="603.974" y="486.698" width="107.706" height="107.706" transform="rotate(-84.9061 603.974 486.698)" fill="#FB9F43"/>
<path d="M734.028 372.229C708.687 353.95 734.028 372.229 708.687 353.95C679.821 341.991 708.687 353.95 679.821 341.991C721.302 331.336 679.821 341.991 721.302 331.336C734.028 372.229 721.302 331.336 734.028 372.229Z" fill="#FA8714" stroke="#FB9F43"/>
<path d="M727.903 500.993C745.377 475.091 727.903 500.993 745.377 475.091C756.425 445.864 745.377 475.091 756.425 445.864C768.375 486.99 756.425 445.864 768.375 486.99C727.903 500.993 768.375 486.99 727.903 500.993Z" fill="#FA8714" stroke="#FB9F43"/>
<path d="M660.559 528.52C691.108 521.962 660.559 528.52 691.108 521.962C719.33 508.554 691.108 521.962 719.33 508.554C699.438 546.481 719.33 508.554 699.438 546.481C660.559 528.52 699.438 546.481 660.559 528.52Z" fill="#FA8714" stroke="#FB9F43"/>
<path d="M571.91 437.32C579.403 467.654 571.91 437.32 579.403 467.654C593.673 495.45 579.403 467.654 593.673 495.45C555.153 476.732 593.673 495.45 555.153 476.732C571.91 437.32 555.153 476.732 571.91 437.32Z" fill="#FA8714" stroke="#FB9F43"/>
<path d="M680.775 384.282C683.104 387.067 683.638 390.972 682.532 395.091C681.426 399.209 678.69 403.493 674.565 406.943C670.439 410.393 665.739 412.328 661.491 412.688C657.241 413.048 653.492 411.832 651.163 409.047C648.833 406.262 648.3 402.357 649.406 398.238C650.511 394.12 653.248 389.836 657.373 386.386C661.498 382.936 666.198 381.001 670.447 380.641C674.697 380.281 678.446 381.497 680.775 384.282Z" fill="white" stroke="white"/>
<ellipse cx="665.97" cy="396.665" rx="10.2816" ry="6.66398" transform="rotate(-39.9061 665.97 396.665)" fill="#19D659"/>
<path d="M643.043 415.837C645.373 418.623 645.906 422.528 644.8 426.647C643.695 430.764 640.959 435.048 636.833 438.498C632.708 441.948 628.008 443.884 623.759 444.244C619.509 444.603 615.76 443.388 613.431 440.603C611.102 437.817 610.568 433.912 611.674 429.793C612.78 425.675 615.516 421.392 619.641 417.942C623.767 414.492 628.467 412.556 632.715 412.196C636.965 411.837 640.714 413.052 643.043 415.837Z" fill="white" stroke="white"/>
<ellipse cx="628.237" cy="428.22" rx="10.2816" ry="6.66398" transform="rotate(-39.9061 628.237 428.22)" fill="#19D659"/>
<path d="M692.553 428.552C697.007 433.878 701.884 447.296 685.581 460.931C669.278 474.565 659.325 465.392 654.871 460.066C650.417 454.74 666.052 470.708 682.355 457.073C698.658 443.439 688.099 423.226 692.553 428.552Z" fill="#FF8000"/>
<rect x="716.133" y="336.225" width="15.2596" height="164.804" transform="rotate(-40.0164 716.133 336.225)" fill="#776868"/>
</svg>
