<svg width="1591" height="1000" viewBox="0 0 1591 1000" fill="none" xmlns="http://www.w3.org/2000/svg">
<g filter="url(#filter0_d_329_770)">
<rect x="584.782" width="1004" height="571" transform="rotate(3.66131 584.782 0)" fill="white"/>
</g>
<circle cx="727.596" cy="148.423" r="100" transform="rotate(3.66131 727.596 148.423)" fill="#FB9F43"/>
<path d="M765.133 130.116C766.859 128.598 767.032 125.895 765.508 124.253L756.401 113.9C754.966 112.18 752.263 112.007 750.538 113.525L742.4 120.645L756.995 137.236L765.133 130.116ZM688.776 167.858L687.778 183.452L703.371 184.449L752.306 141.361L737.71 124.77L688.776 167.858Z" fill="white"/>
<path d="M917.875 134.73L913.42 134.445L914.328 133.781L913.605 145.086L912.986 144.229L918.865 145.567L918.733 147.627L905.416 146.775L905.548 144.715L910.45 144.019L909.677 144.835L911.531 115.854L912.287 116.816L907.409 115.638L907.54 113.579L915.699 113.86L921.112 114.206C923.571 114.364 925.572 114.909 927.116 115.841C928.659 116.774 929.783 118 930.488 119.52C931.192 121.04 931.482 122.774 931.357 124.722C931.22 126.862 930.621 128.715 929.559 130.283C928.496 131.85 926.978 133.035 925.002 133.839C923.061 134.613 920.685 134.909 917.875 134.73ZM920.35 117.092L914.698 116.73L915.462 116.057L914.423 132.296L913.607 131.523L918.062 131.808C920.872 131.987 923.073 131.423 924.663 130.114C926.286 128.807 927.174 126.956 927.327 124.561C927.466 122.389 926.937 120.64 925.739 119.312C924.574 117.987 922.777 117.247 920.35 117.092ZM932.957 148.537L933.089 146.477L937.362 145.837L936.837 146.525L938.158 125.879L938.639 126.631L934.434 125.448L934.566 123.388L941.294 123.482L941.52 128.21L941.006 127.985C942.539 126.576 944.019 125.5 945.445 124.758C946.871 124.015 948.399 123.696 950.027 123.801C951.049 123.866 952.109 124.094 953.206 124.485L952.471 131.46L950.076 131.307L949.823 126.241L950.199 127.13C949.98 127.052 949.743 126.989 949.49 126.941C949.236 126.892 948.982 126.86 948.726 126.844C947.449 126.762 946.179 127.065 944.916 127.754C943.686 128.445 942.489 129.363 941.325 130.507L941.782 129.381L940.669 146.77L940.141 146.015L945.304 147.259L945.172 149.319L932.957 148.537ZM966.934 124.882C970.447 125.107 973.123 126.385 974.962 128.715C976.833 131.047 977.639 134.225 977.382 138.249C977.208 140.963 976.561 143.311 975.44 145.291C974.353 147.242 972.88 148.719 971.02 149.722C969.16 150.725 966.969 151.146 964.446 150.985C960.997 150.764 958.367 149.522 956.556 147.257C954.747 144.961 953.972 141.785 954.232 137.729C954.412 134.919 955.029 132.538 956.084 130.585C957.173 128.603 958.63 127.125 960.456 126.151C962.316 125.148 964.475 124.725 966.934 124.882ZM966.562 127.696C964.103 127.539 962.159 128.345 960.731 130.113C959.304 131.881 958.482 134.442 958.268 137.795C958.057 141.085 958.522 143.599 959.661 145.34C960.8 147.08 962.535 148.025 964.867 148.174C966.559 148.282 968.007 147.958 969.21 147.201C970.446 146.415 971.402 145.257 972.077 143.729C972.784 142.203 973.207 140.355 973.346 138.183C973.554 134.926 973.058 132.409 971.857 130.633C970.69 128.826 968.925 127.848 966.562 127.696ZM979.346 162.568L979.478 160.508L983.902 159.781L983.233 160.46L985.247 128.988L985.782 129.648L981.529 128.462L981.661 126.402L988.388 126.496L988.601 130.694L988.188 130.379C989.745 129.1 991.279 128.172 992.791 127.595C994.305 126.987 995.781 126.728 997.218 126.82C999.006 126.935 1000.57 127.532 1001.91 128.612C1003.29 129.694 1004.33 131.203 1005.04 133.141C1005.75 135.046 1006.02 137.356 1005.85 140.07C1005.66 143.008 1004.99 145.45 1003.84 147.397C1002.72 149.345 1001.22 150.788 999.327 151.726C997.442 152.631 995.269 153.005 992.81 152.848C991.916 152.791 990.995 152.652 990.047 152.431C989.1 152.21 988.107 151.938 987.07 151.615L987.678 151.125L987.065 160.705L986.581 160.001L991.454 161.274L991.322 163.334L979.346 162.568ZM992.563 149.946C995.374 150.126 997.571 149.353 999.157 147.627C1000.74 145.9 1001.64 143.424 1001.84 140.199C1001.98 138.091 1001.79 136.268 1001.28 134.728C1000.8 133.19 1000.08 131.989 999.106 131.126C998.138 130.23 996.999 129.74 995.689 129.656C994.572 129.585 993.387 129.814 992.134 130.343C990.916 130.842 989.661 131.66 988.37 132.795L988.926 131.629L987.776 149.592L987.304 148.696C989.214 149.427 990.967 149.844 992.563 149.946ZM1023.02 128.471C1026.54 128.696 1029.21 129.974 1031.05 132.304C1032.92 134.636 1033.73 137.814 1033.47 141.838C1033.3 144.552 1032.65 146.9 1031.53 148.88C1030.44 150.831 1028.97 152.308 1027.11 153.311C1025.25 154.314 1023.06 154.735 1020.53 154.574C1017.09 154.353 1014.46 153.111 1012.64 150.846C1010.84 148.55 1010.06 145.374 1010.32 141.319C1010.5 138.508 1011.12 136.127 1012.17 134.174C1013.26 132.192 1014.72 130.714 1016.54 129.74C1018.4 128.737 1020.56 128.314 1023.02 128.471ZM1022.65 131.285C1020.19 131.128 1018.25 131.934 1016.82 133.702C1015.39 135.47 1014.57 138.031 1014.36 141.384C1014.15 144.674 1014.61 147.188 1015.75 148.929C1016.89 150.669 1018.62 151.614 1020.95 151.763C1022.65 151.871 1024.1 151.547 1025.3 150.79C1026.53 150.004 1027.49 148.846 1028.17 147.318C1028.87 145.792 1029.3 143.944 1029.43 141.772C1029.64 138.515 1029.15 135.998 1027.95 134.222C1026.78 132.415 1025.01 131.437 1022.65 131.285ZM1042.73 136.322C1042.67 137.344 1042.95 138.164 1043.58 138.781C1044.22 139.399 1045.05 139.933 1046.08 140.384C1047.11 140.803 1048.2 141.226 1049.36 141.652C1050.52 142.079 1051.61 142.582 1052.63 143.16C1053.66 143.739 1054.47 144.497 1055.09 145.434C1055.7 146.371 1055.96 147.574 1055.87 149.043C1055.76 150.735 1055.2 152.127 1054.2 153.217C1053.2 154.308 1051.89 155.105 1050.25 155.61C1048.65 156.084 1046.87 156.259 1044.93 156.135C1043.74 156.059 1042.54 155.886 1041.3 155.614C1040.07 155.343 1038.81 154.99 1037.52 154.555L1038.27 148.157L1040.71 148.314L1040.89 153.039L1040.49 152.484C1041.22 152.723 1042 152.934 1042.86 153.116C1043.71 153.299 1044.51 153.414 1045.24 153.461C1046.39 153.535 1047.46 153.443 1048.43 153.185C1049.45 152.897 1050.28 152.453 1050.92 151.853C1051.57 151.221 1051.93 150.41 1051.99 149.42C1052.06 148.366 1051.78 147.515 1051.15 146.865C1050.55 146.217 1049.73 145.668 1048.7 145.218C1047.67 144.767 1046.58 144.344 1045.42 143.949C1044.29 143.524 1043.22 143.023 1042.19 142.444C1041.18 141.834 1040.36 141.076 1039.74 140.171C1039.13 139.266 1038.87 138.063 1038.96 136.562C1039.07 134.933 1039.57 133.635 1040.46 132.666C1041.39 131.667 1042.56 130.972 1043.96 130.581C1045.4 130.16 1046.92 130.001 1048.52 130.103C1049.6 130.172 1050.79 130.361 1052.09 130.668C1053.38 130.975 1054.7 131.396 1056.05 131.931L1055.46 137.329L1053.02 137.173L1052.55 133.151L1053.09 133.858C1051.46 133.273 1049.91 132.933 1048.44 132.839C1046.87 132.739 1045.54 132.991 1044.44 133.594C1043.38 134.167 1042.81 135.077 1042.73 136.322ZM1079.37 155.741L1078.8 154.839L1083.15 155.983L1083.02 158.091L1076.29 157.949L1076.01 153.314L1076.34 153.479C1074.83 154.922 1073.24 155.991 1071.56 156.685C1069.89 157.347 1068.28 157.629 1066.75 157.531C1064.9 157.412 1063.37 156.722 1062.17 155.458C1060.96 154.195 1060.44 152.366 1060.59 149.971C1060.71 148.086 1061.21 146.675 1062.07 145.736C1062.93 144.765 1064.08 144.117 1065.51 143.792C1066.94 143.467 1068.58 143.363 1070.44 143.482L1076.71 143.883L1076.25 144.335L1076.54 139.736C1076.66 137.98 1076.27 136.705 1075.39 135.911C1074.52 135.085 1073.26 134.62 1071.64 134.516C1070.77 134.461 1069.84 134.497 1068.84 134.626C1067.87 134.724 1066.83 134.93 1065.72 135.244L1066.34 134.658L1065.58 138.986L1063.04 138.824L1063.04 132.86C1064.89 132.369 1066.63 132.032 1068.25 131.846C1069.86 131.629 1071.34 131.563 1072.68 131.649C1075.24 131.813 1077.2 132.515 1078.56 133.757C1079.96 134.969 1080.58 136.82 1080.42 139.311L1079.37 155.741ZM1064.5 149.884C1064.39 151.448 1064.69 152.621 1065.38 153.403C1066.1 154.187 1067.03 154.615 1068.18 154.689C1069.3 154.76 1070.55 154.504 1071.93 153.919C1073.35 153.304 1074.74 152.447 1076.09 151.347L1075.74 152.334L1076.15 145.916L1076.55 146.374L1070.85 146.01C1068.58 145.864 1066.98 146.115 1066.04 146.76C1065.1 147.373 1064.59 148.415 1064.5 149.884ZM1092.84 156.315L1092.44 155.76L1096.55 156.937L1096.42 158.997L1085.07 158.27L1085.2 156.211L1089.43 155.567L1089.01 156.07L1091.04 124.358L1091.39 124.814L1087.28 123.685L1087.41 121.625L1095.05 121.777L1092.84 156.315ZM1117.44 160.775C1115.78 160.668 1114.5 160.074 1113.61 158.99C1112.72 157.875 1112.34 156.264 1112.48 154.156L1113.59 136.768L1114.17 137.43L1109.24 137.115L1109.37 135.007L1114.4 134.607L1113.68 135.331L1114.08 129.008L1117.96 128.63L1117.51 135.576L1117.02 134.919L1124.55 135.401L1124.23 138.074L1116.85 137.602L1117.42 137.013L1116.34 153.874C1116.26 155.216 1116.45 156.206 1116.92 156.846C1117.42 157.487 1118.16 157.838 1119.11 157.9C1119.69 157.937 1120.32 157.881 1121 157.732C1121.68 157.583 1122.42 157.358 1123.21 157.055L1123.88 159.311C1121.53 160.411 1119.39 160.899 1117.44 160.775ZM1139.64 135.934C1143.16 136.159 1145.83 137.436 1147.67 139.766C1149.54 142.099 1150.35 145.277 1150.09 149.3C1149.92 152.015 1149.27 154.362 1148.15 156.343C1147.06 158.293 1145.59 159.77 1143.73 160.774C1141.87 161.777 1139.68 162.198 1137.16 162.036C1133.71 161.816 1131.08 160.573 1129.27 158.309C1127.46 156.013 1126.68 152.837 1126.94 148.781C1127.12 145.971 1127.74 143.589 1128.79 141.637C1129.88 139.654 1131.34 138.176 1133.17 137.203C1135.03 136.2 1137.18 135.777 1139.64 135.934ZM1139.27 138.748C1136.81 138.591 1134.87 139.396 1133.44 141.165C1132.01 142.933 1131.19 145.494 1130.98 148.847C1130.77 152.136 1131.23 154.651 1132.37 156.391C1133.51 158.132 1135.24 159.076 1137.58 159.225C1139.27 159.334 1140.72 159.01 1141.92 158.253C1143.16 157.466 1144.11 156.309 1144.79 154.781C1145.49 153.255 1145.92 151.406 1146.06 149.235C1146.26 145.977 1145.77 143.46 1144.57 141.684C1143.4 139.878 1141.63 138.899 1139.27 138.748ZM1174.06 164.398C1172.01 164.267 1170.19 163.653 1168.6 162.557C1167.03 161.431 1165.83 159.879 1165 157.902C1164.2 155.927 1163.88 153.598 1164.05 150.915C1164.2 148.584 1164.65 146.608 1165.39 144.989C1166.17 143.339 1167.15 142.007 1168.34 140.993C1169.53 139.979 1170.86 139.262 1172.33 138.843C1173.83 138.394 1175.37 138.22 1176.93 138.32C1178.21 138.402 1179.55 138.664 1180.97 139.107C1182.41 139.553 1183.66 140.113 1184.71 140.79L1184.13 146.765L1181.55 146.6L1181.21 142.057L1181.57 142.513C1180.79 142.078 1179.96 141.753 1179.08 141.536C1178.2 141.319 1177.4 141.188 1176.7 141.143C1175.04 141.037 1173.58 141.376 1172.31 142.16C1171.07 142.915 1170.09 144.039 1169.35 145.531C1168.61 147.023 1168.18 148.822 1168.04 150.93C1167.9 153.102 1168.12 154.959 1168.7 156.503C1169.27 158.047 1170.11 159.239 1171.21 160.079C1172.34 160.921 1173.64 161.389 1175.11 161.483C1176.26 161.557 1177.49 161.395 1178.8 160.997C1180.11 160.6 1181.48 159.966 1182.91 159.096L1184.12 161.29C1182.38 162.461 1180.65 163.297 1178.96 163.797C1177.26 164.298 1175.62 164.498 1174.06 164.398ZM1185.88 164.721L1186.01 162.661L1190.43 161.982L1189.81 162.664L1191.86 130.57L1192.39 131.373L1188.09 130.136L1188.22 128.076L1195.86 128.228L1194.82 144.419L1193.97 144.172C1195.64 142.644 1197.36 141.551 1199.14 140.895C1200.94 140.241 1202.63 139.964 1204.19 140.064C1205.6 140.154 1206.84 140.522 1207.92 141.169C1209 141.815 1209.81 142.748 1210.34 143.969C1210.91 145.159 1211.13 146.649 1211.02 148.437L1210.02 163.957L1209.59 163.256L1213.74 164.436L1213.61 166.496L1202.45 165.782L1202.58 163.722L1206.76 163.075L1206.19 163.76L1207.13 149.054C1207.29 147.076 1206.93 145.595 1206.07 144.609C1205.2 143.624 1204.02 143.083 1202.51 142.987C1201.37 142.914 1200.07 143.151 1198.62 143.7C1197.18 144.249 1195.75 145.168 1194.36 146.457L1194.74 145.664L1193.64 162.957L1193.2 162.256L1197.22 163.379L1197.09 165.438L1185.88 164.721ZM1236.08 165.769L1235.51 164.867L1239.86 166.011L1239.73 168.119L1233 167.977L1232.72 163.342L1233.05 163.507C1231.55 164.95 1229.95 166.018 1228.27 166.713C1226.6 167.375 1224.99 167.657 1223.46 167.559C1221.61 167.44 1220.08 166.749 1218.88 165.486C1217.68 164.223 1217.15 162.393 1217.3 159.998C1217.42 158.114 1217.92 156.703 1218.78 155.764C1219.64 154.793 1220.79 154.145 1222.22 153.82C1223.65 153.494 1225.29 153.391 1227.15 153.51L1233.42 153.911L1232.96 154.363L1233.25 149.764C1233.37 148.008 1232.98 146.733 1232.1 145.939C1231.23 145.113 1229.97 144.648 1228.35 144.544C1227.48 144.489 1226.55 144.525 1225.55 144.654C1224.58 144.752 1223.54 144.958 1222.43 145.272L1223.05 144.686L1222.29 149.014L1219.75 148.852L1219.75 142.887C1221.61 142.397 1223.34 142.059 1224.96 141.874C1226.57 141.657 1228.05 141.591 1229.39 141.677C1231.95 141.841 1233.91 142.543 1235.27 143.785C1236.67 144.996 1237.29 146.848 1237.13 149.339L1236.08 165.769ZM1221.21 159.911C1221.11 161.476 1221.4 162.649 1222.09 163.431C1222.81 164.214 1223.74 164.643 1224.89 164.716C1226.01 164.788 1227.26 164.531 1228.64 163.946C1230.06 163.332 1231.45 162.475 1232.8 161.375L1232.45 162.362L1232.86 155.943L1233.26 156.402L1227.56 156.037C1225.29 155.892 1223.69 156.142 1222.75 156.788C1221.82 157.401 1221.3 158.442 1221.21 159.911ZM1242.45 168.341L1242.58 166.281L1246.95 165.599L1246.33 166.281L1247.65 145.683L1248.18 146.438L1243.93 145.252L1244.06 143.193L1250.79 143.286L1251.01 148.014L1250.5 147.789C1252.2 146.263 1253.94 145.171 1255.71 144.515C1257.51 143.861 1259.2 143.584 1260.76 143.684C1262.87 143.819 1264.57 144.585 1265.86 145.982C1267.18 147.35 1267.74 149.39 1267.54 152.102L1266.55 167.574L1266.11 166.873L1270.27 168.053L1270.14 170.113L1258.98 169.399L1259.11 167.339L1263.33 166.695L1262.71 167.377L1263.65 152.671C1263.78 150.691 1263.43 149.21 1262.59 148.226C1261.76 147.243 1260.59 146.703 1259.09 146.607C1257.91 146.532 1256.59 146.768 1255.15 147.317C1253.73 147.868 1252.31 148.771 1250.88 150.026L1251.27 149.281L1250.16 166.574L1249.73 165.873L1253.74 166.995L1253.61 169.055L1242.45 168.341ZM1282.86 182.422C1279.12 182.183 1276.36 181.461 1274.58 180.257C1272.79 179.053 1271.97 177.429 1272.1 175.385C1272.19 173.948 1272.75 172.701 1273.78 171.645C1274.81 170.588 1276.28 169.704 1278.18 168.992L1278.18 169.762C1277.16 169.633 1276.4 169.375 1275.87 168.989C1275.36 168.571 1275.12 168.027 1275.16 167.356C1275.18 167.101 1275.23 166.847 1275.31 166.596C1275.39 166.344 1275.52 166 1275.71 165.563C1275.93 165.097 1276.24 164.491 1276.64 163.747C1277.08 162.973 1277.62 161.966 1278.28 160.726L1278.33 161.402C1277.01 160.58 1276.02 159.523 1275.36 158.23C1274.71 156.906 1274.44 155.381 1274.55 153.657C1274.72 150.879 1275.78 148.733 1277.7 147.221C1279.66 145.711 1282.25 145.059 1285.47 145.265C1287.64 145.404 1289.49 145.907 1291 146.774L1289.97 146.467L1297.51 146.613L1297.41 148.915L1292.9 149.492L1293.27 148.939C1293.9 149.62 1294.36 150.436 1294.65 151.384C1294.95 152.333 1295.05 153.398 1294.98 154.579C1294.8 157.39 1293.71 159.549 1291.73 161.057C1289.74 162.565 1287.18 163.219 1284.05 163.019C1282.26 162.904 1280.64 162.496 1279.17 161.793L1280.06 161.417L1278.42 167.612L1277.63 167.081L1287.02 167.682C1290.09 167.878 1292.38 168.634 1293.9 169.95C1295.42 171.234 1296.11 172.993 1295.97 175.229C1295.8 177.815 1294.6 179.727 1292.38 180.963C1290.18 182.201 1287.01 182.688 1282.86 182.422ZM1283.38 179.522C1286.28 179.707 1288.46 179.446 1289.92 178.738C1291.38 178.029 1292.16 176.877 1292.26 175.28C1292.35 173.875 1291.89 172.771 1290.88 171.969C1289.87 171.199 1288.32 170.747 1286.21 170.612L1278.59 170.125L1279.71 169.956C1277.05 171.389 1275.66 173.032 1275.55 174.884C1275.46 176.257 1276.05 177.321 1277.31 178.075C1278.61 178.864 1280.63 179.346 1283.38 179.522ZM1284.22 160.336C1286.26 160.467 1287.9 160.026 1289.11 159.014C1290.34 157.97 1291.01 156.442 1291.14 154.43C1291.27 152.418 1290.82 150.866 1289.8 149.775C1288.78 148.684 1287.27 148.074 1285.25 147.945C1283.21 147.814 1281.59 148.256 1280.41 149.27C1279.22 150.252 1278.56 151.765 1278.43 153.809C1278.31 155.789 1278.74 157.34 1279.72 158.461C1280.74 159.584 1282.24 160.209 1284.22 160.336ZM1310.28 173.115C1308.15 172.978 1306.28 172.377 1304.68 171.313C1303.11 170.219 1301.93 168.7 1301.12 166.756C1300.31 164.813 1300 162.484 1300.17 159.77C1300.35 156.991 1300.98 154.627 1302.07 152.676C1303.16 150.726 1304.61 149.264 1306.44 148.29C1308.27 147.285 1310.36 146.858 1312.72 147.009C1314.96 147.152 1316.77 147.749 1318.14 148.799C1319.55 149.819 1320.55 151.182 1321.15 152.887C1321.78 154.595 1322.02 156.519 1321.89 158.658C1321.87 159.009 1321.83 159.36 1321.77 159.709C1321.72 160.058 1321.64 160.486 1321.55 160.993L1303.1 159.813L1303.28 157.083L1318.37 158.048L1317.92 158.308C1318.04 156.873 1317.95 155.536 1317.65 154.298C1317.34 153.06 1316.75 152.044 1315.87 151.251C1314.99 150.457 1313.78 150.011 1312.25 149.913C1310.62 149.809 1309.22 150.152 1308.05 150.943C1306.88 151.733 1305.97 152.862 1305.33 154.328C1304.69 155.794 1304.31 157.517 1304.18 159.497C1304.05 161.605 1304.23 163.445 1304.74 165.016C1305.25 166.556 1306.06 167.778 1307.15 168.682C1308.28 169.588 1309.69 170.095 1311.38 170.203C1312.57 170.279 1313.87 170.138 1315.31 169.781C1316.74 169.392 1318.24 168.766 1319.8 167.904L1321.06 170.148C1319.19 171.248 1317.34 172.043 1315.52 172.536C1313.69 173.028 1311.95 173.221 1310.28 173.115ZM1343.15 175.218C1341.49 175.111 1340.21 174.517 1339.32 173.433C1338.43 172.318 1338.05 170.707 1338.19 168.599L1339.3 151.211L1339.88 151.873L1334.95 151.558L1335.08 149.45L1340.11 149.05L1339.39 149.774L1339.79 143.451L1343.67 143.073L1343.22 150.019L1342.74 149.362L1350.26 149.844L1349.94 152.517L1342.56 152.045L1343.13 151.456L1342.05 168.317C1341.97 169.659 1342.16 170.649 1342.63 171.289C1343.13 171.93 1343.87 172.281 1344.82 172.343C1345.4 172.38 1346.03 172.324 1346.71 172.175C1347.39 172.026 1348.13 171.801 1348.92 171.498L1349.59 173.754C1347.24 174.854 1345.1 175.342 1343.15 175.218ZM1350.91 175.282L1351.05 173.222L1355.47 172.543L1354.85 173.225L1356.9 141.13L1357.43 141.933L1353.13 140.696L1353.26 138.637L1360.9 138.789L1359.86 154.98L1359.01 154.733C1360.68 153.204 1362.4 152.112 1364.17 151.456C1365.98 150.802 1367.67 150.525 1369.23 150.625C1370.64 150.715 1371.88 151.083 1372.96 151.729C1374.04 152.376 1374.85 153.309 1375.38 154.53C1375.94 155.72 1376.17 157.209 1376.05 158.998L1375.06 174.518L1374.62 173.817L1378.78 174.997L1378.65 177.056L1367.49 176.342L1367.62 174.282L1371.8 173.636L1371.23 174.321L1372.17 159.615C1372.32 157.637 1371.97 156.155 1371.1 155.17C1370.24 154.185 1369.05 153.644 1367.55 153.548C1366.4 153.474 1365.1 153.712 1363.66 154.261C1362.21 154.809 1360.79 155.728 1359.39 157.018L1359.78 156.225L1358.67 173.518L1358.24 172.816L1362.26 173.939L1362.12 175.999L1350.91 175.282ZM1392.66 178.386C1390.52 178.249 1388.65 177.648 1387.05 176.584C1385.49 175.49 1384.3 173.971 1383.5 172.028C1382.69 170.084 1382.38 167.755 1382.55 165.041C1382.73 162.263 1383.36 159.898 1384.45 157.948C1385.53 155.997 1386.99 154.535 1388.82 153.562C1390.64 152.556 1392.74 152.129 1395.1 152.281C1397.34 152.424 1399.14 153.02 1400.52 154.07C1401.93 155.09 1402.93 156.453 1403.53 158.159C1404.16 159.866 1404.4 161.79 1404.27 163.929C1404.24 164.281 1404.2 164.631 1404.15 164.98C1404.1 165.329 1404.02 165.758 1403.92 166.264L1385.48 165.084L1385.66 162.354L1400.75 163.319L1400.3 163.579C1400.42 162.144 1400.33 160.808 1400.02 159.57C1399.72 158.332 1399.13 157.316 1398.25 156.522C1397.37 155.728 1396.16 155.282 1394.63 155.184C1393 155.08 1391.6 155.423 1390.43 156.214C1389.25 157.005 1388.35 158.133 1387.71 159.599C1387.07 161.065 1386.69 162.789 1386.56 164.769C1386.43 166.876 1386.61 168.716 1387.12 170.288C1387.63 171.827 1388.44 173.049 1389.53 173.953C1390.66 174.859 1392.07 175.366 1393.76 175.474C1394.94 175.55 1396.25 175.409 1397.69 175.052C1399.12 174.663 1400.62 174.037 1402.18 173.175L1403.43 175.42C1401.57 176.519 1399.72 177.315 1397.89 177.807C1396.07 178.299 1394.32 178.492 1392.66 178.386ZM911.074 205.688C909.317 205.576 907.751 204.995 906.375 203.945C905.002 202.863 903.96 201.353 903.25 199.416C902.542 197.447 902.275 195.105 902.449 192.39C902.733 187.951 904.081 184.671 906.494 182.548C908.906 180.426 912.093 179.492 916.052 179.745C916.883 179.798 917.741 179.917 918.627 180.102C919.545 180.289 920.475 180.541 921.416 180.858L920.622 181.24L921.238 171.612L921.636 172.166L917.29 170.926L917.422 168.866L925.251 169.031L923.035 203.664L922.503 202.956L926.759 204.095L926.625 206.202L919.9 206.061L919.589 201.904L920.055 202.126C918.53 203.408 917.011 204.353 915.497 204.961C914.017 205.54 912.543 205.782 911.074 205.688ZM912.602 202.852C913.72 202.923 914.888 202.71 916.106 202.21C917.358 201.681 918.629 200.865 919.918 199.761L919.356 201.024L920.518 182.869L920.984 183.86C919.077 183.097 917.325 182.664 915.728 182.562C912.918 182.382 910.72 183.156 909.134 184.882C907.549 186.608 906.653 189.084 906.447 192.309C906.312 194.417 906.483 196.256 906.959 197.825C907.47 199.365 908.211 200.567 909.182 201.431C910.184 202.296 911.324 202.77 912.602 202.852ZM940.954 207.6C938.814 207.463 936.945 206.863 935.345 205.798C933.78 204.704 932.594 203.185 931.789 201.242C930.983 199.299 930.667 196.97 930.841 194.255C931.019 191.477 931.651 189.112 932.738 187.162C933.825 185.211 935.281 183.749 937.107 182.776C938.935 181.771 941.03 181.343 943.394 181.495C945.629 181.638 947.435 182.234 948.81 183.284C950.22 184.304 951.223 185.667 951.819 187.373C952.448 189.08 952.693 191.004 952.556 193.144C952.534 193.495 952.496 193.845 952.441 194.194C952.387 194.544 952.311 194.972 952.215 195.479L933.772 194.298L933.947 191.568L949.036 192.534L948.587 192.793C948.711 191.358 948.62 190.022 948.314 188.784C948.009 187.546 947.416 186.53 946.537 185.736C945.658 184.942 944.452 184.496 942.919 184.398C941.291 184.294 939.89 184.637 938.717 185.428C937.544 186.219 936.638 187.347 935.999 188.813C935.36 190.28 934.977 192.003 934.851 193.983C934.716 196.09 934.903 197.93 935.411 199.502C935.922 201.041 936.726 202.263 937.822 203.167C938.951 204.073 940.361 204.58 942.054 204.688C943.235 204.764 944.543 204.623 945.977 204.266C947.413 203.877 948.912 203.251 950.474 202.389L951.725 204.634C949.859 205.733 948.012 206.529 946.185 207.021C944.358 207.513 942.614 207.706 940.954 207.6ZM961.841 189.265C961.776 190.287 962.06 191.106 962.694 191.724C963.328 192.342 964.159 192.876 965.189 193.327C966.22 193.745 967.315 194.168 968.474 194.595C969.633 195.022 970.724 195.525 971.745 196.103C972.766 196.681 973.583 197.439 974.197 198.376C974.81 199.313 975.07 200.516 974.976 201.985C974.867 203.678 974.313 205.069 973.314 206.16C972.314 207.25 970.996 208.048 969.361 208.552C967.759 209.027 965.984 209.202 964.036 209.077C962.855 209.002 961.647 208.828 960.414 208.557C959.181 208.286 957.921 207.932 956.634 207.497L957.38 201.1L959.823 201.256L960.002 205.981L959.604 205.427C960.327 205.665 961.115 205.876 961.969 206.059C962.823 206.242 963.617 206.357 964.352 206.404C965.501 206.477 966.565 206.385 967.544 206.127C968.556 205.839 969.386 205.395 970.034 204.795C970.684 204.164 971.04 203.353 971.104 202.363C971.171 201.309 970.889 200.457 970.257 199.808C969.657 199.16 968.843 198.611 967.813 198.16C966.784 197.709 965.689 197.287 964.528 196.892C963.4 196.467 962.326 195.965 961.305 195.387C960.286 194.777 959.469 194.019 958.853 193.114C958.238 192.208 957.978 191.005 958.074 189.505C958.178 187.876 958.678 186.577 959.574 185.608C960.504 184.61 961.67 183.915 963.074 183.524C964.512 183.103 966.029 182.943 967.626 183.045C968.712 183.115 969.902 183.303 971.197 183.611C972.492 183.918 973.812 184.339 975.157 184.874L974.571 190.272L972.128 190.115L971.664 186.093L972.196 186.801C970.566 186.216 969.016 185.876 967.547 185.782C965.982 185.682 964.652 185.933 963.555 186.536C962.492 187.11 961.921 188.019 961.841 189.265ZM989.834 210.728C987.79 210.597 985.969 209.984 984.372 208.887C982.809 207.761 981.609 206.21 980.774 204.232C979.97 202.257 979.654 199.928 979.826 197.245C979.975 194.914 980.422 192.939 981.167 191.319C981.946 189.669 982.929 188.337 984.116 187.323C985.304 186.309 986.632 185.592 988.102 185.173C989.606 184.724 991.14 184.55 992.705 184.65C993.982 184.732 995.328 184.994 996.743 185.438C998.189 185.883 999.436 186.444 1000.48 187.12L999.908 193.095L997.321 192.93L996.987 188.387L997.342 188.843C996.569 188.408 995.74 188.083 994.856 187.866C993.972 187.649 993.179 187.518 992.476 187.473C990.815 187.367 989.351 187.706 988.082 188.491C986.847 189.245 985.862 190.369 985.125 191.861C984.388 193.353 983.952 195.153 983.817 197.26C983.678 199.432 983.896 201.29 984.471 202.833C985.045 204.377 985.883 205.569 986.984 206.409C988.116 207.251 989.417 207.719 990.886 207.813C992.035 207.887 993.264 207.725 994.572 207.328C995.88 206.93 997.252 206.297 998.686 205.426L999.893 207.62C998.15 208.791 996.429 209.627 994.73 210.127C993.03 210.628 991.398 210.828 989.834 210.728ZM1002.6 211.112L1002.73 209.052L1007.01 208.412L1006.48 209.1L1007.8 188.454L1008.29 189.206L1004.08 188.023L1004.21 185.964L1010.94 186.057L1011.17 190.786L1010.65 190.56C1012.19 189.151 1013.66 188.076 1015.09 187.333C1016.52 186.591 1018.04 186.272 1019.67 186.376C1020.7 186.441 1021.76 186.669 1022.85 187.06L1022.12 194.035L1019.72 193.882L1019.47 188.816L1019.85 189.706C1019.63 189.627 1019.39 189.564 1019.14 189.516C1018.88 189.468 1018.63 189.435 1018.37 189.419C1017.1 189.337 1015.83 189.641 1014.56 190.329C1013.33 191.02 1012.13 191.938 1010.97 193.082L1011.43 191.957L1010.32 209.345L1009.79 208.59L1014.95 209.834L1014.82 211.894L1002.6 211.112ZM1030.91 210.471L1030.51 209.916L1034.62 211.093L1034.49 213.153L1023.19 212.429L1023.32 210.369L1027.54 209.726L1027.08 210.225L1028.37 190.011L1028.73 190.466L1024.66 189.34L1024.8 187.281L1032.38 187.478L1030.91 210.471ZM1030.51 182.163C1029.78 182.116 1029.18 181.838 1028.74 181.328C1028.29 180.818 1028.09 180.148 1028.14 179.318C1028.2 178.456 1028.48 177.817 1028.99 177.4C1029.53 176.954 1030.17 176.754 1030.9 176.801C1031.67 176.85 1032.28 177.114 1032.73 177.591C1033.18 178.069 1033.37 178.755 1033.32 179.649C1033.26 180.511 1032.96 181.166 1032.42 181.612C1031.88 182.026 1031.24 182.21 1030.51 182.163ZM1036.22 224.326L1036.35 222.266L1040.78 221.539L1040.11 222.218L1042.12 190.746L1042.66 191.406L1038.4 190.22L1038.54 188.16L1045.26 188.254L1045.48 192.452L1045.06 192.137C1046.62 190.858 1048.15 189.93 1049.67 189.353C1051.18 188.745 1052.66 188.486 1054.09 188.578C1055.88 188.693 1057.45 189.29 1058.79 190.37C1060.16 191.452 1061.2 192.961 1061.91 194.899C1062.63 196.804 1062.89 199.114 1062.72 201.828C1062.53 204.766 1061.86 207.208 1060.71 209.155C1059.59 211.104 1058.09 212.546 1056.2 213.484C1054.32 214.389 1052.14 214.763 1049.69 214.606C1048.79 214.549 1047.87 214.41 1046.92 214.189C1045.98 213.968 1044.98 213.696 1043.94 213.373L1044.55 212.883L1043.94 222.463L1043.46 221.759L1048.33 223.032L1048.2 225.092L1036.22 224.326ZM1049.44 211.704C1052.25 211.884 1054.45 211.111 1056.03 209.385C1057.62 207.658 1058.51 205.182 1058.72 201.957C1058.85 199.849 1058.67 198.026 1058.16 196.486C1057.68 194.948 1056.95 193.747 1055.98 192.884C1055.01 191.988 1053.87 191.498 1052.56 191.414C1051.45 191.343 1050.26 191.572 1049.01 192.101C1047.79 192.6 1046.54 193.418 1045.25 194.553L1045.8 193.387L1044.65 211.35L1044.18 210.454C1046.09 211.185 1047.84 211.602 1049.44 211.704ZM1074.44 216.142C1072.78 216.036 1071.5 215.441 1070.61 214.358C1069.72 213.242 1069.34 211.631 1069.48 209.523L1070.59 192.135L1071.17 192.798L1066.24 192.482L1066.37 190.374L1071.4 189.974L1070.68 190.698L1071.09 184.375L1074.96 183.997L1074.51 190.943L1074.03 190.287L1081.55 190.768L1081.23 193.441L1073.85 192.969L1074.42 192.38L1073.34 209.242C1073.26 210.583 1073.45 211.573 1073.92 212.213C1074.43 212.854 1075.16 213.206 1076.12 213.267C1076.69 213.304 1077.32 213.248 1078 213.099C1078.68 212.95 1079.42 212.725 1080.21 212.423L1080.88 214.678C1078.54 215.779 1076.39 216.267 1074.44 216.142ZM1091.07 214.32L1090.67 213.766L1094.78 214.942L1094.65 217.002L1083.34 216.279L1083.48 214.219L1087.7 213.575L1087.24 214.075L1088.53 193.86L1088.89 194.316L1084.82 193.19L1084.95 191.13L1092.54 191.327L1091.07 214.32ZM1090.67 186.013C1089.93 185.966 1089.34 185.687 1088.89 185.178C1088.45 184.668 1088.25 183.998 1088.3 183.168C1088.36 182.305 1088.64 181.666 1089.14 181.25C1089.69 180.803 1090.32 180.604 1091.06 180.651C1091.83 180.7 1092.43 180.963 1092.88 181.441C1093.33 181.919 1093.53 182.605 1093.47 183.499C1093.42 184.361 1093.12 185.015 1092.58 185.462C1092.04 185.876 1091.4 186.06 1090.67 186.013ZM1111.52 192.253C1115.03 192.478 1117.71 193.755 1119.55 196.085C1121.42 198.418 1122.23 201.596 1121.97 205.619C1121.79 208.334 1121.15 210.681 1120.03 212.662C1118.94 214.612 1117.47 216.089 1115.61 217.093C1113.75 218.096 1111.56 218.517 1109.03 218.355C1105.58 218.135 1102.95 216.892 1101.14 214.628C1099.33 212.332 1098.56 209.156 1098.82 205.1C1099 202.29 1099.62 199.908 1100.67 197.956C1101.76 195.973 1103.22 194.495 1105.04 193.522C1106.9 192.519 1109.06 192.096 1111.52 192.253ZM1111.15 195.067C1108.69 194.91 1106.75 195.715 1105.32 197.484C1103.89 199.252 1103.07 201.813 1102.85 205.166C1102.64 208.455 1103.11 210.97 1104.25 212.71C1105.39 214.451 1107.12 215.395 1109.45 215.545C1111.15 215.653 1112.59 215.329 1113.8 214.572C1115.03 213.785 1115.99 212.628 1116.66 211.1C1117.37 209.574 1117.79 207.725 1117.93 205.554C1118.14 202.296 1117.64 199.779 1116.44 198.003C1115.28 196.197 1113.51 195.218 1111.15 195.067ZM1125.16 218.955L1125.3 216.895L1129.67 216.213L1129.05 216.895L1130.37 196.297L1130.9 197.052L1126.64 195.866L1126.77 193.806L1133.5 193.9L1133.73 198.628L1133.21 198.403C1134.91 196.876 1136.65 195.785 1138.43 195.129C1140.23 194.475 1141.92 194.198 1143.48 194.298C1145.59 194.433 1147.29 195.199 1148.58 196.596C1149.9 197.963 1150.46 200.003 1150.25 202.716L1149.26 218.188L1148.83 217.487L1152.98 218.667L1152.85 220.726L1141.69 220.012L1141.82 217.953L1146.05 217.309L1145.43 217.991L1146.37 203.285C1146.5 201.305 1146.14 199.823 1145.31 198.84C1144.47 197.857 1143.3 197.317 1141.8 197.221C1140.62 197.145 1139.31 197.382 1137.86 197.931C1136.45 198.481 1135.03 199.385 1133.6 200.64L1133.98 199.895L1132.88 217.188L1132.44 216.486L1136.46 217.609L1136.33 219.669L1125.16 218.955Z" fill="black"/>
<rect x="895.853" y="259.394" width="221" height="100" rx="26" transform="rotate(3.66131 895.853 259.394)" fill="#FF8000"/>
<path d="M925.125 313.694L921.413 313.457L922.17 312.904L921.567 322.325L921.051 321.61L925.95 322.725L925.84 324.442L914.743 323.732L914.853 322.015L918.938 321.435L918.293 322.115L919.839 297.965L920.469 298.766L916.403 297.785L916.513 296.068L923.312 296.303L927.823 296.592C929.872 296.723 931.54 297.177 932.826 297.954C934.112 298.731 935.049 299.753 935.636 301.02C936.223 302.286 936.464 303.731 936.361 305.355C936.246 307.138 935.747 308.682 934.862 309.988C933.976 311.295 932.711 312.282 931.065 312.952C929.447 313.597 927.467 313.844 925.125 313.694ZM927.188 298.996L922.478 298.695L923.115 298.134L922.249 311.666L921.568 311.022L925.281 311.259C927.623 311.409 929.457 310.939 930.782 309.848C932.135 308.758 932.875 307.216 933.002 305.22C933.118 303.41 932.677 301.953 931.679 300.847C930.707 299.742 929.21 299.125 927.188 298.996ZM937.509 325.189L937.619 323.472L941.624 322.887L941.059 323.572L942.602 299.461L943.232 300.263L939.169 299.242L939.279 297.525L946.118 297.762L950.788 298.061C953.795 298.254 956.031 299.025 957.494 300.374C958.958 301.724 959.614 303.583 959.462 305.951C959.322 308.133 958.516 309.872 957.044 311.167C955.598 312.464 953.469 313.17 950.656 313.284L950.642 312.882C951.673 313.055 952.496 313.348 953.11 313.762C953.754 314.15 954.282 314.665 954.695 315.306C955.11 315.92 955.502 316.68 955.872 317.586L958.791 324.586L957.836 323.844L961.131 324.977L961.021 326.693L956.111 326.379L952.942 318.28C952.509 317.103 952.073 316.194 951.633 315.551C951.222 314.883 950.678 314.394 950.003 314.084C949.355 313.775 948.406 313.581 947.155 313.501L944.398 313.364L945.033 312.844L944.333 323.781L943.86 323.03L948.437 324.164L948.327 325.881L937.509 325.189ZM945.094 311.886L944.551 310.969L948.343 311.212C950.712 311.363 952.566 311.001 953.904 310.125C955.245 309.222 955.975 307.826 956.096 305.936C956.202 304.286 955.763 303.002 954.779 302.084C953.798 301.14 952.282 300.602 950.233 300.471L945.243 300.151L945.881 299.591L945.094 311.886ZM982.365 321.485L984.361 321.613L983.942 328.16L963.783 326.87L963.893 325.153L967.899 324.568L967.334 325.253L968.877 301.143L969.349 301.894L965.444 300.923L965.553 299.206L972.233 299.433L985.246 300.266L984.842 306.573L982.846 306.445L982.409 302.008L983.054 302.571L971.518 301.833L972.155 301.272L971.44 312.449L970.879 311.812L981.537 312.494L981.384 314.889L970.726 314.207L971.368 313.567L970.607 325.463L970.047 324.826L982.102 325.597L981.345 326.15L982.365 321.485ZM997.188 329.047L990.144 302.584L990.981 303.278L987.155 302.312L987.265 300.596L997.816 301.07L997.706 302.787L993.301 303.347L993.754 302.534L999.61 326.276L999.091 326.243L1008.43 303.674L1008.71 304.373L1004.48 303.421L1004.59 301.704L1014.58 302.143L1014.47 303.86L1010.55 304.45L1011.43 303.865L1000.62 329.267L997.188 329.047ZM1025.77 304.583L1021.8 305.21L1022.27 304.68L1020.75 328.551L1020.34 327.964L1024.2 329.013L1024.09 330.729L1013.92 330.078L1014.02 328.361L1017.95 327.811L1017.47 328.341L1019 304.47L1019.48 305.102L1015.58 304.131L1015.69 302.414L1025.88 302.866L1025.77 304.583ZM1046.53 325.591L1048.53 325.719L1048.11 332.266L1027.95 330.976L1028.06 329.259L1032.06 328.674L1031.5 329.359L1033.04 305.248L1033.52 306L1029.61 305.029L1029.72 303.312L1036.4 303.539L1049.41 304.372L1049.01 310.679L1047.01 310.551L1046.57 306.114L1047.22 306.677L1035.68 305.939L1036.32 305.378L1035.61 316.555L1035.04 315.918L1045.7 316.6L1045.55 318.995L1034.89 318.313L1035.53 317.673L1034.77 329.569L1034.21 328.932L1046.27 329.703L1045.51 330.256L1046.53 325.591ZM1082.09 306.663L1091.92 307.092L1091.81 308.809L1087.92 309.402L1088.82 308.577L1079.72 334.328L1076.56 334.127L1071.1 309.808L1071.7 309.887L1062.79 333.245L1059.64 333.044L1054.44 306.577L1054.83 307.244L1051.32 306.418L1051.43 304.702L1061.62 305.153L1061.51 306.87L1057.27 307.44L1057.79 306.792L1062.03 330.15L1061.35 330.107L1070.35 305.872L1073.36 305.904L1078.88 331.148L1078.2 331.105L1085.89 308.63L1086.21 309.292L1081.98 308.38L1082.09 306.663Z" fill="white"/>
<path d="M622.322 410.555L618.609 410.318L619.366 409.765L618.763 419.185L618.248 418.471L623.147 419.586L623.037 421.303L611.939 420.593L612.049 418.876L616.135 418.296L615.49 418.976L617.035 394.825L617.665 395.627L613.6 394.646L613.71 392.929L620.508 393.164L625.019 393.452C627.068 393.584 628.736 394.038 630.022 394.815C631.309 395.592 632.245 396.614 632.832 397.88C633.419 399.147 633.661 400.592 633.557 402.216C633.443 403.999 632.943 405.543 632.058 406.849C631.173 408.155 629.907 409.143 628.261 409.813C626.643 410.458 624.663 410.705 622.322 410.555ZM624.384 395.857L619.674 395.555L620.311 394.995L619.445 408.527L618.765 407.883L622.477 408.12C624.819 408.27 626.653 407.799 627.979 406.709C629.331 405.619 630.071 404.077 630.199 402.081C630.315 400.271 629.873 398.813 628.875 397.707C627.904 396.603 626.407 395.986 624.384 395.857ZM634.89 422.061L635 420.345L638.561 419.811L638.124 420.384L639.225 403.179L639.625 403.806L636.121 402.821L636.231 401.104L641.837 401.182L642.026 405.122L641.597 404.935C642.875 403.76 644.108 402.864 645.297 402.245C646.485 401.627 647.758 401.361 649.115 401.448C649.967 401.502 650.85 401.692 651.764 402.018L651.152 407.831L649.156 407.703L648.945 403.481L649.258 404.222C649.076 404.157 648.879 404.105 648.667 404.064C648.456 404.024 648.244 403.997 648.031 403.983C646.967 403.915 645.908 404.168 644.856 404.742C643.831 405.318 642.833 406.082 641.864 407.036L642.244 406.098L641.317 420.589L640.876 419.959L645.179 420.996L645.069 422.713L634.89 422.061ZM663.204 402.349C666.132 402.536 668.362 403.601 669.894 405.543C671.453 407.486 672.125 410.135 671.911 413.488C671.766 415.75 671.227 417.706 670.293 419.356C669.387 420.982 668.159 422.213 666.609 423.049C665.06 423.885 663.233 424.236 661.131 424.101C658.257 423.917 656.065 422.882 654.556 420.995C653.048 419.081 652.403 416.435 652.619 413.055C652.769 410.713 653.283 408.729 654.162 407.101C655.07 405.449 656.284 404.218 657.806 403.406C659.356 402.57 661.155 402.218 663.204 402.349ZM662.894 404.694C660.845 404.563 659.225 405.234 658.035 406.708C656.846 408.182 656.161 410.316 655.982 413.11C655.807 415.851 656.194 417.947 657.143 419.397C658.093 420.847 659.539 421.634 661.481 421.759C662.892 421.849 664.098 421.579 665.101 420.948C666.131 420.293 666.928 419.328 667.49 418.055C668.079 416.783 668.432 415.243 668.547 413.433C668.721 410.718 668.308 408.621 667.307 407.141C666.334 405.636 664.863 404.82 662.894 404.694ZM673.548 433.754L673.658 432.037L677.344 431.431L676.787 431.997L678.465 405.771L678.911 406.32L675.367 405.332L675.476 403.615L681.083 403.694L681.26 407.192L680.916 406.929C682.213 405.863 683.492 405.09 684.752 404.61C686.013 404.103 687.243 403.887 688.441 403.964C689.931 404.059 691.235 404.557 692.353 405.457C693.498 406.358 694.366 407.616 694.958 409.231C695.551 410.819 695.775 412.744 695.63 415.006C695.473 417.454 694.916 419.489 693.957 421.111C693.025 422.735 691.772 423.937 690.199 424.719C688.627 425.473 686.817 425.785 684.768 425.654C684.023 425.606 683.255 425.49 682.466 425.306C681.676 425.122 680.848 424.895 679.984 424.626L680.491 424.218L679.98 432.201L679.577 431.614L683.637 432.676L683.527 434.392L673.548 433.754ZM684.562 423.236C686.904 423.385 688.735 422.741 690.057 421.303C691.378 419.864 692.124 417.801 692.296 415.113C692.409 413.356 692.252 411.837 691.827 410.554C691.428 409.272 690.824 408.272 690.015 407.552C689.207 406.805 688.258 406.397 687.167 406.327C686.236 406.268 685.248 406.458 684.204 406.899C683.189 407.315 682.144 407.997 681.068 408.943L681.531 407.971L680.573 422.94L680.18 422.194C681.771 422.803 683.231 423.15 684.562 423.236ZM709.945 405.34C712.872 405.527 715.102 406.592 716.634 408.534C718.194 410.477 718.866 413.126 718.651 416.479C718.506 418.741 717.967 420.697 717.033 422.347C716.127 423.973 714.9 425.204 713.35 426.04C711.8 426.876 709.974 427.226 707.871 427.092C704.997 426.908 702.806 425.873 701.296 423.986C699.789 422.072 699.143 419.426 699.359 416.046C699.509 413.704 700.024 411.719 700.903 410.092C701.81 408.44 703.025 407.209 704.546 406.397C706.096 405.561 707.896 405.209 709.945 405.34ZM709.634 407.685C707.585 407.554 705.966 408.225 704.776 409.699C703.586 411.172 702.902 413.306 702.723 416.101C702.547 418.842 702.934 420.937 703.884 422.388C704.833 423.838 706.279 424.625 708.222 424.75C709.632 424.84 710.839 424.57 711.841 423.939C712.872 423.283 713.668 422.319 714.231 421.046C714.82 419.774 715.172 418.233 715.288 416.424C715.462 413.709 715.048 411.612 714.047 410.132C713.075 408.627 711.604 407.811 709.634 407.685ZM726.368 411.882C726.314 412.734 726.551 413.417 727.079 413.932C727.607 414.446 728.3 414.892 729.158 415.267C730.017 415.616 730.93 415.968 731.896 416.324C732.862 416.68 733.77 417.099 734.621 417.581C735.472 418.063 736.153 418.694 736.664 419.475C737.176 420.256 737.392 421.259 737.314 422.483C737.223 423.893 736.762 425.053 735.929 425.961C735.096 426.87 733.998 427.535 732.635 427.955C731.3 428.351 729.821 428.496 728.198 428.393C727.213 428.33 726.207 428.185 725.179 427.959C724.152 427.733 723.102 427.439 722.029 427.076L722.651 421.745L724.687 421.875L724.836 425.813L724.504 425.351C725.106 425.549 725.763 425.725 726.475 425.877C727.186 426.03 727.848 426.126 728.46 426.165C729.419 426.226 730.305 426.149 731.121 425.934C731.964 425.694 732.656 425.324 733.196 424.824C733.737 424.298 734.034 423.622 734.087 422.797C734.143 421.919 733.908 421.209 733.382 420.668C732.882 420.128 732.203 419.671 731.345 419.295C730.487 418.919 729.575 418.567 728.607 418.238C727.668 417.884 726.773 417.466 725.922 416.984C725.072 416.475 724.391 415.844 723.878 415.09C723.365 414.335 723.149 413.333 723.229 412.082C723.316 410.725 723.733 409.643 724.479 408.835C725.254 408.003 726.226 407.424 727.396 407.098C728.594 406.747 729.858 406.614 731.189 406.699C732.094 406.757 733.086 406.914 734.165 407.17C735.244 407.426 736.344 407.777 737.465 408.223L736.976 412.721L734.941 412.591L734.554 409.239L734.997 409.829C733.639 409.341 732.347 409.058 731.123 408.98C729.819 408.896 728.71 409.106 727.796 409.609C726.911 410.086 726.435 410.844 726.368 411.882ZM749.855 429.778C748.072 429.664 746.514 429.164 745.181 428.277C743.877 427.365 742.889 426.099 742.218 424.48C741.546 422.86 741.283 420.92 741.428 418.658C741.576 416.342 742.103 414.372 743.009 412.746C743.914 411.121 745.128 409.903 746.649 409.092C748.173 408.254 749.919 407.898 751.888 408.024C753.751 408.143 755.256 408.64 756.402 409.515C757.577 410.365 758.413 411.501 758.91 412.922C759.433 414.345 759.638 415.948 759.524 417.731C759.505 418.024 759.473 418.316 759.428 418.607C759.383 418.898 759.32 419.255 759.239 419.677L743.871 418.694L744.016 416.418L756.59 417.223L756.216 417.439C756.319 416.244 756.243 415.13 755.989 414.098C755.734 413.066 755.241 412.22 754.508 411.558C753.775 410.897 752.77 410.525 751.493 410.444C750.136 410.357 748.968 410.643 747.991 411.302C747.014 411.961 746.259 412.901 745.726 414.123C745.194 415.345 744.875 416.781 744.769 418.431C744.657 420.187 744.813 421.72 745.236 423.03C745.662 424.313 746.332 425.331 747.246 426.084C748.186 426.839 749.361 427.262 750.772 427.352C751.756 427.415 752.846 427.298 754.041 427C755.237 426.676 756.487 426.155 757.788 425.436L758.831 427.307C757.276 428.222 755.737 428.886 754.215 429.296C752.692 429.706 751.239 429.867 749.855 429.778ZM770.448 431.096C768.984 431.002 767.679 430.518 766.533 429.643C765.388 428.742 764.52 427.484 763.928 425.869C763.339 424.228 763.116 422.277 763.261 420.015C763.498 416.315 764.621 413.582 766.631 411.813C768.642 410.045 771.297 409.266 774.597 409.477C775.289 409.521 776.004 409.62 776.742 409.775C777.507 409.93 778.282 410.14 779.067 410.404L778.405 410.723L778.919 402.699L779.25 403.161L775.628 402.128L775.738 400.411L782.263 400.548L780.416 429.409L779.973 428.82L783.519 429.768L783.407 431.525L777.803 431.406L777.544 427.943L777.933 428.128C776.662 429.196 775.396 429.983 774.134 430.49C772.901 430.973 771.672 431.174 770.448 431.096ZM771.721 428.733C772.653 428.792 773.626 428.614 774.641 428.198C775.685 427.757 776.744 427.077 777.818 426.157L777.35 427.209L778.318 412.08L778.706 412.906C777.117 412.27 775.657 411.91 774.326 411.825C771.985 411.675 770.153 412.319 768.832 413.758C767.511 415.196 766.764 417.259 766.592 419.947C766.48 421.704 766.622 423.236 767.019 424.544C767.445 425.827 768.062 426.828 768.871 427.548C769.707 428.27 770.657 428.665 771.721 428.733ZM802.301 433.134C801.343 433.073 800.323 432.941 799.24 432.738C798.185 432.537 797.066 432.265 795.886 431.922L797.71 403.421L798.289 404.38L794.588 403.341L794.698 401.625L801.023 401.749L800.183 414.882L799.774 414.375C800.96 413.382 802.17 412.644 803.403 412.162C804.636 411.68 805.852 411.477 807.049 411.554C808.54 411.649 809.844 412.147 810.962 413.046C812.107 413.948 812.975 415.206 813.566 416.82C814.158 418.435 814.38 420.386 814.234 422.675C814.123 424.405 813.797 425.947 813.256 427.302C812.742 428.659 812.002 429.787 811.036 430.687C810.069 431.587 808.864 432.258 807.42 432.7C805.977 433.116 804.271 433.26 802.301 433.134ZM803.051 430.818C805.419 430.969 807.276 430.353 808.62 428.969C809.965 427.586 810.726 425.497 810.905 422.703C811.018 420.946 810.861 419.426 810.435 418.143C810.036 416.862 809.432 415.861 808.623 415.141C807.816 414.395 806.867 413.987 805.776 413.917C804.844 413.857 803.857 414.048 802.813 414.489C801.798 414.905 800.752 415.586 799.676 416.533L800.149 415.401L799.164 430.809L798.781 429.903C800.377 430.433 801.8 430.738 803.051 430.818ZM814.644 442.943L815.074 440.605C815.39 440.679 815.68 440.738 815.945 440.781C816.236 440.827 816.501 440.857 816.741 440.872C818.045 440.956 819.115 440.717 819.953 440.156C820.815 439.623 821.564 438.776 822.2 437.614C822.835 436.452 823.503 434.999 824.202 433.253L824.006 434.443L817.785 414.525L818.201 414.913L815.635 414.307L815.744 412.591L824.504 412.871L824.392 414.627L820.761 414.996L821.024 414.652L825.886 431.998L825.178 431.793L831.956 415.432L832.173 415.807L828.688 415.143L828.798 413.426L837.278 413.688L837.166 415.445L834.331 415.905L834.913 415.581L826.653 434.412C826.089 435.712 825.504 436.917 824.899 438.027C824.32 439.139 823.671 440.1 822.951 440.909C822.229 441.745 821.374 442.371 820.386 442.789C819.397 443.207 818.224 443.372 816.867 443.285C816.255 443.246 815.514 443.132 814.644 442.943ZM859.692 440.815C857.057 440.646 854.781 439.886 852.863 438.534C850.946 437.182 849.499 435.366 848.522 433.086C847.573 430.807 847.194 428.164 847.386 425.157C847.541 422.735 848.038 420.603 848.878 418.759C849.746 416.891 850.901 415.335 852.343 414.091C853.785 412.847 855.434 411.937 857.287 411.361C859.168 410.787 861.199 410.57 863.382 410.709C865.537 410.847 867.472 411.305 869.186 412.083C870.9 412.86 872.342 413.915 873.513 415.245C874.71 416.578 875.586 418.13 876.141 419.903C876.722 421.677 876.943 423.642 876.805 425.797C876.623 428.645 875.868 430.841 874.54 432.386C873.214 433.904 871.486 434.595 869.357 434.459C868.08 434.377 867.075 434.006 866.342 433.344C865.61 432.683 865.192 431.694 865.089 430.378L865.565 430.449C864.775 431.521 863.826 432.368 862.717 432.992C861.61 433.589 860.471 433.851 859.3 433.776C858.502 433.725 857.768 433.504 857.098 433.114C856.455 432.725 855.969 432.173 855.641 431.457C855.314 430.715 855.183 429.838 855.248 428.827C855.34 427.39 855.864 426.301 856.82 425.56C857.777 424.793 859.307 424.477 861.41 424.612L865.801 424.893L865.334 425.304L865.51 422.549C865.578 421.485 865.281 420.704 864.618 420.207C863.955 419.711 863.104 419.429 862.066 419.363C861.348 419.317 860.556 419.373 859.691 419.531C858.854 419.665 858.038 419.88 857.244 420.177L856.835 418.427C857.902 418.041 858.949 417.76 859.976 417.586C861.002 417.411 861.968 417.352 862.873 417.41C864.496 417.514 865.787 418.011 866.745 418.901C867.73 419.792 868.166 421.129 868.052 422.912L867.605 429.898C867.547 430.803 867.704 431.481 868.076 431.932C868.45 432.357 869.009 432.593 869.754 432.641C871.111 432.728 872.15 432.153 872.871 430.916C873.591 429.68 874.013 428.09 874.138 426.148C874.303 423.566 873.966 421.313 873.127 419.389C872.317 417.44 871.066 415.904 869.374 414.78C867.684 413.63 865.601 412.976 863.126 412.817C860.625 412.657 858.422 413.051 856.518 413.998C854.615 414.918 853.095 416.33 851.958 418.235C850.847 420.141 850.202 422.492 850.023 425.286C849.858 427.867 850.153 430.144 850.909 432.116C851.666 434.062 852.824 435.606 854.38 436.748C855.964 437.891 857.873 438.534 860.109 438.677C861.067 438.739 862.072 438.696 863.123 438.549C864.2 438.431 865.27 438.206 866.333 437.873L866.931 439.795C865.73 440.199 864.509 440.482 863.27 440.643C862.029 440.831 860.836 440.888 859.692 440.815ZM860.344 431.878C861.195 431.933 862.078 431.709 862.992 431.206C863.908 430.677 864.715 429.954 865.415 429.036L865.032 430.014L865.3 425.823L865.706 426.37L861.914 426.127C860.504 426.037 859.503 426.226 858.912 426.696C858.322 427.14 857.997 427.84 857.935 428.798C857.876 429.73 858.069 430.464 858.516 431C858.963 431.536 859.572 431.829 860.344 431.878ZM894.162 424.543L894.424 424.199C896.232 424.341 897.744 424.732 898.959 425.371C900.176 425.983 901.058 426.815 901.605 427.865C902.179 428.917 902.42 430.162 902.328 431.599C902.233 433.089 901.789 434.383 900.997 435.482C900.234 436.555 899.073 437.363 897.516 437.904C895.984 438.448 894.048 438.644 891.706 438.495L880.609 437.785L880.719 436.068L884.724 435.483L884.159 436.168L885.702 412.057L886.292 412.857L882.269 411.838L882.379 410.121L888.978 410.343L893.928 410.66C895.844 410.782 897.424 411.151 898.667 411.765C899.91 412.379 900.819 413.212 901.393 414.264C901.967 415.316 902.207 416.574 902.114 418.037C901.991 419.954 901.306 421.473 900.058 422.596C898.811 423.718 896.845 424.367 894.162 424.543ZM893.096 413.011L888.346 412.707L888.983 412.147L888.265 423.364L887.702 422.767L891.455 423.007C893.025 423.107 894.341 422.991 895.405 422.658C896.468 422.326 897.277 421.79 897.832 421.05C898.387 420.311 898.701 419.382 898.772 418.265C898.842 417.173 898.674 416.254 898.267 415.507C897.861 414.759 897.23 414.184 896.374 413.782C895.519 413.353 894.427 413.097 893.096 413.011ZM891.62 436.084C893.19 436.185 894.507 436.055 895.573 435.696C896.638 435.336 897.448 434.787 898.003 434.048C898.586 433.283 898.914 432.329 898.988 431.185C899.059 430.067 898.88 429.107 898.45 428.305C898.049 427.477 897.41 426.822 896.532 426.338C895.681 425.856 894.63 425.575 893.38 425.495L887.551 425.122L888.191 424.522L887.432 436.377L886.869 435.78L891.62 436.084ZM917.021 418.591C919.949 418.778 922.178 419.842 923.711 421.784C925.27 423.728 925.942 426.376 925.728 429.729C925.583 431.991 925.044 433.948 924.11 435.598C923.204 437.223 921.976 438.454 920.426 439.29C918.876 440.126 917.05 440.477 914.948 440.343C912.074 440.159 909.882 439.123 908.373 437.236C906.865 435.323 906.22 432.676 906.436 429.296C906.586 426.955 907.1 424.97 907.979 423.343C908.887 421.691 910.101 420.459 911.623 419.648C913.173 418.812 914.972 418.459 917.021 418.591ZM916.711 420.936C914.662 420.804 913.042 421.476 911.852 422.949C910.662 424.423 909.978 426.557 909.799 429.351C909.624 432.092 910.011 434.188 910.96 435.638C911.91 437.089 913.356 437.876 915.298 438C916.709 438.09 917.915 437.82 918.917 437.19C919.948 436.534 920.745 435.57 921.307 434.296C921.896 433.025 922.249 431.484 922.364 429.674C922.538 426.96 922.124 424.863 921.124 423.382C920.151 421.877 918.68 421.062 916.711 420.936ZM936.831 441.743C935.873 441.682 934.853 441.549 933.77 441.347C932.714 441.145 931.596 440.873 930.415 440.531L932.239 412.029L932.819 412.988L929.118 411.949L929.228 410.233L935.553 410.357L934.712 423.49L934.304 422.983C935.49 421.99 936.699 421.253 937.932 420.77C939.166 420.288 940.381 420.085 941.579 420.162C943.069 420.257 944.373 420.755 945.491 421.655C946.636 422.557 947.504 423.815 948.096 425.429C948.687 427.043 948.91 428.995 948.763 431.283C948.653 433.013 948.327 434.556 947.786 435.911C947.271 437.267 946.531 438.395 945.565 439.296C944.599 440.196 943.394 440.867 941.949 441.309C940.506 441.724 938.8 441.869 936.831 441.743ZM937.58 439.426C939.949 439.578 941.805 438.962 943.15 437.578C944.494 436.194 945.256 434.105 945.435 431.311C945.547 429.555 945.39 428.035 944.965 426.752C944.566 425.47 943.962 424.47 943.153 423.75C942.346 423.003 941.396 422.595 940.305 422.526C939.374 422.466 938.386 422.657 937.343 423.097C936.327 423.513 935.282 424.195 934.206 425.141L934.679 424.009L933.693 439.418L933.31 438.511C934.906 439.041 936.33 439.346 937.58 439.426ZM969.192 441.689L968.53 440.765L973.825 441.946L973.71 443.742L960.178 442.876L960.293 441.08L966.691 440.688L965.919 441.48L967.413 418.128L968.286 418.264L961.083 421.851L960.135 419.746L968.196 415.292L970.871 415.463L969.192 441.689ZM986.791 444.94C984.529 444.795 982.686 444.156 981.262 443.023C979.865 441.891 978.873 440.265 978.287 438.143C977.728 436.023 977.549 433.393 977.75 430.252C977.958 427.006 978.502 424.342 979.384 422.26C980.267 420.153 981.528 418.617 983.166 417.653C984.806 416.662 986.81 416.242 989.178 416.394C991.494 416.542 993.325 417.154 994.673 418.229C996.047 419.305 996.988 420.875 997.497 422.939C998.033 425.004 998.202 427.593 998.002 430.707C997.791 434.007 997.242 436.737 996.356 438.898C995.47 441.059 994.219 442.649 992.604 443.668C991.017 444.662 989.079 445.086 986.791 444.94ZM987.074 442.393C988.617 442.491 989.91 442.133 990.95 441.318C991.991 440.503 992.807 439.232 993.399 437.507C993.992 435.754 994.389 433.522 994.589 430.809C994.796 427.99 994.713 425.74 994.339 424.059C993.968 422.352 993.327 421.095 992.416 420.289C991.506 419.482 990.332 419.033 988.895 418.941C987.298 418.839 985.953 419.194 984.859 420.005C983.767 420.791 982.911 422.045 982.293 423.769C981.704 425.468 981.324 427.649 981.153 430.31C980.983 432.971 981.082 435.182 981.45 436.942C981.821 438.676 982.471 440 983.401 440.915C984.333 441.803 985.557 442.296 987.074 442.393ZM1029.6 429.802L1029.15 429.854C1030.54 428.58 1031.99 427.658 1033.5 427.086C1035.01 426.488 1036.4 426.229 1037.68 426.311C1039.3 426.415 1040.62 427.048 1041.64 428.208C1042.69 429.344 1043.15 431.03 1043 433.266L1042.18 446.199L1041.81 445.615L1045.28 446.598L1045.17 448.314L1035.91 447.722L1036.02 446.005L1039.46 445.464L1038.98 446.035L1039.76 433.78C1039.87 432.13 1039.59 430.896 1038.92 430.078C1038.28 429.262 1037.4 428.818 1036.28 428.747C1035.32 428.686 1034.24 428.897 1033.03 429.381C1031.85 429.866 1030.67 430.646 1029.47 431.719L1029.8 430.978C1029.81 431.219 1029.81 431.446 1029.8 431.659C1029.81 431.874 1029.81 432.087 1029.8 432.3L1028.96 445.354L1028.6 444.769L1031.86 445.74L1031.75 447.456L1022.73 446.879L1022.84 445.162L1026.28 444.621L1025.77 445.189L1026.55 432.934C1026.66 431.284 1026.38 430.05 1025.71 429.233C1025.06 428.417 1024.18 427.973 1023.07 427.901C1022.11 427.84 1021.04 428.039 1019.86 428.498C1018.68 428.957 1017.5 429.71 1016.31 430.756L1016.63 430.175L1015.71 444.546L1015.34 443.961L1018.61 444.892L1018.5 446.608L1009.28 446.018L1009.39 444.302L1013.03 443.733L1012.52 444.301L1013.62 427.136L1014.06 427.766L1010.51 426.777L1010.62 425.061L1016.23 425.139L1016.42 429.079L1015.99 428.891C1017.38 427.618 1018.81 426.707 1020.29 426.161C1021.8 425.616 1023.2 425.385 1024.5 425.468C1025.73 425.547 1026.8 425.949 1027.71 426.676C1028.63 427.376 1029.26 428.418 1029.6 429.802ZM1053.8 446.823L1053.47 446.361L1056.9 447.342L1056.79 449.058L1047.37 448.455L1047.48 446.739L1051 446.202L1050.61 446.619L1051.69 429.773L1051.98 430.153L1048.6 429.215L1048.71 427.498L1055.03 427.662L1053.8 446.823ZM1053.47 423.233C1052.86 423.194 1052.36 422.962 1051.99 422.538C1051.62 422.113 1051.45 421.555 1051.5 420.863C1051.54 420.144 1051.78 419.611 1052.2 419.264C1052.65 418.892 1053.18 418.726 1053.8 418.765C1054.43 418.806 1054.94 419.026 1055.32 419.424C1055.69 419.822 1055.86 420.393 1055.81 421.139C1055.76 421.857 1055.51 422.402 1055.06 422.774C1054.61 423.12 1054.08 423.273 1053.47 423.233ZM1059.26 449.216L1059.37 447.5L1063.01 446.931L1062.49 447.499L1063.59 430.334L1064.03 430.964L1060.49 429.975L1060.6 428.259L1066.2 428.337L1066.39 432.277L1065.96 432.089C1067.38 430.817 1068.83 429.908 1070.31 429.361C1071.81 428.816 1073.22 428.585 1074.52 428.669C1076.28 428.781 1077.69 429.42 1078.77 430.584C1079.87 431.723 1080.33 433.423 1080.16 435.683L1079.34 448.577L1078.97 447.993L1082.44 448.976L1082.33 450.692L1073.03 450.097L1073.14 448.381L1076.66 447.845L1076.14 448.413L1076.93 436.158C1077.03 434.508 1076.74 433.273 1076.04 432.454C1075.35 431.634 1074.37 431.184 1073.12 431.104C1072.14 431.041 1071.04 431.239 1069.84 431.696C1068.66 432.155 1067.47 432.908 1066.29 433.954L1066.61 433.333L1065.68 447.743L1065.32 447.159L1068.67 448.095L1068.56 449.811L1059.26 449.216ZM1092.84 451.726C1091.08 451.613 1089.67 450.975 1088.59 449.81C1087.52 448.646 1087.05 446.933 1087.2 444.671L1088.01 431.937L1088.37 432.521L1084.87 431.536L1084.98 429.819L1091.34 429.986L1090.43 444.316C1090.32 445.913 1090.62 447.121 1091.32 447.941C1092.01 448.76 1092.98 449.21 1094.24 449.29C1095.22 449.353 1096.3 449.155 1097.48 448.696C1098.66 448.237 1099.84 447.484 1101.03 446.438L1100.75 447.141L1101.67 432.731L1102.03 433.395L1098.52 432.409L1098.63 430.693L1105 430.819L1103.76 450.1L1103.32 449.55L1106.87 450.459L1106.75 452.215L1101.15 452.097L1100.92 448.115L1101.35 448.302C1099.96 449.576 1098.51 450.486 1097.01 451.031C1095.53 451.577 1094.14 451.809 1092.84 451.726ZM1116.31 453.228C1114.93 453.139 1113.87 452.644 1113.12 451.741C1112.38 450.812 1112.07 449.469 1112.18 447.712L1113.1 433.222L1113.59 433.774L1109.48 433.511L1109.59 431.755L1113.78 431.422L1113.18 432.025L1113.52 426.755L1116.75 426.441L1116.37 432.229L1115.97 431.682L1122.24 432.083L1121.97 434.311L1115.83 433.917L1116.3 433.426L1115.4 447.478C1115.33 448.595 1115.49 449.421 1115.88 449.954C1116.3 450.488 1116.91 450.781 1117.71 450.832C1118.19 450.863 1118.71 450.816 1119.28 450.692C1119.85 450.568 1120.46 450.38 1121.12 450.128L1121.68 452.008C1119.73 452.925 1117.94 453.332 1116.31 453.228ZM1132.7 454.277C1130.92 454.163 1129.36 453.662 1128.03 452.775C1126.73 451.863 1125.74 450.598 1125.07 448.978C1124.4 447.359 1124.13 445.418 1124.28 443.156C1124.43 440.841 1124.95 438.87 1125.86 437.245C1126.76 435.619 1127.98 434.401 1129.5 433.59C1131.02 432.752 1132.77 432.396 1134.74 432.522C1136.6 432.641 1138.11 433.138 1139.25 434.013C1140.43 434.863 1141.26 435.999 1141.76 437.42C1142.28 438.843 1142.49 440.446 1142.37 442.23C1142.36 442.522 1142.32 442.814 1142.28 443.105C1142.23 443.396 1142.17 443.753 1142.09 444.175L1126.72 443.192L1126.87 440.917L1139.44 441.721L1139.07 441.938C1139.17 440.742 1139.09 439.628 1138.84 438.596C1138.58 437.565 1138.09 436.718 1137.36 436.057C1136.63 435.395 1135.62 435.024 1134.34 434.942C1132.99 434.855 1131.82 435.141 1130.84 435.8C1129.86 436.459 1129.11 437.399 1128.58 438.621C1128.04 439.843 1127.72 441.279 1127.62 442.929C1127.51 444.685 1127.66 446.218 1128.09 447.528C1128.51 448.811 1129.18 449.829 1130.1 450.582C1131.04 451.337 1132.21 451.76 1133.62 451.85C1134.61 451.913 1135.7 451.796 1136.89 451.498C1138.09 451.174 1139.34 450.653 1140.64 449.934L1141.68 451.805C1140.13 452.721 1138.59 453.384 1137.06 453.794C1135.54 454.204 1134.09 454.365 1132.7 454.277ZM1150.11 438.997C1150.06 439.849 1150.29 440.532 1150.82 441.047C1151.35 441.561 1152.04 442.006 1152.9 442.382C1153.76 442.731 1154.67 443.083 1155.64 443.439C1156.6 443.795 1157.51 444.214 1158.36 444.696C1159.21 445.178 1159.9 445.809 1160.41 446.59C1160.92 447.371 1161.13 448.373 1161.06 449.598C1160.97 451.008 1160.5 452.168 1159.67 453.076C1158.84 453.985 1157.74 454.649 1156.38 455.07C1155.04 455.466 1153.56 455.611 1151.94 455.508C1150.96 455.445 1149.95 455.3 1148.92 455.074C1147.89 454.848 1146.84 454.553 1145.77 454.191L1146.39 448.86L1148.43 448.99L1148.58 452.928L1148.25 452.465C1148.85 452.664 1149.51 452.84 1150.22 452.992C1150.93 453.145 1151.59 453.241 1152.2 453.28C1153.16 453.341 1154.05 453.264 1154.86 453.049C1155.71 452.809 1156.4 452.439 1156.94 451.939C1157.48 451.413 1157.78 450.737 1157.83 449.912C1157.89 449.034 1157.65 448.324 1157.12 447.783C1156.62 447.243 1155.95 446.785 1155.09 446.41C1154.23 446.034 1153.32 445.682 1152.35 445.353C1151.41 444.999 1150.52 444.581 1149.66 444.099C1148.82 443.59 1148.13 442.959 1147.62 442.205C1147.11 441.45 1146.89 440.448 1146.97 439.197C1147.06 437.84 1147.48 436.757 1148.22 435.95C1149 435.118 1149.97 434.539 1151.14 434.213C1152.34 433.862 1153.6 433.729 1154.93 433.814C1155.84 433.872 1156.83 434.029 1157.91 434.285C1158.99 434.541 1160.09 434.892 1161.21 435.338L1160.72 439.836L1158.68 439.706L1158.3 436.354L1158.74 436.944C1157.38 436.456 1156.09 436.173 1154.87 436.095C1153.56 436.011 1152.45 436.221 1151.54 436.724C1150.65 437.201 1150.18 437.959 1150.11 438.997ZM1188.63 455.691L1188.16 454.939L1191.79 455.893L1191.67 457.649L1186.07 457.531L1185.84 453.668L1186.11 453.806C1184.86 455.008 1183.53 455.899 1182.13 456.477C1180.73 457.029 1179.39 457.264 1178.12 457.182C1176.57 457.084 1175.3 456.508 1174.3 455.455C1173.3 454.402 1172.86 452.878 1172.99 450.882C1173.09 449.312 1173.5 448.136 1174.22 447.353C1174.94 446.544 1175.89 446.004 1177.09 445.733C1178.28 445.462 1179.65 445.376 1181.19 445.475L1186.42 445.81L1186.03 446.186L1186.28 442.354C1186.37 440.89 1186.05 439.827 1185.32 439.166C1184.59 438.478 1183.55 438.09 1182.19 438.003C1181.47 437.957 1180.69 437.988 1179.86 438.095C1179.05 438.177 1178.19 438.348 1177.26 438.61L1177.77 438.122L1177.14 441.729L1175.03 441.593L1175.02 436.623C1176.57 436.214 1178.02 435.933 1179.37 435.779C1180.71 435.598 1181.95 435.543 1183.06 435.614C1185.19 435.751 1186.83 436.336 1187.96 437.371C1189.13 438.381 1189.64 439.923 1189.51 441.999L1188.63 455.691ZM1176.24 450.81C1176.16 452.114 1176.4 453.091 1176.97 453.742C1177.57 454.395 1178.35 454.753 1179.31 454.814C1180.24 454.873 1181.28 454.66 1182.44 454.172C1183.62 453.66 1184.77 452.946 1185.9 452.029L1185.61 452.852L1185.95 447.503L1186.29 447.885L1181.54 447.581C1179.65 447.46 1178.31 447.669 1177.53 448.207C1176.75 448.718 1176.32 449.585 1176.24 450.81ZM1202.35 467.952C1199.24 467.753 1196.94 467.152 1195.45 466.148C1193.97 465.144 1193.28 463.791 1193.39 462.088C1193.47 460.89 1193.93 459.851 1194.79 458.971C1195.65 458.091 1196.87 457.354 1198.46 456.761L1198.46 457.402C1197.61 457.294 1196.97 457.08 1196.54 456.758C1196.1 456.41 1195.91 455.956 1195.94 455.397C1195.96 455.184 1196 454.973 1196.06 454.764C1196.13 454.554 1196.24 454.267 1196.4 453.903C1196.58 453.514 1196.84 453.01 1197.18 452.39C1197.54 451.745 1197.99 450.906 1198.54 449.872L1198.58 450.436C1197.48 449.75 1196.65 448.869 1196.11 447.792C1195.56 446.689 1195.34 445.418 1195.43 443.981C1195.58 441.666 1196.45 439.878 1198.06 438.618C1199.69 437.36 1201.85 436.816 1204.53 436.988C1206.34 437.104 1207.88 437.523 1209.14 438.245L1208.28 437.989L1214.56 438.111L1214.48 440.03L1210.72 440.511L1211.03 440.049C1211.56 440.618 1211.94 441.297 1212.18 442.087C1212.43 442.878 1212.52 443.765 1212.46 444.75C1212.31 447.092 1211.4 448.891 1209.75 450.148C1208.09 451.405 1205.96 451.95 1203.35 451.783C1201.86 451.687 1200.5 451.347 1199.28 450.761L1200.03 450.448L1198.65 455.611L1198 455.168L1205.82 455.669C1208.38 455.832 1210.29 456.462 1211.56 457.559C1212.82 458.628 1213.4 460.095 1213.28 461.958C1213.14 464.113 1212.14 465.706 1210.29 466.736C1208.46 467.768 1205.81 468.174 1202.35 467.952ZM1202.79 465.535C1205.21 465.69 1207.03 465.472 1208.24 464.882C1209.45 464.292 1210.1 463.331 1210.19 462C1210.26 460.83 1209.88 459.91 1209.04 459.242C1208.2 458.6 1206.9 458.223 1205.15 458.111L1198.8 457.704L1199.73 457.564C1197.52 458.758 1196.36 460.127 1196.26 461.67C1196.19 462.815 1196.68 463.701 1197.73 464.33C1198.82 464.987 1200.5 465.389 1202.79 465.535ZM1203.49 449.547C1205.19 449.656 1206.55 449.289 1207.57 448.445C1208.59 447.575 1209.15 446.302 1209.26 444.625C1209.36 442.949 1208.99 441.656 1208.14 440.746C1207.29 439.837 1206.03 439.328 1204.35 439.221C1202.65 439.112 1201.3 439.48 1200.31 440.326C1199.33 441.144 1198.78 442.405 1198.67 444.108C1198.56 445.758 1198.92 447.05 1199.74 447.985C1200.59 448.921 1201.84 449.442 1203.49 449.547ZM1227.32 438.447C1230.25 438.634 1232.48 439.698 1234.01 441.64C1235.57 443.584 1236.25 446.232 1236.03 449.585C1235.89 451.847 1235.35 453.804 1234.41 455.454C1233.51 457.079 1232.28 458.31 1230.73 459.146C1229.18 459.982 1227.35 460.333 1225.25 460.199C1222.38 460.015 1220.18 458.979 1218.68 457.092C1217.17 455.179 1216.52 452.532 1216.74 449.152C1216.89 446.811 1217.4 444.826 1218.28 443.199C1219.19 441.547 1220.4 440.315 1221.93 439.504C1223.48 438.668 1225.27 438.315 1227.32 438.447ZM1227.01 440.792C1224.96 440.66 1223.35 441.332 1222.16 442.805C1220.97 444.279 1220.28 446.413 1220.1 449.207C1219.93 451.948 1220.31 454.044 1221.26 455.494C1222.21 456.945 1223.66 457.732 1225.6 457.856C1227.01 457.946 1228.22 457.676 1229.22 457.046C1230.25 456.39 1231.05 455.426 1231.61 454.152C1232.2 452.881 1232.55 451.34 1232.67 449.53C1232.84 446.816 1232.43 444.719 1231.43 443.238C1230.45 441.733 1228.98 440.918 1227.01 440.792ZM1238.75 458.818C1238.79 458.179 1239.04 457.687 1239.49 457.342C1239.94 456.996 1240.44 456.842 1241 456.877C1241.64 456.918 1242.13 457.137 1242.48 457.533C1242.83 457.93 1242.98 458.447 1242.94 459.086C1242.9 459.725 1242.66 460.217 1242.21 460.562C1241.78 460.909 1241.29 461.065 1240.73 461.029C1240.09 460.988 1239.59 460.769 1239.21 460.37C1238.86 459.974 1238.71 459.457 1238.75 458.818Z" fill="black"/>
<rect x="556.238" y="446.088" width="1004" height="124" transform="rotate(3.66131 556.238 446.088)" fill="#FFF2E6"/>
<path d="M656.121 547.673L647.805 547.141L650.998 497.243L626.665 518.65L621.138 512.367L656.178 481.542L687.003 516.582L680.721 522.109L659.314 497.775L656.121 547.673Z" fill="#FF8000"/>
<path d="M720.563 536.951L719.503 535.472L727.976 537.361L727.792 540.235L706.14 538.849L706.324 535.975L716.561 535.348L715.325 536.615L717.716 499.252L719.113 499.469L707.587 505.209L706.071 501.841L718.969 494.715L723.248 494.988L720.563 536.951ZM748.72 542.151C745.101 541.92 742.152 540.897 739.874 539.084C737.638 537.274 736.052 534.671 735.115 531.276C734.22 527.884 733.934 523.676 734.255 518.652C734.588 513.457 735.459 509.194 736.869 505.864C738.282 502.492 740.299 500.034 742.92 498.492C745.544 496.907 748.751 496.235 752.541 496.478C756.245 496.715 759.175 497.693 761.331 499.413C763.53 501.136 765.036 503.648 765.851 506.949C766.708 510.253 766.978 514.396 766.659 519.378C766.321 524.658 765.443 529.027 764.025 532.485C762.606 535.943 760.605 538.487 758.021 540.117C755.482 541.707 752.382 542.386 748.72 542.151ZM749.173 538.076C751.643 538.234 753.71 537.661 755.376 536.356C757.041 535.052 758.347 533.019 759.293 530.258C760.242 527.454 760.877 523.882 761.197 519.542C761.529 515.031 761.396 511.431 760.798 508.742C760.203 506.011 759.178 504 757.721 502.71C756.265 501.419 754.387 500.7 752.087 500.553C749.533 500.39 747.38 500.958 745.629 502.256C743.882 503.513 742.513 505.52 741.524 508.279C740.581 510.997 739.973 514.486 739.7 518.743C739.428 523.001 739.586 526.539 740.176 529.355C740.768 532.13 741.808 534.248 743.296 535.712C744.787 537.133 746.746 537.921 749.173 538.076Z" fill="black" fill-opacity="0.7"/>
<path d="M977.253 556.775C973.633 556.543 970.685 555.521 968.406 553.708C966.171 551.897 964.584 549.295 963.647 545.9C962.753 542.508 962.466 538.3 962.788 533.275C963.12 528.081 963.991 523.818 965.402 520.488C966.815 517.116 968.832 514.658 971.453 513.116C974.077 511.531 977.284 510.859 981.073 511.102C984.778 511.339 987.708 512.317 989.864 514.037C992.062 515.76 993.569 518.272 994.384 521.573C995.241 524.877 995.51 529.02 995.192 534.002C994.854 539.282 993.976 543.651 992.557 547.109C991.139 550.566 989.138 553.111 986.554 554.741C984.015 556.331 980.915 557.009 977.253 556.775ZM977.706 552.7C980.175 552.858 982.243 552.285 983.908 550.98C985.574 549.676 986.879 547.643 987.826 544.882C988.775 542.078 989.409 538.506 989.73 534.166C990.061 529.655 989.928 526.055 989.331 523.366C988.736 520.635 987.71 518.624 986.254 517.333C984.797 516.043 982.919 515.324 980.62 515.177C978.065 515.014 975.912 515.581 974.162 516.88C972.414 518.137 971.046 520.144 970.057 522.902C969.113 525.621 968.506 529.109 968.233 533.367C967.961 537.625 968.119 541.163 968.708 543.979C969.3 546.753 970.341 548.872 971.829 550.336C973.32 551.756 975.279 552.544 977.706 552.7Z" fill="black" fill-opacity="0.7"/>
<g clip-path="url(#clip0_329_770)">
<path d="M909.493 497.751L917.809 498.284L914.616 548.182L938.95 526.775L944.476 533.057L909.436 563.883L878.611 528.843L884.894 523.316L906.3 547.649L909.493 497.751Z" fill="black" fill-opacity="0.7"/>
</g>
<circle cx="337.92" cy="645.535" r="200" transform="rotate(-4.9819 337.92 645.535)" fill="#FA8714"/>
<rect x="185.208" y="517.312" width="282.843" height="282.843" transform="rotate(-4.9819 185.208 517.312)" fill="#FB9F43"/>
<rect x="139.132" y="663.287" width="282.843" height="282.843" transform="rotate(-49.9819 139.132 663.287)" fill="#FB9F43"/>
<path d="M591.249 612.343C564.166 534.89 591.249 612.343 564.166 534.89C519.994 465.743 564.166 534.89 519.994 465.743C625.325 505.164 519.994 465.743 625.325 505.164C591.249 612.343 625.325 505.164 591.249 612.343Z" fill="#FA8714" stroke="#FB9F43"/>
<path d="M384.479 880.381C461.045 850.882 384.479 880.381 461.045 850.882C528.772 804.562 461.045 850.882 528.772 804.562C492.675 911.077 528.772 804.562 492.675 911.077C384.479 880.381 492.675 911.077 384.479 880.381Z" fill="#FA8714" stroke="#FB9F43"/>
<path d="M198.093 838.407C273.729 870.215 198.093 838.407 273.729 870.215C354.653 883.773 273.729 870.215 354.653 883.773C254.803 935.528 354.653 883.773 254.803 935.528C198.093 838.407 254.803 935.528 198.093 838.407Z" fill="#FA8714" stroke="#FB9F43"/>
<path d="M144.331 508.767C114.862 585.344 144.331 508.767 114.862 585.344C103.796 666.647 114.862 585.344 103.796 666.647C48.9978 568.434 103.796 666.647 48.9978 568.434C144.331 508.767 48.9978 568.434 144.331 508.767Z" fill="#FA8714" stroke="#FB9F43"/>
<path d="M435.672 650.063C438.046 677.298 400.933 725.866 350.315 730.279C299.697 734.691 254.741 693.277 252.367 666.042C344.019 658.053 252.367 666.042 344.019 658.053C435.672 650.063 344.019 658.053 435.672 650.063Z" fill="#F5D8BA"/>
<path d="M314.277 580.529C314.014 590.397 308.077 599.23 298.588 605.52C289.1 611.809 276.1 615.524 261.836 615.144C247.572 614.763 234.788 610.36 225.649 603.575C216.509 596.789 211.051 587.652 211.314 577.784C211.577 567.915 217.514 559.082 227.003 552.793C236.491 546.504 249.491 542.789 263.755 543.169C278.019 543.549 290.803 547.952 299.942 554.738C309.082 561.524 314.54 570.661 314.277 580.529Z" fill="white" stroke="white"/>
<ellipse cx="272.952" cy="573.425" rx="27" ry="17.5" transform="rotate(1.52742 272.952 573.425)" fill="#7C96F2"/>
<path d="M453.787 563.242C453.524 573.11 447.587 581.943 438.098 588.233C428.611 594.521 415.61 598.237 401.346 597.856C387.082 597.476 374.298 593.073 365.159 586.288C356.019 579.501 350.561 570.365 350.824 560.496C351.087 550.628 357.025 541.795 366.513 535.506C376.001 529.217 389.001 525.502 403.265 525.882C417.529 526.262 430.313 530.665 439.452 537.451C448.592 544.237 454.051 553.374 453.787 563.242Z" fill="white" stroke="white"/>
<ellipse cx="412.462" cy="556.138" rx="27" ry="17.5" transform="rotate(1.52742 412.462 556.138)" fill="#7C96F2"/>
<defs>
<filter id="filter0_d_329_770" x="544.319" y="0" width="1046.41" height="641.948" filterUnits="userSpaceOnUse" color-interpolation-filters="sRGB">
<feFlood flood-opacity="0" result="BackgroundImageFix"/>
<feColorMatrix in="SourceAlpha" type="matrix" values="0 0 0 0 0 0 0 0 0 0 0 0 0 0 0 0 0 0 127 0" result="hardAlpha"/>
<feOffset dy="4"/>
<feGaussianBlur stdDeviation="2"/>
<feComposite in2="hardAlpha" operator="out"/>
<feColorMatrix type="matrix" values="0 0 0 0 0 0 0 0 0 0 0 0 0 0 0 0 0 0 0.25 0"/>
<feBlend mode="normal" in2="BackgroundImageFix" result="effect1_dropShadow_329_770"/>
<feBlend mode="normal" in="SourceGraphic" in2="effect1_dropShadow_329_770" result="shape"/>
</filter>
<clipPath id="clip0_329_770">
<rect width="100" height="100" fill="white" transform="translate(880.719 495.91) rotate(3.66131)"/>
</clipPath>
</defs>
</svg>
