<svg width="8715" height="2597" viewBox="0 0 8715 2597" fill="none" xmlns="http://www.w3.org/2000/svg">
<rect width="8715" height="2597" fill="#98C9F5"/>
<path d="M1260.46 420.387C1255.05 354.672 1200.11 303 1133 303C1084.95 303 1043.14 329.512 1021.25 368.668C1016 367.582 1010.57 367 1005 367C971.234 367 942.498 387.984 930.758 417.57C923.756 415.945 916.496 415 909 415C855.98 415 813 457.98 813 511C813 564.02 855.98 607 909 607H1229C1282.02 607 1325 564.02 1325 511C1325 469.02 1298.01 433.422 1260.46 420.387ZM1197 447C1188.16 447 1181 439.836 1181 431C1181 404.531 1159.47 383 1133 383C1124.16 383 1117 375.836 1117 367C1117 358.164 1124.16 351 1133 351C1177.11 351 1213 386.891 1213 431C1213 439.836 1205.84 447 1197 447Z" fill="white"/>
<path d="M3100.46 932.387C3095.05 866.672 3040.11 815 2973 815C2924.95 815 2883.14 841.512 2861.25 880.668C2856 879.582 2850.57 879 2845 879C2811.23 879 2782.5 899.984 2770.76 929.57C2763.76 927.945 2756.5 927 2749 927C2695.98 927 2653 969.98 2653 1023C2653 1076.02 2695.98 1119 2749 1119H3069C3122.02 1119 3165 1076.02 3165 1023C3165 981.02 3138.01 945.422 3100.46 932.387ZM3037 959C3028.16 959 3021 951.836 3021 943C3021 916.531 2999.47 895 2973 895C2964.16 895 2957 887.836 2957 879C2957 870.164 2964.16 863 2973 863C3017.11 863 3053 898.891 3053 943C3053 951.836 3045.84 959 3037 959Z" fill="white"/>
<path d="M7143.46 1264.39C7138.05 1198.67 7083.11 1147 7016 1147C6967.95 1147 6926.14 1173.51 6904.25 1212.67C6899 1211.58 6893.57 1211 6888 1211C6854.23 1211 6825.5 1231.98 6813.76 1261.57C6806.76 1259.95 6799.5 1259 6792 1259C6738.98 1259 6696 1301.98 6696 1355C6696 1408.02 6738.98 1451 6792 1451H7112C7165.02 1451 7208 1408.02 7208 1355C7208 1313.02 7181.01 1277.42 7143.46 1264.39ZM7080 1291C7071.16 1291 7064 1283.84 7064 1275C7064 1248.53 7042.47 1227 7016 1227C7007.16 1227 7000 1219.84 7000 1211C7000 1202.16 7007.16 1195 7016 1195C7060.11 1195 7096 1230.89 7096 1275C7096 1283.84 7088.84 1291 7080 1291Z" fill="white"/>
<path d="M5453.46 634.387C5448.05 568.672 5393.11 517 5326 517C5277.95 517 5236.14 543.512 5214.25 582.668C5209 581.582 5203.57 581 5198 581C5164.23 581 5135.5 601.984 5123.76 631.57C5116.76 629.945 5109.5 629 5102 629C5048.98 629 5006 671.98 5006 725C5006 778.02 5048.98 821 5102 821H5422C5475.02 821 5518 778.02 5518 725C5518 683.02 5491.01 647.422 5453.46 634.387ZM5390 661C5381.16 661 5374 653.836 5374 645C5374 618.531 5352.47 597 5326 597C5317.16 597 5310 589.836 5310 581C5310 572.164 5317.16 565 5326 565C5370.11 565 5406 600.891 5406 645C5406 653.836 5398.84 661 5390 661Z" fill="white"/>
<path d="M7888.46 421.387C7883.05 355.672 7828.11 304 7761 304C7712.95 304 7671.14 330.512 7649.25 369.668C7644 368.582 7638.57 368 7633 368C7599.23 368 7570.5 388.984 7558.76 418.57C7551.76 416.945 7544.5 416 7537 416C7483.98 416 7441 458.98 7441 512C7441 565.02 7483.98 608 7537 608H7857C7910.02 608 7953 565.02 7953 512C7953 470.02 7926.01 434.422 7888.46 421.387ZM7825 448C7816.16 448 7809 440.836 7809 432C7809 405.531 7787.47 384 7761 384C7752.16 384 7745 376.836 7745 368C7745 359.164 7752.16 352 7761 352C7805.11 352 7841 387.891 7841 432C7841 440.836 7833.84 448 7825 448Z" fill="white"/>
<path d="M8144.46 1957.39C8139.05 1891.67 8084.11 1840 8017 1840C7968.95 1840 7927.14 1866.51 7905.25 1905.67C7900 1904.58 7894.57 1904 7889 1904C7855.23 1904 7826.5 1924.98 7814.76 1954.57C7807.76 1952.95 7800.5 1952 7793 1952C7739.98 1952 7697 1994.98 7697 2048C7697 2101.02 7739.98 2144 7793 2144H8113C8166.02 2144 8209 2101.02 8209 2048C8209 2006.02 8182.01 1970.42 8144.46 1957.39ZM8081 1984C8072.16 1984 8065 1976.84 8065 1968C8065 1941.53 8043.47 1920 8017 1920C8008.16 1920 8001 1912.84 8001 1904C8001 1895.16 8008.16 1888 8017 1888C8061.11 1888 8097 1923.89 8097 1968C8097 1976.84 8089.84 1984 8081 1984Z" fill="white"/>
<path d="M4618.46 2131.39C4613.05 2065.67 4558.11 2014 4491 2014C4442.95 2014 4401.14 2040.51 4379.25 2079.67C4374 2078.58 4368.57 2078 4363 2078C4329.23 2078 4300.5 2098.98 4288.76 2128.57C4281.76 2126.95 4274.5 2126 4267 2126C4213.98 2126 4171 2168.98 4171 2222C4171 2275.02 4213.98 2318 4267 2318H4587C4640.02 2318 4683 2275.02 4683 2222C4683 2180.02 4656.01 2144.42 4618.46 2131.39ZM4555 2158C4546.16 2158 4539 2150.84 4539 2142C4539 2115.53 4517.47 2094 4491 2094C4482.16 2094 4475 2086.84 4475 2078C4475 2069.16 4482.16 2062 4491 2062C4535.11 2062 4571 2097.89 4571 2142C4571 2150.84 4563.84 2158 4555 2158Z" fill="white"/>
<path d="M6180.46 1701.39C6175.05 1635.67 6120.11 1584 6053 1584C6004.95 1584 5963.14 1610.51 5941.25 1649.67C5936 1648.58 5930.57 1648 5925 1648C5891.23 1648 5862.5 1668.98 5850.76 1698.57C5843.76 1696.95 5836.5 1696 5829 1696C5775.98 1696 5733 1738.98 5733 1792C5733 1845.02 5775.98 1888 5829 1888H6149C6202.02 1888 6245 1845.02 6245 1792C6245 1750.02 6218.01 1714.42 6180.46 1701.39ZM6117 1728C6108.16 1728 6101 1720.84 6101 1712C6101 1685.53 6079.47 1664 6053 1664C6044.16 1664 6037 1656.84 6037 1648C6037 1639.16 6044.16 1632 6053 1632C6097.11 1632 6133 1667.89 6133 1712C6133 1720.84 6125.84 1728 6117 1728Z" fill="white"/>
<path d="M3958.46 420.387C3953.05 354.672 3898.11 303 3831 303C3782.95 303 3741.14 329.512 3719.25 368.668C3714 367.582 3708.57 367 3703 367C3669.23 367 3640.5 387.984 3628.76 417.57C3621.76 415.945 3614.5 415 3607 415C3553.98 415 3511 457.98 3511 511C3511 564.02 3553.98 607 3607 607H3927C3980.02 607 4023 564.02 4023 511C4023 469.02 3996.01 433.422 3958.46 420.387ZM3895 447C3886.16 447 3879 439.836 3879 431C3879 404.531 3857.47 383 3831 383C3822.16 383 3815 375.836 3815 367C3815 358.164 3822.16 351 3831 351C3875.11 351 3911 386.891 3911 431C3911 439.836 3903.84 447 3895 447Z" fill="white"/>
<path d="M3357.46 1875.39C3352.05 1809.67 3297.11 1758 3230 1758C3181.95 1758 3140.14 1784.51 3118.25 1823.67C3113 1822.58 3107.57 1822 3102 1822C3068.23 1822 3039.5 1842.98 3027.76 1872.57C3020.76 1870.95 3013.5 1870 3006 1870C2952.98 1870 2910 1912.98 2910 1966C2910 2019.02 2952.98 2062 3006 2062H3326C3379.02 2062 3422 2019.02 3422 1966C3422 1924.02 3395.01 1888.42 3357.46 1875.39ZM3294 1902C3285.16 1902 3278 1894.84 3278 1886C3278 1859.53 3256.47 1838 3230 1838C3221.16 1838 3214 1830.84 3214 1822C3214 1813.16 3221.16 1806 3230 1806C3274.11 1806 3310 1841.89 3310 1886C3310 1894.84 3302.84 1902 3294 1902Z" fill="white"/>
<path d="M840.465 1875.39C835.055 1809.67 780.109 1758 713 1758C664.953 1758 623.143 1784.51 601.25 1823.67C596.004 1822.58 590.57 1822 585 1822C551.234 1822 522.498 1842.98 510.758 1872.57C503.756 1870.95 496.496 1870 489 1870C435.98 1870 393 1912.98 393 1966C393 2019.02 435.98 2062 489 2062H809C862.02 2062 905 2019.02 905 1966C905 1924.02 878.008 1888.42 840.465 1875.39ZM777 1902C768.164 1902 761 1894.84 761 1886C761 1859.53 739.469 1838 713 1838C704.164 1838 697 1830.84 697 1822C697 1813.16 704.164 1806 713 1806C757.109 1806 793 1841.89 793 1886C793 1894.84 785.836 1902 777 1902Z" fill="white"/>
<path d="M1920.46 1264.39C1915.05 1198.67 1860.11 1147 1793 1147C1744.95 1147 1703.14 1173.51 1681.25 1212.67C1676 1211.58 1670.57 1211 1665 1211C1631.23 1211 1602.5 1231.98 1590.76 1261.57C1583.76 1259.95 1576.5 1259 1569 1259C1515.98 1259 1473 1301.98 1473 1355C1473 1408.02 1515.98 1451 1569 1451H1889C1942.02 1451 1985 1408.02 1985 1355C1985 1313.02 1958.01 1277.42 1920.46 1264.39ZM1857 1291C1848.16 1291 1841 1283.84 1841 1275C1841 1248.53 1819.47 1227 1793 1227C1784.16 1227 1777 1219.84 1777 1211C1777 1202.16 1784.16 1195 1793 1195C1837.11 1195 1873 1230.89 1873 1275C1873 1283.84 1865.84 1291 1857 1291Z" fill="white"/>
<path d="M4941.46 1312.39C4936.05 1246.67 4881.11 1195 4814 1195C4765.95 1195 4724.14 1221.51 4702.25 1260.67C4697 1259.58 4691.57 1259 4686 1259C4652.23 1259 4623.5 1279.98 4611.76 1309.57C4604.76 1307.95 4597.5 1307 4590 1307C4536.98 1307 4494 1349.98 4494 1403C4494 1456.02 4536.98 1499 4590 1499H4910C4963.02 1499 5006 1456.02 5006 1403C5006 1361.02 4979.01 1325.42 4941.46 1312.39ZM4878 1339C4869.16 1339 4862 1331.84 4862 1323C4862 1296.53 4840.47 1275 4814 1275C4805.16 1275 4798 1267.84 4798 1259C4798 1250.16 4805.16 1243 4814 1243C4858.11 1243 4894 1278.89 4894 1323C4894 1331.84 4886.84 1339 4878 1339Z" fill="white"/>
</svg>
