<svg width="1830" height="512" viewBox="0 0 1830 512" fill="none" xmlns="http://www.w3.org/2000/svg">
<circle cx="1502.18" cy="200" r="200" fill="#FA8714"/>
<rect x="1361.18" y="59" width="282.843" height="282.843" fill="#FB9F43"/>
<rect x="1302.6" y="200.421" width="282.843" height="282.843" transform="rotate(-45 1302.6 200.421)" fill="#FB9F43"/>
<path d="M1757.44 188.932C1737.18 109.42 1757.44 188.932 1737.18 109.42C1699.18 36.6979 1737.18 109.42 1699.18 36.6979C1800.69 85.1173 1699.18 36.6979 1800.69 85.1173C1757.44 188.932 1800.69 85.1173 1757.44 188.932Z" fill="#FA8714" stroke="#FB9F43"/>
<path d="M1528.17 438.002C1607.01 415.263 1528.17 438.002 1607.01 415.263C1678.5 375 1607.01 415.263 1678.5 375C1633.29 477.978 1678.5 375 1633.29 477.978C1528.17 438.002 1633.29 477.978 1528.17 438.002Z" fill="#FA8714" stroke="#FB9F43"/>
<path d="M1346.13 380C1418.72 418.256 1346.13 380 1418.72 418.256C1498.16 438.791 1418.72 418.256 1498.16 438.791C1394.2 481.679 1498.16 438.791 1394.2 481.679C1346.13 380 1394.2 481.679 1346.13 380Z" fill="#FA8714" stroke="#FB9F43"/>
<path d="M1321.2 46.9365C1285.19 120.665 1321.2 46.9365 1285.19 120.665C1267.11 200.7 1285.19 120.665 1267.11 200.7C1221.05 98.0995 1267.11 200.7 1221.05 98.0995C1321.2 46.9365 1221.05 98.0995 1321.2 46.9365Z" fill="#FA8714" stroke="#FB9F43"/>
<path d="M1486.5 132.5C1486.5 142.372 1480.8 151.36 1471.48 157.9C1462.17 164.439 1449.27 168.5 1435 168.5C1420.73 168.5 1407.83 164.439 1398.52 157.9C1389.2 151.36 1383.5 142.372 1383.5 132.5C1383.5 122.628 1389.2 113.64 1398.52 107.1C1407.83 100.561 1420.73 96.5 1435 96.5C1449.27 96.5 1462.17 100.561 1471.48 107.1C1480.8 113.64 1486.5 122.628 1486.5 132.5Z" fill="white" stroke="white"/>
<ellipse cx="1419" cy="132.5" rx="27" ry="17.5" fill="#7C96F2"/>
<ellipse cx="1500" cy="249" rx="84" ry="48" fill="#F5D8BA"/>
<circle cx="1502.18" cy="200" r="200" fill="#FA8714"/>
<rect x="1361.18" y="59" width="282.843" height="282.843" fill="#FB9F43"/>
<rect x="1302.6" y="200.421" width="282.843" height="282.843" transform="rotate(-45 1302.6 200.421)" fill="#FB9F43"/>
<path d="M1757.44 188.932C1737.18 109.42 1757.44 188.932 1737.18 109.42C1699.18 36.6979 1737.18 109.42 1699.18 36.6979C1800.69 85.1173 1699.18 36.6979 1800.69 85.1173C1757.44 188.932 1800.69 85.1173 1757.44 188.932Z" fill="#FA8714" stroke="#FB9F43"/>
<path d="M1528.17 438.002C1607.01 415.263 1528.17 438.002 1607.01 415.263C1678.5 375 1607.01 415.263 1678.5 375C1633.29 477.978 1678.5 375 1633.29 477.978C1528.17 438.002 1633.29 477.978 1528.17 438.002Z" fill="#FA8714" stroke="#FB9F43"/>
<path d="M1346.13 380C1418.72 418.256 1346.13 380 1418.72 418.256C1498.16 438.791 1418.72 418.256 1498.16 438.791C1394.2 481.679 1498.16 438.791 1394.2 481.679C1346.13 380 1394.2 481.679 1346.13 380Z" fill="#FA8714" stroke="#FB9F43"/>
<path d="M1321.2 46.9365C1285.19 120.665 1321.2 46.9365 1285.19 120.665C1267.11 200.7 1285.19 120.665 1267.11 200.7C1221.05 98.0995 1267.11 200.7 1221.05 98.0995C1321.2 46.9365 1221.05 98.0995 1321.2 46.9365Z" fill="#FA8714" stroke="#FB9F43"/>
<path d="M1617.5 132.5C1617.5 142.372 1611.8 151.36 1602.48 157.9C1593.17 164.439 1580.27 168.5 1566 168.5C1551.73 168.5 1538.83 164.439 1529.52 157.9C1520.2 151.36 1514.5 142.372 1514.5 132.5C1514.5 122.628 1520.2 113.64 1529.52 107.1C1538.83 100.561 1551.73 96.5 1566 96.5C1580.27 96.5 1593.17 100.561 1602.48 107.1C1611.8 113.64 1617.5 122.628 1617.5 132.5Z" fill="white" stroke="white"/>
<ellipse cx="1550" cy="132.5" rx="27" ry="17.5" fill="#7C96F2"/>
<path d="M1486.5 132.5C1486.5 142.372 1480.8 151.36 1471.48 157.9C1462.17 164.439 1449.27 168.5 1435 168.5C1420.73 168.5 1407.83 164.439 1398.52 157.9C1389.2 151.36 1383.5 142.372 1383.5 132.5C1383.5 122.628 1389.2 113.64 1398.52 107.1C1407.83 100.561 1420.73 96.5 1435 96.5C1449.27 96.5 1462.17 100.561 1471.48 107.1C1480.8 113.64 1486.5 122.628 1486.5 132.5Z" fill="white" stroke="white"/>
<ellipse cx="1419" cy="132.5" rx="27" ry="17.5" fill="#7C96F2"/>
<ellipse cx="1500" cy="249" rx="84" ry="48" fill="#F5D8BA"/>
<circle cx="308.181" cy="200" r="200" fill="#FA8714"/>
<rect x="167.181" y="59" width="282.843" height="282.843" fill="#FB9F43"/>
<rect x="108.602" y="200.421" width="282.843" height="282.843" transform="rotate(-45 108.602 200.421)" fill="#FB9F43"/>
<path d="M563.436 188.932C543.181 109.42 563.436 188.932 543.181 109.42C505.181 36.6979 543.181 109.42 505.181 36.6979C606.69 85.1173 505.181 36.6979 606.69 85.1173C563.436 188.932 606.69 85.1173 563.436 188.932Z" fill="#FA8714" stroke="#FB9F43"/>
<path d="M437 421.404C500.379 369.292 437 421.404 500.379 369.292C550.072 304 500.379 369.292 550.072 304C549.357 416.463 550.072 304 549.357 416.463C437 421.404 549.357 416.463 437 421.404Z" fill="#FA8714" stroke="#FB9F43"/>
<path d="M152.134 380C224.721 418.256 152.134 380 224.721 418.256C304.162 438.791 224.721 418.256 304.162 438.791C200.195 481.679 304.162 438.791 200.195 481.679C152.134 380 200.195 481.679 152.134 380Z" fill="#FA8714" stroke="#FB9F43"/>
<path d="M127.2 46.9365C91.1925 120.665 127.2 46.9365 91.1925 120.665C73.1081 200.7 91.1925 120.665 73.1081 200.7C27.046 98.0995 73.1081 200.7 27.046 98.0995C127.2 46.9365 27.046 98.0995 127.2 46.9365Z" fill="#FA8714" stroke="#FB9F43"/>
<path d="M405.17 213C405.17 240.338 363.98 285.5 313.17 285.5C262.36 285.5 221.17 240.338 221.17 213C313.17 213 221.17 213 313.17 213C405.17 213 313.17 213 405.17 213Z" fill="#F5D8BA"/>
<path d="M412.71 118.847C411.851 109.672 408.138 101.171 401.019 95.1569C393.439 88.7434 381.87 85.7668 372.143 85.2145C361.218 84.6008 350.11 85.5213 339.124 85.3065C332.465 85.1838 325.775 85.7362 319.086 85.8896C310.586 86.0737 302.116 85.9816 293.616 85.8589C279.776 85.6748 265.998 85.5827 252.158 85.552C248.783 85.552 245.377 85.5213 242.001 85.5213C233.348 85.4907 225.001 86.2271 216.961 89.7561C206.558 94.3284 199.777 102 197.26 113.201C195.787 119.675 195.665 126.212 196.585 132.748C197.659 140.45 199.777 147.876 203.919 154.535C209.075 162.851 217.36 168.16 227.149 169.05C233.869 169.664 240.283 168.344 246.512 165.981C255.871 162.422 263.942 156.837 271.276 150.116C274.191 147.447 277.137 144.777 279.469 141.555C282.937 136.768 286.006 131.705 288.645 126.365C291.897 119.737 294.629 112.924 294.168 105.314C294.138 104.762 294.444 104.578 294.843 104.394C301.195 101.264 307.578 101.079 313.992 104.209C314.759 104.578 314.974 105.038 314.912 105.867C314.728 108.26 315.004 110.654 315.526 112.986C316.569 117.988 318.503 122.683 320.896 127.194C325.806 136.4 331.299 144.439 339.124 151.405C346.458 157.972 354.958 163.373 364.318 166.564C371.161 168.927 378.188 170.001 385.369 168.559C395.434 166.564 402.4 160.519 406.849 151.528C411.882 141.217 413.784 130.293 412.71 118.847ZM334.797 87.8535C334.613 88.1604 333.692 88.59 333.14 88.7127C326.543 90.3391 320.405 92.1496 316.876 98.5017C316.201 99.7292 315.342 102.43 313.746 100.374C312.151 98.3483 308.744 98.6859 306.412 98.6552C303.957 98.6245 301.502 98.6245 299.078 98.7779C297.82 98.87 296.838 99.2075 295.948 100.097C294.414 101.632 293.585 101.448 292.665 99.5451C290.394 94.7887 285.515 90.3698 280.206 89.3572C278.886 89.1117 277.475 89.3878 276.217 88.8048C275.91 88.6514 275.664 88.3445 275.695 88.0376C275.756 87.3319 276.8 87.5773 277.229 87.608C278.273 87.6694 279.347 87.6387 280.39 87.6694C286.405 87.7308 292.45 87.7308 298.464 87.7308C305.86 87.7308 313.255 87.7308 320.651 87.7308C325.07 87.7308 329.488 87.6694 333.907 87.5773C334.736 87.516 334.92 87.6694 334.797 87.8535Z" fill="black"/>
<path d="M823 310C876.572 310 920 266.572 920 213C920 159.428 876.572 116 823 116C769.428 116 726 159.428 726 213C726 266.572 769.428 310 823 310Z" fill="black"/>
<path d="M820 125.2C799.7 125.901 780.268 133.604 765 147H792L820 132.6V125.2V125.2ZM826 125.2V132.6L854 147H881C865.732 133.604 846.3 125.901 826 125.2V125.2ZM758.8 153C749.62 162.732 742.78 174.428 738.8 187.2L754.8 214.8L777.8 211.2L798.8 175L790.4 153H758.8V153ZM855.6 153L847.2 175L868.2 211.2L891.2 214.8L907 187.4C903.106 174.575 896.334 162.809 887.2 153H855.6V153ZM805.6 179L785.4 214.2L803.2 245H842.8L860.6 214.2L840.4 179H805.6ZM736.8 195.6C735.624 201.326 735.021 207.155 735 213C735.016 227.444 738.588 241.663 745.4 254.4L752.8 250L751.4 221L736.8 195.6V195.6ZM909.2 195.8L894.6 221L893.2 250L900.6 254.4C907.412 241.663 910.984 227.444 911 213C910.966 207.221 910.363 201.46 909.2 195.8V195.8ZM803.2 253L787.8 272L803.2 298.6C809.688 300.148 816.33 300.953 823 301C829.67 300.953 836.312 300.148 842.8 298.6L858.2 272L842.8 253H803.2ZM755.4 255.6L748.4 259.6C759.151 276.859 775.546 289.862 794.8 296.4L780.8 271.8L755.4 255.6V255.6ZM890.6 255.6L865.2 271.8L851.2 296.2C870.423 289.713 886.815 276.784 897.6 259.6L890.6 255.6Z" fill="white"/>
</svg>
