<svg width="500" height="446" viewBox="0 0 500 446" fill="none" xmlns="http://www.w3.org/2000/svg">
<path d="M0.002 148.25C0.002 148.25 44.761 119.417 61.827 119.303C79.395 119.186 125.862 148.25 125.862 148.25C125.862 148.25 171.651 119.256 189.02 119.303C206.19 119.349 251.3 148.25 251.3 148.25C251.3 148.25 297.09 119.303 314.458 119.303C331.826 119.303 377.616 148.25 377.616 148.25C377.616 148.25 422.049 119.257 439.019 119.303C455.8 119.348 499.58 148.25 499.58 148.25C499.58 148.25 458.56 0 248.02 0C37.47 0 0 148.25 0 148.25H0.002Z" fill="black"/>
<path d="M6.00198 142.49C6.00198 142.49 44.761 116.202 61.827 116.098C79.395 115.988 125.862 142.488 125.862 142.488C125.862 142.488 171.651 116.054 189.02 116.096C206.19 116.138 251.3 142.488 251.3 142.488C251.3 142.488 297.09 116.096 314.458 116.096C331.826 116.096 377.608 142.486 377.608 142.486C377.608 142.486 422.041 116.053 439.011 116.094C455.801 116.134 494.581 142.484 494.581 142.484C494.581 142.484 429.671 5.15403 248.021 7.32403C68.331 5.81703 6.00098 142.484 6.00098 142.484L6.00198 142.49Z" fill="white"/>
<path d="M189.502 115.99C205.752 117.24 250.93 143.014 250.93 143.014C250.93 143.014 297.252 116.99 310.603 116.806C310.603 93.8229 289.335 4.15588 248.881 2.52588C211.671 5.16288 189.501 93.6759 189.501 115.996L189.502 115.99Z" fill="#243F8F"/>
<path d="M6.00201 142.49C6.00201 142.49 44.502 115.99 64.002 115.99C78.002 60.49 113.672 7.82003 251.882 3.53003C56.292 3.52603 6.00201 142.49 6.00201 142.49Z" fill="#309445"/>
<path d="M439.022 116.1C456.502 116.49 494.752 143.24 494.752 143.24C494.752 143.24 447.472 3.53003 251.882 3.53003C364.002 12.99 412.002 58.49 439.022 116.1V116.1Z" fill="#ED1F24"/>
<path d="M6.00198 142.49C6.00198 142.49 44.761 116.202 61.827 116.098C79.395 115.988 125.862 142.488 125.862 142.488C125.862 142.488 171.651 116.054 189.02 116.096C206.19 116.138 251.3 142.488 251.3 142.488C251.3 142.488 297.09 116.096 314.458 116.096C331.826 116.096 377.608 142.486 377.608 142.486C377.608 142.486 422.041 116.053 439.011 116.094C455.801 116.134 494.581 142.484 494.581 142.484C494.581 142.484 429.671 5.15403 248.021 7.32403C68.331 5.81703 6.00098 142.484 6.00098 142.484L6.00198 142.49Z" fill="url(#paint0_linear_320_85)"/>
<path d="M259.335 23.823H246.002V445.823H259.335V23.823Z" fill="black"/>
<path d="M256.107 108.49H249.232V443.16H256.107V108.49Z" fill="white"/>
<path d="M3.50201 144.49C3.50201 144.49 48.669 93.8091 78.91 93.8091C95.231 93.8091 138.398 100.015 138.398 100.015C138.398 100.015 180.936 79.7741 197.071 79.8071C213.022 79.8391 254.929 100.015 254.929 100.015C254.929 100.015 297.467 79.8071 313.602 79.8071C329.738 79.8071 372.276 100.015 372.276 100.015C372.276 100.015 413.553 93.8091 429.319 93.8091C460.959 93.8091 494.009 142.489 494.009 142.489C494.009 142.489 447.479 10.5291 251.889 10.5291C56.299 10.5251 3.50901 144.489 3.50901 144.489L3.50201 144.49Z" fill="black"/>
<path d="M6.56403 139.47C6.56403 139.47 48.669 86.8049 78.911 86.8049C95.232 86.8049 138.399 93.0109 138.399 93.0109C138.399 93.0109 180.937 72.7699 197.072 72.8029C213.023 72.8349 254.93 93.0109 254.93 93.0109C254.93 93.0109 297.468 72.8029 313.603 72.8029C329.739 72.8029 372.277 93.0109 372.277 93.0109C372.277 93.0109 413.554 86.8049 429.32 86.8049C460.95 86.8049 493.406 141.224 493.406 141.224C493.406 141.224 447.476 3.52393 251.886 3.52393C56.296 3.51993 6.56603 139.464 6.56603 139.464L6.56403 139.47Z" fill="white"/>
<path d="M6.56397 139.47C6.56397 139.47 48.669 86.805 78.911 86.805C88.336 71.153 113.669 7.81997 251.881 3.52197C56.291 3.52097 6.56097 139.462 6.56097 139.462L6.56397 139.47Z" fill="#309445"/>
<path d="M429.322 86.8101C460.952 86.8101 493.408 141.229 493.408 141.229C493.408 141.229 447.468 3.52905 251.878 3.52905C363.998 12.9891 395.498 43.9891 429.318 86.8091L429.322 86.8101Z" fill="#ED1F24"/>
<path d="M197.072 72.81C213.023 72.842 254.93 93.018 254.93 93.018C254.93 93.018 297.468 72.81 313.603 72.81C313.603 49.827 292.335 5.16103 251.881 3.53003C214.671 6.15703 197.071 50.49 197.071 72.81H197.072Z" fill="#243F8F"/>
<defs>
<linearGradient id="paint0_linear_320_85" x1="250.292" y1="142.49" x2="250.292" y2="7.30803" gradientUnits="userSpaceOnUse">
<stop stop-opacity="0.14"/>
<stop offset="0.681"/>
</linearGradient>
</defs>
</svg>
