<svg width="3331" height="541" viewBox="0 0 3331 541" fill="none" xmlns="http://www.w3.org/2000/svg">
<circle cx="3024" cy="229" r="200" fill="#FA8714"/>
<rect x="2883" y="88" width="282.843" height="282.843" fill="#FB9F43"/>
<rect x="2824.42" y="229.421" width="282.843" height="282.843" transform="rotate(-45 2824.42 229.421)" fill="#FB9F43"/>
<path d="M3258.25 179.932C3238 100.42 3258.25 179.932 3238 100.42C3200 27.6979 3238 100.42 3200 27.6979C3301.51 76.1173 3200 27.6979 3301.51 76.1173C3258.25 179.932 3301.51 76.1173 3258.25 179.932Z" fill="#FA8714" stroke="#FB9F43"/>
<path d="M3049.99 467.002C3128.83 444.263 3049.99 467.002 3128.83 444.263C3200.32 404 3128.83 444.263 3200.32 404C3155.11 506.978 3200.32 404 3155.11 506.978C3049.99 467.002 3155.11 506.978 3049.99 467.002Z" fill="#FA8714" stroke="#FB9F43"/>
<path d="M2867.95 409C2940.54 447.256 2867.95 409 2940.54 447.256C3019.98 467.791 2940.54 447.256 3019.98 467.791C2916.01 510.679 3019.98 467.791 2916.01 510.679C2867.95 409 2916.01 510.679 2867.95 409Z" fill="#FA8714" stroke="#FB9F43"/>
<path d="M3120.99 242C3120.99 269.338 3079.8 314.5 3028.99 314.5C2978.18 314.5 2936.99 269.338 2936.99 242C3028.99 242 2936.99 242 3028.99 242C3120.99 242 3028.99 242 3120.99 242Z" fill="#F5D8BA"/>
<circle cx="2448" cy="229" r="200" fill="#FA8714"/>
<rect x="2307" y="88" width="282.843" height="282.843" fill="#FB9F43"/>
<rect x="2248.42" y="229.421" width="282.843" height="282.843" transform="rotate(-45 2248.42 229.421)" fill="#FB9F43"/>
<rect x="2248.42" y="229.421" width="282.843" height="282.843" transform="rotate(-45 2248.42 229.421)" fill="#FB9F43"/>
<path d="M2653.82 326.258C2686.12 250.833 2653.82 326.258 2686.12 250.833C2700.21 170 2686.12 250.833 2700.21 170C2751.31 270.188 2700.21 170 2751.31 270.188C2653.82 326.258 2751.31 270.188 2653.82 326.258Z" fill="#FA8714" stroke="#FB9F43"/>
<path d="M2473.99 467.002C2552.83 444.263 2473.99 467.002 2552.83 444.263C2624.32 404 2552.83 444.263 2624.32 404C2579.11 506.978 2624.32 404 2579.11 506.978C2473.99 467.002 2579.11 506.978 2473.99 467.002Z" fill="#FA8714" stroke="#FB9F43"/>
<path d="M2291.95 409C2364.54 447.256 2291.95 409 2364.54 447.256C2443.98 467.791 2364.54 447.256 2443.98 467.791C2340.01 510.679 2443.98 467.791 2340.01 510.679C2291.95 409 2340.01 510.679 2291.95 409Z" fill="#FA8714" stroke="#FB9F43"/>
<g opacity="0.45" filter="url(#filter0_f_324_500)">
<path fill-rule="evenodd" clip-rule="evenodd" d="M2749.88 220.326L2772.18 237.2C2773.7 239.194 2773 240.744 2772.14 242.265L2730.05 298.176C2728.35 300.425 2726.53 300.692 2724.65 299.929L2702.53 283.35C2701.05 281.227 2701.59 279.366 2702.9 277.606L2745.07 221.596C2746.49 219.896 2748.14 219.767 2749.88 220.326V220.326Z" fill="black"/>
</g>
<path fill-rule="evenodd" clip-rule="evenodd" d="M2749.57 220.022L2771.87 236.896C2773.39 238.89 2772.69 240.441 2771.83 241.961L2729.74 297.872C2728.04 300.121 2726.22 300.389 2724.33 299.626L2702.22 283.046C2700.74 280.923 2701.27 279.062 2702.59 277.302L2744.76 221.293C2746.18 219.592 2747.83 219.463 2749.57 220.022V220.022Z" fill="#151515"/>
<path d="M2726.56 291.304L2725.42 290.451L2724.64 291.491L2725.77 292.344L2726.56 291.304Z" fill="#B3B3B3"/>
<path d="M2725.44 290.731L2724.91 291.434L2725.75 292.063L2726.28 291.36L2725.44 290.731Z" fill="#333333"/>
<path opacity="0.25" fill-rule="evenodd" clip-rule="evenodd" d="M2749.57 220.022L2771.87 236.896C2773.39 238.89 2772.69 240.441 2771.83 241.961L2729.74 297.872C2728.04 300.121 2726.22 300.389 2724.33 299.626L2702.22 283.046C2700.74 280.923 2701.27 279.062 2702.59 277.302L2744.76 221.293C2746.18 219.592 2747.83 219.463 2749.57 220.022V220.022Z" fill="url(#paint0_radial_324_500)"/>
<path fill-rule="evenodd" clip-rule="evenodd" d="M2702.63 277.242L2702.59 277.302C2701.27 279.062 2700.74 280.923 2702.22 283.046L2724.33 299.626C2726.22 300.389 2728.04 300.121 2729.74 297.872L2729.77 297.83L2702.63 277.242V277.242Z" fill="#090909" stroke="black" stroke-width="0.282222"/>
<path fill-rule="evenodd" clip-rule="evenodd" d="M2709.93 278.909L2709.76 279.149L2710.29 279.55C2710.65 280.051 2710.01 280.807 2709.53 280.64L2708.72 280.047L2708.95 279.729L2709.7 280.257C2709.96 280.304 2710.13 279.926 2710 279.821L2709.55 279.478L2709.37 279.685L2709.25 279.603L2709.24 278.995L2709.81 278.824L2709.93 278.909Z" fill="#B3B3B3"/>
<path d="M2725.98 291.383L2724.84 290.53L2724.06 291.57L2725.19 292.423L2725.98 291.383Z" fill="#B3B3B3"/>
<path d="M2724.86 290.811L2724.34 291.513L2725.17 292.143L2725.7 291.44L2724.86 290.811Z" fill="#333333"/>
<path d="M2717.11 285.149L2718.03 285.844L2717.39 286.695L2716.47 286L2717.11 285.149ZM2716.84 285.045L2718.02 284.863L2718.16 286.06L2716.84 285.045Z" fill="#B3B3B3"/>
<path d="M2718.5 285.237L2718.29 285.082L2717.9 285.6L2718.11 285.755L2718.5 285.237Z" fill="#B3B3B3"/>
<path d="M2717.89 285.032L2717.07 285.228L2717.21 285.336L2716.76 285.933L2717.35 286.379L2717.8 285.789L2717.92 285.881L2717.89 285.032L2717.89 285.032Z" fill="#1A1A1A"/>
<path fill-rule="evenodd" clip-rule="evenodd" d="M2702.61 277.366L2702.56 277.426C2701.24 279.186 2700.71 281.047 2702.19 283.17L2724.3 299.75C2726.19 300.512 2728.01 300.245 2729.71 297.996L2729.74 297.954L2702.61 277.366V277.366Z" fill="url(#paint1_radial_324_500)"/>
<g filter="url(#filter1_f_324_500)">
<path d="M2756.38 228.805L2761.41 232.589C2761.41 232.968 2761.27 233.256 2760.83 233.362L2755.8 229.577C2755.82 229.258 2755.8 228.922 2756.38 228.805Z" fill="black"/>
</g>
<path d="M2756.42 228.866L2761.43 232.635C2761.45 232.983 2761.33 233.239 2760.92 233.31L2755.91 229.54C2755.91 229.249 2755.87 228.939 2756.42 228.866Z" fill="#B3B3B3"/>
<path d="M2766.65 237.834C2766.91 238.03 2767.3 237.957 2767.51 237.671C2767.73 237.385 2767.69 236.994 2767.43 236.799C2767.17 236.603 2766.78 236.676 2766.57 236.962C2766.35 237.248 2766.39 237.639 2766.65 237.834Z" fill="url(#paint2_linear_324_500)"/>
<g opacity="0.98" filter="url(#filter2_f_324_500)">
<path d="M2767.32 236.943C2767.14 236.806 2766.84 236.865 2766.7 237.058C2766.55 237.251 2766.58 237.553 2766.76 237.69C2766.94 237.827 2767.24 237.769 2767.38 237.575C2767.53 237.382 2767.5 237.08 2767.32 236.943Z" fill="#666666"/>
</g>
<g opacity="0.75" filter="url(#filter3_f_324_500)">
<path d="M2767.28 236.948C2767.12 236.829 2766.86 236.88 2766.74 237.047C2766.61 237.215 2766.63 237.477 2766.79 237.596C2766.95 237.715 2767.21 237.664 2767.33 237.496C2767.46 237.328 2767.44 237.066 2767.28 236.948Z" fill="url(#paint3_radial_324_500)"/>
</g>
<g opacity="0.98" filter="url(#filter4_f_324_500)">
<path d="M2756.39 228.907L2756.82 229.234L2756.39 229.81L2755.95 229.482L2756.39 228.907Z" fill="black"/>
</g>
<g opacity="0.98" filter="url(#filter5_f_324_500)">
<path d="M2756.89 229.288L2757.33 229.616L2756.9 230.191L2756.46 229.864L2756.89 229.288Z" fill="black"/>
</g>
<g opacity="0.98" filter="url(#filter6_f_324_500)">
<path d="M2757.4 229.669L2757.84 229.997L2757.4 230.572L2756.97 230.245L2757.4 229.669Z" fill="black"/>
</g>
<g opacity="0.98" filter="url(#filter7_f_324_500)">
<path d="M2757.91 230.051L2758.34 230.379L2757.91 230.954L2757.48 230.627L2757.91 230.051Z" fill="black"/>
</g>
<g opacity="0.98" filter="url(#filter8_f_324_500)">
<path d="M2758.42 230.433L2758.85 230.76L2758.42 231.336L2757.98 231.008L2758.42 230.433Z" fill="black"/>
</g>
<g opacity="0.98" filter="url(#filter9_f_324_500)">
<path d="M2758.92 230.814L2759.36 231.142L2758.93 231.718L2758.49 231.39L2758.92 230.814Z" fill="black"/>
</g>
<g opacity="0.98" filter="url(#filter10_f_324_500)">
<path d="M2759.43 231.196L2759.87 231.523L2759.43 232.099L2759 231.771L2759.43 231.196Z" fill="black"/>
</g>
<g opacity="0.98" filter="url(#filter11_f_324_500)">
<path d="M2759.94 231.577L2760.37 231.905L2759.94 232.48L2759.5 232.153L2759.94 231.577Z" fill="black"/>
</g>
<g opacity="0.98" filter="url(#filter12_f_324_500)">
<path d="M2760.44 231.959L2760.88 232.287L2760.45 232.862L2760.01 232.534L2760.44 231.959Z" fill="black"/>
</g>
<g opacity="0.98" filter="url(#filter13_f_324_500)">
<path d="M2760.95 232.34L2761.39 232.668L2760.95 233.243L2760.52 232.916L2760.95 232.34Z" fill="black"/>
</g>
<g opacity="0.98" filter="url(#filter14_f_324_500)">
<path d="M2756.17 229.05L2761.31 232.916L2761.19 233.067L2756.05 229.201L2756.17 229.05Z" fill="#B3B3B3"/>
</g>
<path fill-rule="evenodd" clip-rule="evenodd" d="M2743.64 226.525L2767.25 244.183L2731.4 291.917L2707.8 274.116L2743.64 226.525Z" fill="#1A1A1A" stroke="#1A1A1A" stroke-width="2.25778"/>
<path fill-rule="evenodd" clip-rule="evenodd" d="M2766.96 244.085L2743.81 226.772C2743.77 226.74 2743.71 226.728 2743.65 226.74C2743.6 226.752 2743.54 226.786 2743.51 226.835L2708.06 273.904C2708.03 273.954 2708.01 274.014 2708.01 274.072C2708.02 274.13 2708.04 274.181 2708.09 274.214L2731.23 291.667C2731.25 291.683 2731.27 291.695 2731.3 291.7C2731.33 291.706 2731.36 291.706 2731.38 291.7C2731.41 291.694 2731.44 291.683 2731.47 291.666C2731.49 291.65 2731.51 291.629 2731.53 291.604L2766.99 244.395C2767.01 244.371 2767.02 244.343 2767.03 244.314C2767.04 244.286 2767.04 244.256 2767.04 244.227C2767.04 244.198 2767.03 244.171 2767.02 244.147C2767 244.122 2766.99 244.101 2766.96 244.085V244.085Z" fill="black"/>
<path opacity="0.35" fill-rule="evenodd" clip-rule="evenodd" d="M2766.96 244.085L2743.81 226.772C2743.77 226.74 2743.71 226.728 2743.65 226.74C2743.6 226.752 2743.54 226.786 2743.51 226.835L2708.06 273.904C2708.03 273.954 2708.01 274.014 2708.01 274.072C2708.02 274.13 2708.04 274.181 2708.09 274.214L2731.23 291.667C2731.25 291.683 2731.27 291.695 2731.3 291.7C2731.33 291.706 2731.36 291.706 2731.38 291.7C2731.41 291.694 2731.44 291.683 2731.47 291.666C2731.49 291.65 2731.51 291.629 2731.53 291.604L2766.99 244.395C2767.01 244.371 2767.02 244.343 2767.03 244.314C2767.04 244.286 2767.04 244.256 2767.04 244.227C2767.04 244.198 2767.03 244.171 2767.02 244.147C2767 244.122 2766.99 244.101 2766.96 244.085V244.085Z" fill="url(#paint4_linear_324_500)"/>
<path opacity="0.25" fill-rule="evenodd" clip-rule="evenodd" d="M2705.6 273.304L2702.62 277.258L2729.74 297.868L2732.7 293.941L2705.6 273.304V273.304Z" fill="url(#paint5_linear_324_500)"/>
<path d="M2576.32 152.5C2576.32 162.372 2570.62 171.36 2561.3 177.9C2551.99 184.439 2539.09 188.5 2524.82 188.5C2510.55 188.5 2497.65 184.439 2488.34 177.9C2479.02 171.36 2473.32 162.372 2473.32 152.5C2473.32 142.628 2479.02 133.64 2488.34 127.1C2497.65 120.561 2510.55 116.5 2524.82 116.5C2539.09 116.5 2551.99 120.561 2561.3 127.1C2570.62 133.64 2576.32 142.628 2576.32 152.5Z" fill="white" stroke="white"/>
<ellipse cx="2538.82" cy="162.5" rx="27" ry="17.5" fill="#19D659"/>
<path d="M2437.32 152.5C2437.32 162.372 2431.62 171.36 2422.3 177.9C2412.99 184.439 2400.09 188.5 2385.82 188.5C2371.55 188.5 2358.65 184.439 2349.34 177.9C2340.02 171.36 2334.32 162.372 2334.32 152.5C2334.32 142.628 2340.02 133.64 2349.34 127.1C2358.65 120.561 2371.55 116.5 2385.82 116.5C2400.09 116.5 2412.99 120.561 2422.3 127.1C2431.62 133.64 2437.32 142.628 2437.32 152.5Z" fill="white" stroke="white"/>
<ellipse cx="2399.82" cy="162.5" rx="27" ry="17.5" fill="#19D659"/>
<rect x="2399.82" y="276" width="102" height="13" fill="#F5D8BA"/>
<circle cx="1886" cy="229" r="200" fill="#FA8714"/>
<rect x="1745" y="88" width="282.843" height="282.843" fill="#FB9F43"/>
<rect x="1686.42" y="229.421" width="282.843" height="282.843" transform="rotate(-45 1686.42 229.421)" fill="#FB9F43"/>
<rect x="1686.42" y="229.421" width="282.843" height="282.843" transform="rotate(-45 1686.42 229.421)" fill="#FB9F43"/>
<path d="M2091.82 326.258C2124.12 250.833 2091.82 326.258 2124.12 250.833C2138.21 170 2124.12 250.833 2138.21 170C2189.31 270.188 2138.21 170 2189.31 270.188C2091.82 326.258 2189.31 270.188 2091.82 326.258Z" fill="#FA8714" stroke="#FB9F43"/>
<path d="M1911.99 467.002C1990.83 444.263 1911.99 467.002 1990.83 444.263C2062.32 404 1990.83 444.263 2062.32 404C2017.11 506.978 2062.32 404 2017.11 506.978C1911.99 467.002 2017.11 506.978 1911.99 467.002Z" fill="#FA8714" stroke="#FB9F43"/>
<path d="M1729.95 409C1802.54 447.256 1729.95 409 1802.54 447.256C1881.98 467.791 1802.54 447.256 1881.98 467.791C1778.01 510.679 1881.98 467.791 1778.01 510.679C1729.95 409 1778.01 510.679 1729.95 409Z" fill="#FA8714" stroke="#FB9F43"/>
<g opacity="0.45" filter="url(#filter15_f_324_500)">
<path fill-rule="evenodd" clip-rule="evenodd" d="M2187.88 220.326L2210.18 237.2C2211.7 239.194 2211 240.744 2210.14 242.265L2168.05 298.176C2166.35 300.425 2164.53 300.692 2162.65 299.929L2140.53 283.35C2139.05 281.227 2139.59 279.366 2140.9 277.606L2183.07 221.596C2184.49 219.896 2186.14 219.767 2187.88 220.326V220.326Z" fill="black"/>
</g>
<path fill-rule="evenodd" clip-rule="evenodd" d="M2187.57 220.022L2209.87 236.896C2211.39 238.89 2210.69 240.441 2209.83 241.961L2167.74 297.872C2166.04 300.121 2164.22 300.389 2162.33 299.626L2140.22 283.046C2138.74 280.923 2139.27 279.062 2140.59 277.302L2182.76 221.293C2184.18 219.592 2185.83 219.463 2187.57 220.022V220.022Z" fill="#151515"/>
<path d="M2164.56 291.304L2163.42 290.451L2162.64 291.491L2163.77 292.344L2164.56 291.304Z" fill="#B3B3B3"/>
<path d="M2163.44 290.731L2162.91 291.434L2163.75 292.063L2164.28 291.36L2163.44 290.731Z" fill="#333333"/>
<path opacity="0.25" fill-rule="evenodd" clip-rule="evenodd" d="M2187.57 220.022L2209.87 236.896C2211.39 238.89 2210.69 240.441 2209.83 241.961L2167.74 297.872C2166.04 300.121 2164.22 300.389 2162.33 299.626L2140.22 283.046C2138.74 280.923 2139.27 279.062 2140.59 277.302L2182.76 221.293C2184.18 219.592 2185.83 219.463 2187.57 220.022V220.022Z" fill="url(#paint6_radial_324_500)"/>
<path fill-rule="evenodd" clip-rule="evenodd" d="M2140.63 277.242L2140.59 277.302C2139.27 279.062 2138.74 280.923 2140.22 283.046L2162.33 299.626C2164.22 300.389 2166.04 300.121 2167.74 297.872L2167.77 297.83L2140.63 277.242V277.242Z" fill="#090909" stroke="black" stroke-width="0.282222"/>
<path fill-rule="evenodd" clip-rule="evenodd" d="M2147.93 278.909L2147.76 279.149L2148.29 279.55C2148.65 280.051 2148.01 280.807 2147.53 280.64L2146.72 280.047L2146.95 279.729L2147.7 280.257C2147.96 280.304 2148.13 279.926 2148 279.821L2147.55 279.478L2147.37 279.685L2147.25 279.603L2147.24 278.995L2147.81 278.824L2147.93 278.909Z" fill="#B3B3B3"/>
<path d="M2163.98 291.383L2162.84 290.53L2162.06 291.57L2163.19 292.423L2163.98 291.383Z" fill="#B3B3B3"/>
<path d="M2162.86 290.811L2162.34 291.513L2163.17 292.143L2163.7 291.44L2162.86 290.811Z" fill="#333333"/>
<path d="M2155.11 285.149L2156.03 285.844L2155.39 286.695L2154.47 286L2155.11 285.149ZM2154.84 285.045L2156.03 284.863L2156.16 286.06L2154.84 285.045Z" fill="#B3B3B3"/>
<path d="M2156.5 285.237L2156.29 285.082L2155.9 285.6L2156.11 285.755L2156.5 285.237Z" fill="#B3B3B3"/>
<path d="M2155.89 285.032L2155.07 285.228L2155.21 285.336L2154.76 285.933L2155.35 286.379L2155.8 285.789L2155.92 285.881L2155.89 285.032L2155.89 285.032Z" fill="#1A1A1A"/>
<path fill-rule="evenodd" clip-rule="evenodd" d="M2140.61 277.366L2140.56 277.426C2139.24 279.186 2138.71 281.047 2140.19 283.17L2162.3 299.75C2164.19 300.512 2166.01 300.245 2167.71 297.996L2167.74 297.954L2140.61 277.366V277.366Z" fill="url(#paint7_radial_324_500)"/>
<g filter="url(#filter16_f_324_500)">
<path d="M2194.38 228.805L2199.41 232.589C2199.41 232.968 2199.27 233.256 2198.83 233.362L2193.8 229.577C2193.82 229.258 2193.8 228.922 2194.38 228.805Z" fill="black"/>
</g>
<path d="M2194.42 228.866L2199.43 232.635C2199.45 232.983 2199.33 233.239 2198.92 233.31L2193.91 229.54C2193.91 229.249 2193.87 228.939 2194.42 228.866Z" fill="#B3B3B3"/>
<path d="M2204.65 237.834C2204.91 238.03 2205.3 237.957 2205.51 237.671C2205.73 237.385 2205.69 236.994 2205.43 236.799C2205.17 236.603 2204.78 236.676 2204.57 236.962C2204.35 237.248 2204.39 237.639 2204.65 237.834Z" fill="url(#paint8_linear_324_500)"/>
<g opacity="0.98" filter="url(#filter17_f_324_500)">
<path d="M2205.32 236.943C2205.14 236.806 2204.84 236.865 2204.7 237.058C2204.55 237.251 2204.58 237.553 2204.76 237.69C2204.94 237.827 2205.24 237.769 2205.38 237.575C2205.53 237.382 2205.5 237.08 2205.32 236.943Z" fill="#666666"/>
</g>
<g opacity="0.75" filter="url(#filter18_f_324_500)">
<path d="M2205.28 236.948C2205.12 236.829 2204.86 236.88 2204.74 237.047C2204.61 237.215 2204.63 237.477 2204.79 237.596C2204.95 237.715 2205.21 237.664 2205.33 237.496C2205.46 237.328 2205.44 237.066 2205.28 236.948Z" fill="url(#paint9_radial_324_500)"/>
</g>
<g opacity="0.98" filter="url(#filter19_f_324_500)">
<path d="M2194.39 228.907L2194.82 229.234L2194.39 229.81L2193.95 229.482L2194.39 228.907Z" fill="black"/>
</g>
<g opacity="0.98" filter="url(#filter20_f_324_500)">
<path d="M2194.89 229.288L2195.33 229.616L2194.9 230.191L2194.46 229.864L2194.89 229.288Z" fill="black"/>
</g>
<g opacity="0.98" filter="url(#filter21_f_324_500)">
<path d="M2195.4 229.669L2195.84 229.997L2195.4 230.572L2194.97 230.245L2195.4 229.669Z" fill="black"/>
</g>
<g opacity="0.98" filter="url(#filter22_f_324_500)">
<path d="M2195.91 230.051L2196.34 230.379L2195.91 230.954L2195.48 230.627L2195.91 230.051Z" fill="black"/>
</g>
<g opacity="0.98" filter="url(#filter23_f_324_500)">
<path d="M2196.42 230.433L2196.85 230.76L2196.42 231.336L2195.98 231.008L2196.42 230.433Z" fill="black"/>
</g>
<g opacity="0.98" filter="url(#filter24_f_324_500)">
<path d="M2196.92 230.814L2197.36 231.142L2196.93 231.718L2196.49 231.39L2196.92 230.814Z" fill="black"/>
</g>
<g opacity="0.98" filter="url(#filter25_f_324_500)">
<path d="M2197.43 231.196L2197.87 231.523L2197.43 232.099L2197 231.771L2197.43 231.196Z" fill="black"/>
</g>
<g opacity="0.98" filter="url(#filter26_f_324_500)">
<path d="M2197.94 231.577L2198.37 231.905L2197.94 232.48L2197.5 232.153L2197.94 231.577Z" fill="black"/>
</g>
<g opacity="0.98" filter="url(#filter27_f_324_500)">
<path d="M2198.44 231.959L2198.88 232.287L2198.45 232.862L2198.01 232.534L2198.44 231.959Z" fill="black"/>
</g>
<g opacity="0.98" filter="url(#filter28_f_324_500)">
<path d="M2198.95 232.34L2199.39 232.668L2198.95 233.243L2198.52 232.916L2198.95 232.34Z" fill="black"/>
</g>
<g opacity="0.98" filter="url(#filter29_f_324_500)">
<path d="M2194.17 229.05L2199.31 232.916L2199.19 233.067L2194.05 229.201L2194.17 229.05Z" fill="#B3B3B3"/>
</g>
<path fill-rule="evenodd" clip-rule="evenodd" d="M2181.64 226.525L2205.25 244.183L2169.4 291.917L2145.8 274.116L2181.64 226.525Z" fill="#1A1A1A" stroke="#1A1A1A" stroke-width="2.25778"/>
<path fill-rule="evenodd" clip-rule="evenodd" d="M2204.96 244.085L2181.81 226.772C2181.77 226.74 2181.71 226.728 2181.65 226.74C2181.6 226.752 2181.54 226.786 2181.51 226.835L2146.06 273.904C2146.03 273.954 2146.01 274.014 2146.01 274.072C2146.02 274.13 2146.04 274.181 2146.09 274.214L2169.23 291.667C2169.25 291.683 2169.27 291.695 2169.3 291.7C2169.33 291.706 2169.36 291.706 2169.38 291.7C2169.41 291.694 2169.44 291.683 2169.47 291.666C2169.49 291.65 2169.51 291.629 2169.53 291.604L2204.99 244.395C2205.01 244.371 2205.02 244.343 2205.03 244.314C2205.04 244.286 2205.04 244.256 2205.04 244.227C2205.04 244.198 2205.03 244.171 2205.02 244.147C2205 244.122 2204.99 244.101 2204.96 244.085V244.085Z" fill="black"/>
<path opacity="0.35" fill-rule="evenodd" clip-rule="evenodd" d="M2204.96 244.085L2181.81 226.772C2181.77 226.74 2181.71 226.728 2181.65 226.74C2181.6 226.752 2181.54 226.786 2181.51 226.835L2146.06 273.904C2146.03 273.954 2146.01 274.014 2146.01 274.072C2146.02 274.13 2146.04 274.181 2146.09 274.214L2169.23 291.667C2169.25 291.683 2169.27 291.695 2169.3 291.7C2169.33 291.706 2169.36 291.706 2169.38 291.7C2169.41 291.694 2169.44 291.683 2169.47 291.666C2169.49 291.65 2169.51 291.629 2169.53 291.604L2204.99 244.395C2205.01 244.371 2205.02 244.343 2205.03 244.314C2205.04 244.286 2205.04 244.256 2205.04 244.227C2205.04 244.198 2205.03 244.171 2205.02 244.147C2205 244.122 2204.99 244.101 2204.96 244.085V244.085Z" fill="url(#paint10_linear_324_500)"/>
<path opacity="0.25" fill-rule="evenodd" clip-rule="evenodd" d="M2143.6 273.304L2140.62 277.258L2167.74 297.868L2170.7 293.941L2143.6 273.304V273.304Z" fill="url(#paint11_linear_324_500)"/>
<path d="M2014.32 152.5C2014.32 162.372 2008.62 171.36 1999.3 177.9C1989.99 184.439 1977.09 188.5 1962.82 188.5C1948.55 188.5 1935.65 184.439 1926.34 177.9C1917.02 171.36 1911.32 162.372 1911.32 152.5C1911.32 142.628 1917.02 133.64 1926.34 127.1C1935.65 120.561 1948.55 116.5 1962.82 116.5C1977.09 116.5 1989.99 120.561 1999.3 127.1C2008.62 133.64 2014.32 142.628 2014.32 152.5Z" fill="white" stroke="white"/>
<ellipse cx="1976.82" cy="162.5" rx="27" ry="17.5" fill="#19D659"/>
<path d="M1875.32 152.5C1875.32 162.372 1869.62 171.36 1860.3 177.9C1850.99 184.439 1838.09 188.5 1823.82 188.5C1809.55 188.5 1796.65 184.439 1787.34 177.9C1778.02 171.36 1772.32 162.372 1772.32 152.5C1772.32 142.628 1778.02 133.64 1787.34 127.1C1796.65 120.561 1809.55 116.5 1823.82 116.5C1838.09 116.5 1850.99 120.561 1860.3 127.1C1869.62 133.64 1875.32 142.628 1875.32 152.5Z" fill="white" stroke="white"/>
<ellipse cx="1837.82" cy="162.5" rx="27" ry="17.5" fill="#19D659"/>
<rect x="1837.82" y="276" width="102" height="13" fill="#F5D8BA"/>
<circle cx="1324" cy="229" r="200" fill="#FA8714"/>
<rect x="1183" y="88" width="282.843" height="282.843" fill="#FB9F43"/>
<rect x="1124.42" y="229.421" width="282.843" height="282.843" transform="rotate(-45 1124.42 229.421)" fill="#FB9F43"/>
<rect x="1124.42" y="229.421" width="282.843" height="282.843" transform="rotate(-45 1124.42 229.421)" fill="#FB9F43"/>
<path d="M1529.82 326.258C1562.12 250.833 1529.82 326.258 1562.12 250.833C1576.21 170 1562.12 250.833 1576.21 170C1627.31 270.188 1576.21 170 1627.31 270.188C1529.82 326.258 1627.31 270.188 1529.82 326.258Z" fill="#FA8714" stroke="#FB9F43"/>
<path d="M1349.99 467.002C1428.83 444.263 1349.99 467.002 1428.83 444.263C1500.32 404 1428.83 444.263 1500.32 404C1455.11 506.978 1500.32 404 1455.11 506.978C1349.99 467.002 1455.11 506.978 1349.99 467.002Z" fill="#FA8714" stroke="#FB9F43"/>
<path d="M1167.95 409C1240.54 447.256 1167.95 409 1240.54 447.256C1319.98 467.791 1240.54 447.256 1319.98 467.791C1216.01 510.679 1319.98 467.791 1216.01 510.679C1167.95 409 1216.01 510.679 1167.95 409Z" fill="#FA8714" stroke="#FB9F43"/>
<g opacity="0.45" filter="url(#filter30_f_324_500)">
<path fill-rule="evenodd" clip-rule="evenodd" d="M1625.88 220.326L1648.18 237.2C1649.7 239.194 1649 240.744 1648.14 242.265L1606.05 298.176C1604.35 300.425 1602.53 300.692 1600.65 299.929L1578.53 283.35C1577.05 281.227 1577.59 279.366 1578.9 277.606L1621.07 221.596C1622.49 219.896 1624.14 219.767 1625.88 220.326V220.326Z" fill="black"/>
</g>
<path fill-rule="evenodd" clip-rule="evenodd" d="M1625.57 220.022L1647.87 236.896C1649.39 238.89 1648.69 240.441 1647.83 241.961L1605.74 297.872C1604.04 300.121 1602.22 300.389 1600.33 299.626L1578.22 283.046C1576.74 280.923 1577.27 279.062 1578.59 277.302L1620.76 221.293C1622.18 219.592 1623.83 219.463 1625.57 220.022V220.022Z" fill="#151515"/>
<path d="M1602.56 291.304L1601.42 290.451L1600.64 291.491L1601.77 292.344L1602.56 291.304Z" fill="#B3B3B3"/>
<path d="M1601.44 290.731L1600.91 291.434L1601.75 292.063L1602.28 291.36L1601.44 290.731Z" fill="#333333"/>
<path opacity="0.25" fill-rule="evenodd" clip-rule="evenodd" d="M1625.57 220.022L1647.87 236.896C1649.39 238.89 1648.69 240.441 1647.83 241.961L1605.74 297.872C1604.04 300.121 1602.22 300.389 1600.33 299.626L1578.22 283.046C1576.74 280.923 1577.27 279.062 1578.59 277.302L1620.76 221.293C1622.18 219.592 1623.83 219.463 1625.57 220.022V220.022Z" fill="url(#paint12_radial_324_500)"/>
<path fill-rule="evenodd" clip-rule="evenodd" d="M1578.63 277.242L1578.59 277.302C1577.27 279.062 1576.74 280.923 1578.22 283.046L1600.33 299.626C1602.22 300.389 1604.04 300.121 1605.74 297.872L1605.77 297.83L1578.63 277.242V277.242Z" fill="#090909" stroke="black" stroke-width="0.282222"/>
<path fill-rule="evenodd" clip-rule="evenodd" d="M1585.93 278.909L1585.76 279.149L1586.29 279.55C1586.65 280.051 1586.01 280.807 1585.53 280.64L1584.72 280.047L1584.95 279.729L1585.7 280.257C1585.96 280.304 1586.13 279.926 1586 279.821L1585.55 279.478L1585.37 279.685L1585.25 279.603L1585.24 278.995L1585.81 278.824L1585.93 278.909Z" fill="#B3B3B3"/>
<path d="M1601.98 291.383L1600.84 290.53L1600.06 291.57L1601.19 292.423L1601.98 291.383Z" fill="#B3B3B3"/>
<path d="M1600.86 290.811L1600.34 291.513L1601.17 292.143L1601.7 291.44L1600.86 290.811Z" fill="#333333"/>
<path d="M1593.11 285.149L1594.03 285.844L1593.39 286.695L1592.47 286L1593.11 285.149ZM1592.84 285.045L1594.03 284.863L1594.16 286.06L1592.84 285.045Z" fill="#B3B3B3"/>
<path d="M1594.5 285.237L1594.29 285.082L1593.9 285.6L1594.11 285.755L1594.5 285.237Z" fill="#B3B3B3"/>
<path d="M1593.89 285.032L1593.07 285.228L1593.21 285.336L1592.76 285.933L1593.35 286.379L1593.8 285.789L1593.92 285.881L1593.89 285.032L1593.89 285.032Z" fill="#1A1A1A"/>
<path fill-rule="evenodd" clip-rule="evenodd" d="M1578.61 277.366L1578.56 277.426C1577.24 279.186 1576.71 281.047 1578.19 283.17L1600.3 299.75C1602.19 300.512 1604.01 300.245 1605.71 297.996L1605.74 297.954L1578.61 277.366V277.366Z" fill="url(#paint13_radial_324_500)"/>
<g filter="url(#filter31_f_324_500)">
<path d="M1632.38 228.805L1637.41 232.589C1637.41 232.968 1637.27 233.256 1636.83 233.362L1631.8 229.577C1631.82 229.258 1631.8 228.922 1632.38 228.805Z" fill="black"/>
</g>
<path d="M1632.42 228.866L1637.43 232.635C1637.45 232.983 1637.33 233.239 1636.92 233.31L1631.91 229.54C1631.91 229.249 1631.87 228.939 1632.42 228.866Z" fill="#B3B3B3"/>
<path d="M1642.65 237.834C1642.91 238.03 1643.3 237.957 1643.51 237.671C1643.73 237.385 1643.69 236.994 1643.43 236.799C1643.17 236.603 1642.78 236.676 1642.57 236.962C1642.35 237.248 1642.39 237.639 1642.65 237.834Z" fill="url(#paint14_linear_324_500)"/>
<g opacity="0.98" filter="url(#filter32_f_324_500)">
<path d="M1643.32 236.943C1643.14 236.806 1642.84 236.865 1642.7 237.058C1642.55 237.251 1642.58 237.553 1642.76 237.69C1642.94 237.827 1643.24 237.769 1643.38 237.575C1643.53 237.382 1643.5 237.08 1643.32 236.943Z" fill="#666666"/>
</g>
<g opacity="0.75" filter="url(#filter33_f_324_500)">
<path d="M1643.28 236.948C1643.12 236.829 1642.86 236.88 1642.74 237.047C1642.61 237.215 1642.63 237.477 1642.79 237.596C1642.95 237.715 1643.21 237.664 1643.33 237.496C1643.46 237.328 1643.44 237.066 1643.28 236.948Z" fill="url(#paint15_radial_324_500)"/>
</g>
<g opacity="0.98" filter="url(#filter34_f_324_500)">
<path d="M1632.39 228.907L1632.82 229.234L1632.39 229.81L1631.95 229.482L1632.39 228.907Z" fill="black"/>
</g>
<g opacity="0.98" filter="url(#filter35_f_324_500)">
<path d="M1632.89 229.288L1633.33 229.616L1632.9 230.191L1632.46 229.864L1632.89 229.288Z" fill="black"/>
</g>
<g opacity="0.98" filter="url(#filter36_f_324_500)">
<path d="M1633.4 229.669L1633.84 229.997L1633.4 230.572L1632.97 230.245L1633.4 229.669Z" fill="black"/>
</g>
<g opacity="0.98" filter="url(#filter37_f_324_500)">
<path d="M1633.91 230.051L1634.34 230.379L1633.91 230.954L1633.48 230.627L1633.91 230.051Z" fill="black"/>
</g>
<g opacity="0.98" filter="url(#filter38_f_324_500)">
<path d="M1634.42 230.433L1634.85 230.76L1634.42 231.336L1633.98 231.008L1634.42 230.433Z" fill="black"/>
</g>
<g opacity="0.98" filter="url(#filter39_f_324_500)">
<path d="M1634.92 230.814L1635.36 231.142L1634.93 231.718L1634.49 231.39L1634.92 230.814Z" fill="black"/>
</g>
<g opacity="0.98" filter="url(#filter40_f_324_500)">
<path d="M1635.43 231.196L1635.87 231.523L1635.43 232.099L1635 231.771L1635.43 231.196Z" fill="black"/>
</g>
<g opacity="0.98" filter="url(#filter41_f_324_500)">
<path d="M1635.94 231.577L1636.37 231.905L1635.94 232.48L1635.5 232.153L1635.94 231.577Z" fill="black"/>
</g>
<g opacity="0.98" filter="url(#filter42_f_324_500)">
<path d="M1636.44 231.959L1636.88 232.287L1636.45 232.862L1636.01 232.534L1636.44 231.959Z" fill="black"/>
</g>
<g opacity="0.98" filter="url(#filter43_f_324_500)">
<path d="M1636.95 232.34L1637.39 232.668L1636.95 233.243L1636.52 232.916L1636.95 232.34Z" fill="black"/>
</g>
<g opacity="0.98" filter="url(#filter44_f_324_500)">
<path d="M1632.17 229.05L1637.31 232.916L1637.19 233.067L1632.05 229.201L1632.17 229.05Z" fill="#B3B3B3"/>
</g>
<path fill-rule="evenodd" clip-rule="evenodd" d="M1619.64 226.525L1643.25 244.183L1607.4 291.917L1583.8 274.116L1619.64 226.525Z" fill="#1A1A1A" stroke="#1A1A1A" stroke-width="2.25778"/>
<path fill-rule="evenodd" clip-rule="evenodd" d="M1642.96 244.085L1619.81 226.772C1619.77 226.74 1619.71 226.728 1619.65 226.74C1619.6 226.752 1619.54 226.786 1619.51 226.835L1584.06 273.904C1584.03 273.954 1584.01 274.014 1584.01 274.072C1584.02 274.13 1584.04 274.181 1584.09 274.214L1607.23 291.667C1607.25 291.683 1607.27 291.695 1607.3 291.7C1607.33 291.706 1607.36 291.706 1607.38 291.7C1607.41 291.694 1607.44 291.683 1607.47 291.666C1607.49 291.65 1607.51 291.629 1607.53 291.604L1642.99 244.395C1643.01 244.371 1643.02 244.343 1643.03 244.314C1643.04 244.286 1643.04 244.256 1643.04 244.227C1643.04 244.198 1643.03 244.171 1643.02 244.147C1643 244.122 1642.99 244.101 1642.96 244.085V244.085Z" fill="black"/>
<path opacity="0.35" fill-rule="evenodd" clip-rule="evenodd" d="M1642.96 244.085L1619.81 226.772C1619.77 226.74 1619.71 226.728 1619.65 226.74C1619.6 226.752 1619.54 226.786 1619.51 226.835L1584.06 273.904C1584.03 273.954 1584.01 274.014 1584.01 274.072C1584.02 274.13 1584.04 274.181 1584.09 274.214L1607.23 291.667C1607.25 291.683 1607.27 291.695 1607.3 291.7C1607.33 291.706 1607.36 291.706 1607.38 291.7C1607.41 291.694 1607.44 291.683 1607.47 291.666C1607.49 291.65 1607.51 291.629 1607.53 291.604L1642.99 244.395C1643.01 244.371 1643.02 244.343 1643.03 244.314C1643.04 244.286 1643.04 244.256 1643.04 244.227C1643.04 244.198 1643.03 244.171 1643.02 244.147C1643 244.122 1642.99 244.101 1642.96 244.085V244.085Z" fill="url(#paint16_linear_324_500)"/>
<path opacity="0.25" fill-rule="evenodd" clip-rule="evenodd" d="M1581.6 273.304L1578.62 277.258L1605.74 297.868L1608.7 293.941L1581.6 273.304V273.304Z" fill="url(#paint17_linear_324_500)"/>
<path d="M1452.32 152.5C1452.32 162.372 1446.62 171.36 1437.3 177.9C1427.99 184.439 1415.09 188.5 1400.82 188.5C1386.55 188.5 1373.65 184.439 1364.34 177.9C1355.02 171.36 1349.32 162.372 1349.32 152.5C1349.32 142.628 1355.02 133.64 1364.34 127.1C1373.65 120.561 1386.55 116.5 1400.82 116.5C1415.09 116.5 1427.99 120.561 1437.3 127.1C1446.62 133.64 1452.32 142.628 1452.32 152.5Z" fill="white" stroke="white"/>
<ellipse cx="1414.82" cy="162.5" rx="27" ry="17.5" fill="#19D659"/>
<path d="M1313.32 152.5C1313.32 162.372 1307.62 171.36 1298.3 177.9C1288.99 184.439 1276.09 188.5 1261.82 188.5C1247.55 188.5 1234.65 184.439 1225.34 177.9C1216.02 171.36 1210.32 162.372 1210.32 152.5C1210.32 142.628 1216.02 133.64 1225.34 127.1C1234.65 120.561 1247.55 116.5 1261.82 116.5C1276.09 116.5 1288.99 120.561 1298.3 127.1C1307.62 133.64 1313.32 142.628 1313.32 152.5Z" fill="white" stroke="white"/>
<ellipse cx="1275.82" cy="162.5" rx="27" ry="17.5" fill="#19D659"/>
<rect x="1275.82" y="276" width="102" height="13" fill="#F5D8BA"/>
<circle cx="762" cy="229" r="200" fill="#FA8714"/>
<rect x="621" y="88" width="282.843" height="282.843" fill="#FB9F43"/>
<rect x="562.421" y="229.421" width="282.843" height="282.843" transform="rotate(-45 562.421 229.421)" fill="#FB9F43"/>
<rect x="562.421" y="229.421" width="282.843" height="282.843" transform="rotate(-45 562.421 229.421)" fill="#FB9F43"/>
<path d="M967.819 326.258C1000.12 250.833 967.819 326.258 1000.12 250.833C1014.21 170 1000.12 250.833 1014.21 170C1065.31 270.188 1014.21 170 1065.31 270.188C967.819 326.258 1065.31 270.188 967.819 326.258Z" fill="#FA8714" stroke="#FB9F43"/>
<path d="M787.989 467.002C866.827 444.263 787.989 467.002 866.827 444.263C938.321 404 866.827 444.263 938.321 404C893.11 506.978 938.321 404 893.11 506.978C787.989 467.002 893.11 506.978 787.989 467.002Z" fill="#FA8714" stroke="#FB9F43"/>
<path d="M605.953 409C678.54 447.256 605.953 409 678.54 447.256C757.981 467.791 678.54 447.256 757.981 467.791C654.014 510.679 757.981 467.791 654.014 510.679C605.953 409 654.014 510.679 605.953 409Z" fill="#FA8714" stroke="#FB9F43"/>
<g opacity="0.45" filter="url(#filter45_f_324_500)">
<path fill-rule="evenodd" clip-rule="evenodd" d="M1063.88 220.326L1086.18 237.2C1087.7 239.194 1087 240.744 1086.14 242.265L1044.05 298.176C1042.35 300.425 1040.53 300.692 1038.65 299.929L1016.53 283.35C1015.05 281.227 1015.59 279.366 1016.9 277.606L1059.07 221.596C1060.49 219.896 1062.14 219.767 1063.88 220.326V220.326Z" fill="black"/>
</g>
<path fill-rule="evenodd" clip-rule="evenodd" d="M1063.57 220.022L1085.87 236.896C1087.39 238.89 1086.69 240.441 1085.83 241.961L1043.74 297.872C1042.04 300.121 1040.22 300.389 1038.33 299.626L1016.22 283.046C1014.74 280.923 1015.27 279.062 1016.59 277.302L1058.76 221.293C1060.18 219.592 1061.83 219.463 1063.57 220.022V220.022Z" fill="#151515"/>
<path d="M1040.56 291.304L1039.42 290.451L1038.64 291.491L1039.77 292.344L1040.56 291.304Z" fill="#B3B3B3"/>
<path d="M1039.44 290.731L1038.91 291.434L1039.75 292.063L1040.28 291.36L1039.44 290.731Z" fill="#333333"/>
<path opacity="0.25" fill-rule="evenodd" clip-rule="evenodd" d="M1063.57 220.022L1085.87 236.896C1087.39 238.89 1086.69 240.441 1085.83 241.961L1043.74 297.872C1042.04 300.121 1040.22 300.389 1038.33 299.626L1016.22 283.046C1014.74 280.923 1015.27 279.062 1016.59 277.302L1058.76 221.293C1060.18 219.592 1061.83 219.463 1063.57 220.022V220.022Z" fill="url(#paint18_radial_324_500)"/>
<path fill-rule="evenodd" clip-rule="evenodd" d="M1016.63 277.242L1016.59 277.302C1015.27 279.062 1014.74 280.923 1016.22 283.046L1038.33 299.626C1040.22 300.389 1042.04 300.121 1043.74 297.872L1043.77 297.83L1016.63 277.242V277.242Z" fill="#090909" stroke="black" stroke-width="0.282222"/>
<path fill-rule="evenodd" clip-rule="evenodd" d="M1023.93 278.909L1023.76 279.149L1024.29 279.55C1024.65 280.051 1024.01 280.807 1023.53 280.64L1022.72 280.047L1022.95 279.729L1023.7 280.257C1023.96 280.304 1024.13 279.926 1024 279.821L1023.55 279.478L1023.37 279.685L1023.25 279.603L1023.24 278.995L1023.81 278.824L1023.93 278.909Z" fill="#B3B3B3"/>
<path d="M1039.98 291.383L1038.84 290.53L1038.06 291.57L1039.19 292.423L1039.98 291.383Z" fill="#B3B3B3"/>
<path d="M1038.86 290.811L1038.34 291.513L1039.17 292.143L1039.7 291.44L1038.86 290.811Z" fill="#333333"/>
<path d="M1031.11 285.149L1032.03 285.844L1031.39 286.695L1030.47 286L1031.11 285.149ZM1030.84 285.045L1032.03 284.863L1032.16 286.06L1030.84 285.045Z" fill="#B3B3B3"/>
<path d="M1032.5 285.237L1032.29 285.082L1031.9 285.6L1032.11 285.755L1032.5 285.237Z" fill="#B3B3B3"/>
<path d="M1031.89 285.032L1031.07 285.228L1031.21 285.336L1030.76 285.933L1031.35 286.379L1031.8 285.789L1031.92 285.881L1031.89 285.032L1031.89 285.032Z" fill="#1A1A1A"/>
<path fill-rule="evenodd" clip-rule="evenodd" d="M1016.61 277.366L1016.56 277.426C1015.24 279.186 1014.71 281.047 1016.19 283.17L1038.3 299.75C1040.19 300.512 1042.01 300.245 1043.71 297.996L1043.74 297.954L1016.61 277.366V277.366Z" fill="url(#paint19_radial_324_500)"/>
<g filter="url(#filter46_f_324_500)">
<path d="M1070.38 228.805L1075.41 232.589C1075.41 232.968 1075.27 233.256 1074.83 233.362L1069.8 229.577C1069.82 229.258 1069.8 228.922 1070.38 228.805Z" fill="black"/>
</g>
<path d="M1070.42 228.866L1075.43 232.635C1075.45 232.983 1075.33 233.239 1074.92 233.31L1069.91 229.54C1069.91 229.249 1069.87 228.939 1070.42 228.866Z" fill="#B3B3B3"/>
<path d="M1080.65 237.834C1080.91 238.03 1081.3 237.957 1081.51 237.671C1081.73 237.385 1081.69 236.994 1081.43 236.799C1081.17 236.603 1080.78 236.676 1080.57 236.962C1080.35 237.248 1080.39 237.639 1080.65 237.834Z" fill="url(#paint20_linear_324_500)"/>
<g opacity="0.98" filter="url(#filter47_f_324_500)">
<path d="M1081.32 236.943C1081.14 236.806 1080.84 236.865 1080.7 237.058C1080.55 237.251 1080.58 237.553 1080.76 237.69C1080.94 237.827 1081.24 237.769 1081.38 237.575C1081.53 237.382 1081.5 237.08 1081.32 236.943Z" fill="#666666"/>
</g>
<g opacity="0.75" filter="url(#filter48_f_324_500)">
<path d="M1081.28 236.948C1081.12 236.829 1080.86 236.88 1080.74 237.047C1080.61 237.215 1080.63 237.477 1080.79 237.596C1080.95 237.715 1081.21 237.664 1081.33 237.496C1081.46 237.328 1081.44 237.066 1081.28 236.948Z" fill="url(#paint21_radial_324_500)"/>
</g>
<g opacity="0.98" filter="url(#filter49_f_324_500)">
<path d="M1070.39 228.907L1070.82 229.234L1070.39 229.81L1069.95 229.482L1070.39 228.907Z" fill="black"/>
</g>
<g opacity="0.98" filter="url(#filter50_f_324_500)">
<path d="M1070.89 229.288L1071.33 229.616L1070.9 230.191L1070.46 229.864L1070.89 229.288Z" fill="black"/>
</g>
<g opacity="0.98" filter="url(#filter51_f_324_500)">
<path d="M1071.4 229.669L1071.84 229.997L1071.4 230.572L1070.97 230.245L1071.4 229.669Z" fill="black"/>
</g>
<g opacity="0.98" filter="url(#filter52_f_324_500)">
<path d="M1071.91 230.051L1072.34 230.379L1071.91 230.954L1071.48 230.627L1071.91 230.051Z" fill="black"/>
</g>
<g opacity="0.98" filter="url(#filter53_f_324_500)">
<path d="M1072.42 230.433L1072.85 230.76L1072.42 231.336L1071.98 231.008L1072.42 230.433Z" fill="black"/>
</g>
<g opacity="0.98" filter="url(#filter54_f_324_500)">
<path d="M1072.92 230.814L1073.36 231.142L1072.93 231.718L1072.49 231.39L1072.92 230.814Z" fill="black"/>
</g>
<g opacity="0.98" filter="url(#filter55_f_324_500)">
<path d="M1073.43 231.196L1073.87 231.523L1073.43 232.099L1073 231.771L1073.43 231.196Z" fill="black"/>
</g>
<g opacity="0.98" filter="url(#filter56_f_324_500)">
<path d="M1073.94 231.577L1074.37 231.905L1073.94 232.48L1073.5 232.153L1073.94 231.577Z" fill="black"/>
</g>
<g opacity="0.98" filter="url(#filter57_f_324_500)">
<path d="M1074.44 231.959L1074.88 232.287L1074.45 232.862L1074.01 232.534L1074.44 231.959Z" fill="black"/>
</g>
<g opacity="0.98" filter="url(#filter58_f_324_500)">
<path d="M1074.95 232.34L1075.39 232.668L1074.95 233.243L1074.52 232.916L1074.95 232.34Z" fill="black"/>
</g>
<g opacity="0.98" filter="url(#filter59_f_324_500)">
<path d="M1070.17 229.05L1075.31 232.916L1075.19 233.067L1070.05 229.201L1070.17 229.05Z" fill="#B3B3B3"/>
</g>
<path fill-rule="evenodd" clip-rule="evenodd" d="M1057.64 226.525L1081.25 244.183L1045.4 291.917L1021.8 274.116L1057.64 226.525Z" fill="#1A1A1A" stroke="#1A1A1A" stroke-width="2.25778"/>
<path fill-rule="evenodd" clip-rule="evenodd" d="M1080.96 244.085L1057.81 226.772C1057.77 226.74 1057.71 226.728 1057.65 226.74C1057.6 226.752 1057.54 226.786 1057.51 226.835L1022.06 273.904C1022.03 273.954 1022.01 274.014 1022.01 274.072C1022.02 274.13 1022.04 274.181 1022.09 274.214L1045.23 291.667C1045.25 291.683 1045.27 291.695 1045.3 291.7C1045.33 291.706 1045.36 291.706 1045.38 291.7C1045.41 291.694 1045.44 291.683 1045.47 291.666C1045.49 291.65 1045.51 291.629 1045.53 291.604L1080.99 244.395C1081.01 244.371 1081.02 244.343 1081.03 244.314C1081.04 244.286 1081.04 244.256 1081.04 244.227C1081.04 244.198 1081.03 244.171 1081.02 244.147C1081 244.122 1080.99 244.101 1080.96 244.085V244.085Z" fill="black"/>
<path opacity="0.35" fill-rule="evenodd" clip-rule="evenodd" d="M1080.96 244.085L1057.81 226.772C1057.77 226.74 1057.71 226.728 1057.65 226.74C1057.6 226.752 1057.54 226.786 1057.51 226.835L1022.06 273.904C1022.03 273.954 1022.01 274.014 1022.01 274.072C1022.02 274.13 1022.04 274.181 1022.09 274.214L1045.23 291.667C1045.25 291.683 1045.27 291.695 1045.3 291.7C1045.33 291.706 1045.36 291.706 1045.38 291.7C1045.41 291.694 1045.44 291.683 1045.47 291.666C1045.49 291.65 1045.51 291.629 1045.53 291.604L1080.99 244.395C1081.01 244.371 1081.02 244.343 1081.03 244.314C1081.04 244.286 1081.04 244.256 1081.04 244.227C1081.04 244.198 1081.03 244.171 1081.02 244.147C1081 244.122 1080.99 244.101 1080.96 244.085V244.085Z" fill="url(#paint22_linear_324_500)"/>
<path opacity="0.25" fill-rule="evenodd" clip-rule="evenodd" d="M1019.6 273.304L1016.62 277.258L1043.74 297.868L1046.7 293.941L1019.6 273.304V273.304Z" fill="url(#paint23_linear_324_500)"/>
<path d="M890.319 152.5C890.319 162.372 884.619 171.36 875.301 177.9C865.985 184.439 853.088 188.5 838.819 188.5C824.55 188.5 811.653 184.439 802.337 177.9C793.019 171.36 787.319 162.372 787.319 152.5C787.319 142.628 793.019 133.64 802.337 127.1C811.653 120.561 824.55 116.5 838.819 116.5C853.088 116.5 865.985 120.561 875.301 127.1C884.619 133.64 890.319 142.628 890.319 152.5Z" fill="white" stroke="white"/>
<ellipse cx="852.819" cy="162.5" rx="27" ry="17.5" fill="#19D659"/>
<path d="M751.319 152.5C751.319 162.372 745.619 171.36 736.301 177.9C726.985 184.439 714.088 188.5 699.819 188.5C685.55 188.5 672.653 184.439 663.337 177.9C654.019 171.36 648.319 162.372 648.319 152.5C648.319 142.628 654.019 133.64 663.337 127.1C672.653 120.561 685.55 116.5 699.819 116.5C714.088 116.5 726.985 120.561 736.301 127.1C745.619 133.64 751.319 142.628 751.319 152.5Z" fill="white" stroke="white"/>
<ellipse cx="713.819" cy="162.5" rx="27" ry="17.5" fill="#19D659"/>
<rect x="713.819" y="276" width="102" height="13" fill="#F5D8BA"/>
<circle cx="200" cy="229" r="200" fill="#FA8714"/>
<rect x="59" y="88" width="282.843" height="282.843" fill="#FB9F43"/>
<rect x="0.421387" y="229.421" width="282.843" height="282.843" transform="rotate(-45 0.421387 229.421)" fill="#FB9F43"/>
<rect x="0.421387" y="229.421" width="282.843" height="282.843" transform="rotate(-45 0.421387 229.421)" fill="#FB9F43"/>
<path d="M405.819 326.258C438.123 250.833 405.819 326.258 438.123 250.833C452.213 170 438.123 250.833 452.213 170C503.311 270.188 452.213 170 503.311 270.188C405.819 326.258 503.311 270.188 405.819 326.258Z" fill="#FA8714" stroke="#FB9F43"/>
<path d="M225.989 467.002C304.827 444.263 225.989 467.002 304.827 444.263C376.321 404 304.827 444.263 376.321 404C331.11 506.978 376.321 404 331.11 506.978C225.989 467.002 331.11 506.978 225.989 467.002Z" fill="#FA8714" stroke="#FB9F43"/>
<path d="M43.9527 409C116.54 447.256 43.9527 409 116.54 447.256C195.981 467.791 116.54 447.256 195.981 467.791C92.0141 510.679 195.981 467.791 92.0141 510.679C43.9527 409 92.0141 510.679 43.9527 409Z" fill="#FA8714" stroke="#FB9F43"/>
<g opacity="0.45" filter="url(#filter60_f_324_500)">
<path fill-rule="evenodd" clip-rule="evenodd" d="M501.881 220.326L524.183 237.2C525.703 239.194 524.997 240.744 524.141 242.265L482.049 298.176C480.347 300.425 478.527 300.692 476.645 299.929L454.53 283.35C453.047 281.227 453.585 279.366 454.901 277.606L497.067 221.596C498.49 219.896 500.137 219.767 501.881 220.326V220.326Z" fill="black"/>
</g>
<path fill-rule="evenodd" clip-rule="evenodd" d="M501.569 220.022L523.871 236.896C525.391 238.89 524.685 240.441 523.829 241.961L481.737 297.872C480.035 300.121 478.215 300.389 476.333 299.626L454.218 283.046C452.735 280.923 453.274 279.062 454.589 277.302L496.756 221.293C498.179 219.592 499.825 219.463 501.569 220.022V220.022Z" fill="#151515"/>
<path d="M478.556 291.304L477.421 290.451L476.639 291.491L477.774 292.344L478.556 291.304Z" fill="#B3B3B3"/>
<path d="M477.443 290.731L476.915 291.434L477.752 292.063L478.28 291.36L477.443 290.731Z" fill="#333333"/>
<path opacity="0.25" fill-rule="evenodd" clip-rule="evenodd" d="M501.569 220.022L523.871 236.896C525.391 238.89 524.685 240.441 523.829 241.961L481.737 297.872C480.035 300.121 478.215 300.389 476.333 299.626L454.218 283.046C452.735 280.923 453.274 279.062 454.589 277.302L496.756 221.293C498.179 219.592 499.825 219.463 501.569 220.022V220.022Z" fill="url(#paint24_radial_324_500)"/>
<path fill-rule="evenodd" clip-rule="evenodd" d="M454.635 277.242L454.59 277.302C453.274 279.062 452.735 280.923 454.218 283.046L476.333 299.626C478.215 300.389 480.035 300.121 481.737 297.872L481.768 297.83L454.635 277.242V277.242Z" fill="#090909" stroke="black" stroke-width="0.282222"/>
<path fill-rule="evenodd" clip-rule="evenodd" d="M461.925 278.909L461.761 279.149L462.293 279.55C462.645 280.051 462.014 280.807 461.529 280.64L460.716 280.047L460.947 279.729L461.697 280.257C461.962 280.304 462.131 279.926 462.001 279.821L461.545 279.478L461.373 279.685L461.251 279.603L461.242 278.995L461.812 278.824L461.925 278.909Z" fill="#B3B3B3"/>
<path d="M477.977 291.383L476.842 290.53L476.06 291.57L477.194 292.423L477.977 291.383Z" fill="#B3B3B3"/>
<path d="M476.864 290.811L476.336 291.513L477.173 292.143L477.701 291.44L476.864 290.811Z" fill="#333333"/>
<path d="M469.106 285.149L470.03 285.844L469.39 286.695L468.466 286L469.106 285.149ZM468.838 285.045L470.025 284.863L470.163 286.06L468.838 285.045Z" fill="#B3B3B3"/>
<path d="M470.498 285.237L470.291 285.082L469.902 285.6L470.108 285.755L470.498 285.237Z" fill="#B3B3B3"/>
<path d="M469.891 285.032L469.069 285.228L469.21 285.336L468.761 285.933L469.355 286.379L469.798 285.789L469.918 285.881L469.891 285.032L469.891 285.032Z" fill="#1A1A1A"/>
<path fill-rule="evenodd" clip-rule="evenodd" d="M454.606 277.366L454.56 277.426C453.245 279.186 452.706 281.047 454.189 283.17L476.304 299.75C478.186 300.512 480.006 300.245 481.708 297.996L481.739 297.954L454.606 277.366V277.366Z" fill="url(#paint25_radial_324_500)"/>
<g filter="url(#filter61_f_324_500)">
<path d="M508.38 228.805L513.412 232.589C513.412 232.968 513.268 233.256 512.831 233.362L507.799 229.577C507.824 229.258 507.801 228.922 508.38 228.805Z" fill="black"/>
</g>
<path d="M508.416 228.866L513.428 232.635C513.451 232.983 513.331 233.239 512.921 233.31L507.909 229.54C507.914 229.249 507.872 228.939 508.416 228.866Z" fill="#B3B3B3"/>
<path d="M518.649 237.834C518.91 238.03 519.295 237.957 519.51 237.671C519.725 237.385 519.689 236.994 519.428 236.799C519.168 236.603 518.783 236.676 518.568 236.962C518.353 237.248 518.389 237.639 518.649 237.834Z" fill="url(#paint26_linear_324_500)"/>
<g opacity="0.98" filter="url(#filter62_f_324_500)">
<path d="M519.32 236.943C519.138 236.806 518.84 236.865 518.695 237.058C518.55 237.251 518.576 237.553 518.758 237.69C518.94 237.827 519.238 237.769 519.383 237.575C519.528 237.382 519.502 237.08 519.32 236.943Z" fill="#666666"/>
</g>
<g opacity="0.75" filter="url(#filter63_f_324_500)">
<path d="M519.277 236.948C519.119 236.829 518.861 236.88 518.735 237.047C518.609 237.215 518.632 237.477 518.79 237.596C518.948 237.715 519.206 237.664 519.332 237.496C519.458 237.328 519.435 237.066 519.277 236.948Z" fill="url(#paint27_radial_324_500)"/>
</g>
<g opacity="0.98" filter="url(#filter64_f_324_500)">
<path d="M508.385 228.907L508.821 229.234L508.388 229.81L507.953 229.482L508.385 228.907Z" fill="black"/>
</g>
<g opacity="0.98" filter="url(#filter65_f_324_500)">
<path d="M508.893 229.288L509.328 229.616L508.896 230.191L508.46 229.864L508.893 229.288Z" fill="black"/>
</g>
<g opacity="0.98" filter="url(#filter66_f_324_500)">
<path d="M509.4 229.669L509.836 229.997L509.403 230.572L508.967 230.245L509.4 229.669Z" fill="black"/>
</g>
<g opacity="0.98" filter="url(#filter67_f_324_500)">
<path d="M509.908 230.051L510.343 230.379L509.911 230.954L509.475 230.627L509.908 230.051Z" fill="black"/>
</g>
<g opacity="0.98" filter="url(#filter68_f_324_500)">
<path d="M510.415 230.433L510.851 230.76L510.418 231.336L509.982 231.008L510.415 230.433Z" fill="black"/>
</g>
<g opacity="0.98" filter="url(#filter69_f_324_500)">
<path d="M510.922 230.814L511.358 231.142L510.925 231.718L510.49 231.39L510.922 230.814Z" fill="black"/>
</g>
<g opacity="0.98" filter="url(#filter70_f_324_500)">
<path d="M511.43 231.196L511.865 231.523L511.433 232.099L510.997 231.771L511.43 231.196Z" fill="black"/>
</g>
<g opacity="0.98" filter="url(#filter71_f_324_500)">
<path d="M511.937 231.577L512.373 231.905L511.94 232.48L511.504 232.153L511.937 231.577Z" fill="black"/>
</g>
<g opacity="0.98" filter="url(#filter72_f_324_500)">
<path d="M512.444 231.959L512.88 232.287L512.447 232.862L512.012 232.534L512.444 231.959Z" fill="black"/>
</g>
<g opacity="0.98" filter="url(#filter73_f_324_500)">
<path d="M512.952 232.34L513.387 232.668L512.954 233.243L512.519 232.916L512.952 232.34Z" fill="black"/>
</g>
<g opacity="0.98" filter="url(#filter74_f_324_500)">
<path d="M508.165 229.05L513.305 232.916L513.192 233.067L508.052 229.201L508.165 229.05Z" fill="#B3B3B3"/>
</g>
<path fill-rule="evenodd" clip-rule="evenodd" d="M495.635 226.525L519.253 244.183L483.401 291.917L459.799 274.116L495.635 226.525Z" fill="#1A1A1A" stroke="#1A1A1A" stroke-width="2.25778"/>
<path fill-rule="evenodd" clip-rule="evenodd" d="M518.965 244.085L495.809 226.772C495.765 226.74 495.709 226.728 495.652 226.74C495.595 226.752 495.542 226.786 495.505 226.835L460.063 273.904C460.026 273.954 460.007 274.014 460.012 274.072C460.016 274.13 460.043 274.181 460.087 274.214L483.227 291.667C483.249 291.683 483.274 291.695 483.301 291.7C483.328 291.706 483.356 291.706 483.385 291.7C483.413 291.694 483.441 291.683 483.466 291.666C483.491 291.65 483.514 291.629 483.532 291.604L518.989 244.395C519.008 244.371 519.022 244.343 519.031 244.314C519.039 244.286 519.043 244.256 519.04 244.227C519.038 244.198 519.03 244.171 519.017 244.147C519.004 244.122 518.986 244.101 518.965 244.085V244.085Z" fill="black"/>
<path opacity="0.35" fill-rule="evenodd" clip-rule="evenodd" d="M518.965 244.085L495.809 226.772C495.765 226.74 495.709 226.728 495.652 226.74C495.595 226.752 495.542 226.786 495.505 226.835L460.063 273.904C460.026 273.954 460.007 274.014 460.012 274.072C460.016 274.13 460.043 274.181 460.087 274.214L483.227 291.667C483.249 291.683 483.274 291.695 483.301 291.7C483.328 291.706 483.356 291.706 483.385 291.7C483.413 291.694 483.441 291.683 483.466 291.666C483.491 291.65 483.514 291.629 483.532 291.604L518.989 244.395C519.008 244.371 519.022 244.343 519.031 244.314C519.039 244.286 519.043 244.256 519.04 244.227C519.038 244.198 519.03 244.171 519.017 244.147C519.004 244.122 518.986 244.101 518.965 244.085V244.085Z" fill="url(#paint28_linear_324_500)"/>
<path opacity="0.25" fill-rule="evenodd" clip-rule="evenodd" d="M457.6 273.304L454.622 277.258L481.74 297.868L484.696 293.941L457.6 273.304V273.304Z" fill="url(#paint29_linear_324_500)"/>
<path d="M328.319 152.5C328.319 162.372 322.619 171.36 313.301 177.9C303.985 184.439 291.088 188.5 276.819 188.5C262.55 188.5 249.653 184.439 240.337 177.9C231.019 171.36 225.319 162.372 225.319 152.5C225.319 142.628 231.019 133.64 240.337 127.1C249.653 120.561 262.55 116.5 276.819 116.5C291.088 116.5 303.985 120.561 313.301 127.1C322.619 133.64 328.319 142.628 328.319 152.5Z" fill="white" stroke="white"/>
<ellipse cx="290.819" cy="162.5" rx="27" ry="17.5" fill="#19D659"/>
<path d="M189.319 152.5C189.319 162.372 183.619 171.36 174.301 177.9C164.985 184.439 152.088 188.5 137.819 188.5C123.55 188.5 110.653 184.439 101.337 177.9C92.019 171.36 86.3191 162.372 86.3191 152.5C86.3191 142.628 92.019 133.64 101.337 127.1C110.653 120.561 123.55 116.5 137.819 116.5C152.088 116.5 164.985 120.561 174.301 127.1C183.619 133.64 189.319 142.628 189.319 152.5Z" fill="white" stroke="white"/>
<ellipse cx="151.819" cy="162.5" rx="27" ry="17.5" fill="#19D659"/>
<rect x="151.819" y="276" width="102" height="13" fill="#F5D8BA"/>
<path d="M3023.5 152.5C3023.5 162.372 3017.8 171.36 3008.48 177.9C2999.17 184.439 2986.27 188.5 2972 188.5C2957.73 188.5 2944.83 184.439 2935.52 177.9C2926.2 171.36 2920.5 162.372 2920.5 152.5C2920.5 142.628 2926.2 133.64 2935.52 127.1C2944.83 120.561 2957.73 116.5 2972 116.5C2986.27 116.5 2999.17 120.561 3008.48 127.1C3017.8 133.64 3023.5 142.628 3023.5 152.5Z" fill="white" stroke="white"/>
<ellipse cx="2983" cy="144.5" rx="27" ry="17.5" fill="#7C96F2"/>
<path d="M3153.5 152.5C3153.5 162.372 3147.8 171.36 3138.48 177.9C3129.17 184.439 3116.27 188.5 3102 188.5C3087.73 188.5 3074.83 184.439 3065.52 177.9C3056.2 171.36 3050.5 162.372 3050.5 152.5C3050.5 142.628 3056.2 133.64 3065.52 127.1C3074.83 120.561 3087.73 116.5 3102 116.5C3116.27 116.5 3129.17 120.561 3138.48 127.1C3147.8 133.64 3153.5 142.628 3153.5 152.5Z" fill="white" stroke="white"/>
<ellipse cx="3113" cy="144.5" rx="27" ry="17.5" fill="#7C96F2"/>
<defs>
<filter id="filter0_f_324_500" x="2693.5" y="211.887" width="87.7193" height="96.5694" filterUnits="userSpaceOnUse" color-interpolation-filters="sRGB">
<feFlood flood-opacity="0" result="BackgroundImageFix"/>
<feBlend mode="normal" in="SourceGraphic" in2="BackgroundImageFix" result="shape"/>
<feGaussianBlur stdDeviation="4.07105" result="effect1_foregroundBlur_324_500"/>
</filter>
<filter id="filter1_f_324_500" x="2755.56" y="228.57" width="6.08254" height="5.02615" filterUnits="userSpaceOnUse" color-interpolation-filters="sRGB">
<feFlood flood-opacity="0" result="BackgroundImageFix"/>
<feBlend mode="normal" in="SourceGraphic" in2="BackgroundImageFix" result="shape"/>
<feGaussianBlur stdDeviation="0.117376" result="effect1_foregroundBlur_324_500"/>
</filter>
<filter id="filter2_f_324_500" x="2766.1" y="236.365" width="1.88122" height="1.90282" filterUnits="userSpaceOnUse" color-interpolation-filters="sRGB">
<feFlood flood-opacity="0" result="BackgroundImageFix"/>
<feBlend mode="normal" in="SourceGraphic" in2="BackgroundImageFix" result="shape"/>
<feGaussianBlur stdDeviation="0.251585" result="effect1_foregroundBlur_324_500"/>
</filter>
<filter id="filter3_f_324_500" x="2766.29" y="236.515" width="1.49455" height="1.51319" filterUnits="userSpaceOnUse" color-interpolation-filters="sRGB">
<feFlood flood-opacity="0" result="BackgroundImageFix"/>
<feBlend mode="normal" in="SourceGraphic" in2="BackgroundImageFix" result="shape"/>
<feGaussianBlur stdDeviation="0.183841" result="effect1_foregroundBlur_324_500"/>
</filter>
<filter id="filter4_f_324_500" x="2755.59" y="228.541" width="1.59976" height="1.63422" filterUnits="userSpaceOnUse" color-interpolation-filters="sRGB">
<feFlood flood-opacity="0" result="BackgroundImageFix"/>
<feBlend mode="normal" in="SourceGraphic" in2="BackgroundImageFix" result="shape"/>
<feGaussianBlur stdDeviation="0.182846" result="effect1_foregroundBlur_324_500"/>
</filter>
<filter id="filter5_f_324_500" x="2756.09" y="228.922" width="1.59976" height="1.63422" filterUnits="userSpaceOnUse" color-interpolation-filters="sRGB">
<feFlood flood-opacity="0" result="BackgroundImageFix"/>
<feBlend mode="normal" in="SourceGraphic" in2="BackgroundImageFix" result="shape"/>
<feGaussianBlur stdDeviation="0.182846" result="effect1_foregroundBlur_324_500"/>
</filter>
<filter id="filter6_f_324_500" x="2756.6" y="229.304" width="1.59976" height="1.63422" filterUnits="userSpaceOnUse" color-interpolation-filters="sRGB">
<feFlood flood-opacity="0" result="BackgroundImageFix"/>
<feBlend mode="normal" in="SourceGraphic" in2="BackgroundImageFix" result="shape"/>
<feGaussianBlur stdDeviation="0.182846" result="effect1_foregroundBlur_324_500"/>
</filter>
<filter id="filter7_f_324_500" x="2757.11" y="229.686" width="1.59976" height="1.63422" filterUnits="userSpaceOnUse" color-interpolation-filters="sRGB">
<feFlood flood-opacity="0" result="BackgroundImageFix"/>
<feBlend mode="normal" in="SourceGraphic" in2="BackgroundImageFix" result="shape"/>
<feGaussianBlur stdDeviation="0.182846" result="effect1_foregroundBlur_324_500"/>
</filter>
<filter id="filter8_f_324_500" x="2757.62" y="230.067" width="1.59976" height="1.63422" filterUnits="userSpaceOnUse" color-interpolation-filters="sRGB">
<feFlood flood-opacity="0" result="BackgroundImageFix"/>
<feBlend mode="normal" in="SourceGraphic" in2="BackgroundImageFix" result="shape"/>
<feGaussianBlur stdDeviation="0.182846" result="effect1_foregroundBlur_324_500"/>
</filter>
<filter id="filter9_f_324_500" x="2758.12" y="230.449" width="1.59976" height="1.63422" filterUnits="userSpaceOnUse" color-interpolation-filters="sRGB">
<feFlood flood-opacity="0" result="BackgroundImageFix"/>
<feBlend mode="normal" in="SourceGraphic" in2="BackgroundImageFix" result="shape"/>
<feGaussianBlur stdDeviation="0.182846" result="effect1_foregroundBlur_324_500"/>
</filter>
<filter id="filter10_f_324_500" x="2758.63" y="230.83" width="1.59976" height="1.63422" filterUnits="userSpaceOnUse" color-interpolation-filters="sRGB">
<feFlood flood-opacity="0" result="BackgroundImageFix"/>
<feBlend mode="normal" in="SourceGraphic" in2="BackgroundImageFix" result="shape"/>
<feGaussianBlur stdDeviation="0.182846" result="effect1_foregroundBlur_324_500"/>
</filter>
<filter id="filter11_f_324_500" x="2759.14" y="231.211" width="1.59976" height="1.63422" filterUnits="userSpaceOnUse" color-interpolation-filters="sRGB">
<feFlood flood-opacity="0" result="BackgroundImageFix"/>
<feBlend mode="normal" in="SourceGraphic" in2="BackgroundImageFix" result="shape"/>
<feGaussianBlur stdDeviation="0.182846" result="effect1_foregroundBlur_324_500"/>
</filter>
<filter id="filter12_f_324_500" x="2759.65" y="231.593" width="1.59976" height="1.63422" filterUnits="userSpaceOnUse" color-interpolation-filters="sRGB">
<feFlood flood-opacity="0" result="BackgroundImageFix"/>
<feBlend mode="normal" in="SourceGraphic" in2="BackgroundImageFix" result="shape"/>
<feGaussianBlur stdDeviation="0.182846" result="effect1_foregroundBlur_324_500"/>
</filter>
<filter id="filter13_f_324_500" x="2760.15" y="231.975" width="1.59976" height="1.63422" filterUnits="userSpaceOnUse" color-interpolation-filters="sRGB">
<feFlood flood-opacity="0" result="BackgroundImageFix"/>
<feBlend mode="normal" in="SourceGraphic" in2="BackgroundImageFix" result="shape"/>
<feGaussianBlur stdDeviation="0.182846" result="effect1_foregroundBlur_324_500"/>
</filter>
<filter id="filter14_f_324_500" x="2755.65" y="228.648" width="6.05756" height="4.82041" filterUnits="userSpaceOnUse" color-interpolation-filters="sRGB">
<feFlood flood-opacity="0" result="BackgroundImageFix"/>
<feBlend mode="normal" in="SourceGraphic" in2="BackgroundImageFix" result="shape"/>
<feGaussianBlur stdDeviation="0.200951" result="effect1_foregroundBlur_324_500"/>
</filter>
<filter id="filter15_f_324_500" x="2131.5" y="211.887" width="87.7193" height="96.5694" filterUnits="userSpaceOnUse" color-interpolation-filters="sRGB">
<feFlood flood-opacity="0" result="BackgroundImageFix"/>
<feBlend mode="normal" in="SourceGraphic" in2="BackgroundImageFix" result="shape"/>
<feGaussianBlur stdDeviation="4.07105" result="effect1_foregroundBlur_324_500"/>
</filter>
<filter id="filter16_f_324_500" x="2193.56" y="228.57" width="6.08254" height="5.02615" filterUnits="userSpaceOnUse" color-interpolation-filters="sRGB">
<feFlood flood-opacity="0" result="BackgroundImageFix"/>
<feBlend mode="normal" in="SourceGraphic" in2="BackgroundImageFix" result="shape"/>
<feGaussianBlur stdDeviation="0.117376" result="effect1_foregroundBlur_324_500"/>
</filter>
<filter id="filter17_f_324_500" x="2204.1" y="236.365" width="1.88122" height="1.90282" filterUnits="userSpaceOnUse" color-interpolation-filters="sRGB">
<feFlood flood-opacity="0" result="BackgroundImageFix"/>
<feBlend mode="normal" in="SourceGraphic" in2="BackgroundImageFix" result="shape"/>
<feGaussianBlur stdDeviation="0.251585" result="effect1_foregroundBlur_324_500"/>
</filter>
<filter id="filter18_f_324_500" x="2204.29" y="236.515" width="1.49458" height="1.51319" filterUnits="userSpaceOnUse" color-interpolation-filters="sRGB">
<feFlood flood-opacity="0" result="BackgroundImageFix"/>
<feBlend mode="normal" in="SourceGraphic" in2="BackgroundImageFix" result="shape"/>
<feGaussianBlur stdDeviation="0.183841" result="effect1_foregroundBlur_324_500"/>
</filter>
<filter id="filter19_f_324_500" x="2193.59" y="228.541" width="1.59979" height="1.63422" filterUnits="userSpaceOnUse" color-interpolation-filters="sRGB">
<feFlood flood-opacity="0" result="BackgroundImageFix"/>
<feBlend mode="normal" in="SourceGraphic" in2="BackgroundImageFix" result="shape"/>
<feGaussianBlur stdDeviation="0.182846" result="effect1_foregroundBlur_324_500"/>
</filter>
<filter id="filter20_f_324_500" x="2194.09" y="228.922" width="1.59979" height="1.63422" filterUnits="userSpaceOnUse" color-interpolation-filters="sRGB">
<feFlood flood-opacity="0" result="BackgroundImageFix"/>
<feBlend mode="normal" in="SourceGraphic" in2="BackgroundImageFix" result="shape"/>
<feGaussianBlur stdDeviation="0.182846" result="effect1_foregroundBlur_324_500"/>
</filter>
<filter id="filter21_f_324_500" x="2194.6" y="229.304" width="1.59979" height="1.63422" filterUnits="userSpaceOnUse" color-interpolation-filters="sRGB">
<feFlood flood-opacity="0" result="BackgroundImageFix"/>
<feBlend mode="normal" in="SourceGraphic" in2="BackgroundImageFix" result="shape"/>
<feGaussianBlur stdDeviation="0.182846" result="effect1_foregroundBlur_324_500"/>
</filter>
<filter id="filter22_f_324_500" x="2195.11" y="229.686" width="1.59979" height="1.63422" filterUnits="userSpaceOnUse" color-interpolation-filters="sRGB">
<feFlood flood-opacity="0" result="BackgroundImageFix"/>
<feBlend mode="normal" in="SourceGraphic" in2="BackgroundImageFix" result="shape"/>
<feGaussianBlur stdDeviation="0.182846" result="effect1_foregroundBlur_324_500"/>
</filter>
<filter id="filter23_f_324_500" x="2195.62" y="230.067" width="1.59979" height="1.63422" filterUnits="userSpaceOnUse" color-interpolation-filters="sRGB">
<feFlood flood-opacity="0" result="BackgroundImageFix"/>
<feBlend mode="normal" in="SourceGraphic" in2="BackgroundImageFix" result="shape"/>
<feGaussianBlur stdDeviation="0.182846" result="effect1_foregroundBlur_324_500"/>
</filter>
<filter id="filter24_f_324_500" x="2196.12" y="230.449" width="1.59979" height="1.63422" filterUnits="userSpaceOnUse" color-interpolation-filters="sRGB">
<feFlood flood-opacity="0" result="BackgroundImageFix"/>
<feBlend mode="normal" in="SourceGraphic" in2="BackgroundImageFix" result="shape"/>
<feGaussianBlur stdDeviation="0.182846" result="effect1_foregroundBlur_324_500"/>
</filter>
<filter id="filter25_f_324_500" x="2196.63" y="230.83" width="1.59979" height="1.63422" filterUnits="userSpaceOnUse" color-interpolation-filters="sRGB">
<feFlood flood-opacity="0" result="BackgroundImageFix"/>
<feBlend mode="normal" in="SourceGraphic" in2="BackgroundImageFix" result="shape"/>
<feGaussianBlur stdDeviation="0.182846" result="effect1_foregroundBlur_324_500"/>
</filter>
<filter id="filter26_f_324_500" x="2197.14" y="231.211" width="1.59979" height="1.63422" filterUnits="userSpaceOnUse" color-interpolation-filters="sRGB">
<feFlood flood-opacity="0" result="BackgroundImageFix"/>
<feBlend mode="normal" in="SourceGraphic" in2="BackgroundImageFix" result="shape"/>
<feGaussianBlur stdDeviation="0.182846" result="effect1_foregroundBlur_324_500"/>
</filter>
<filter id="filter27_f_324_500" x="2197.65" y="231.593" width="1.59979" height="1.63422" filterUnits="userSpaceOnUse" color-interpolation-filters="sRGB">
<feFlood flood-opacity="0" result="BackgroundImageFix"/>
<feBlend mode="normal" in="SourceGraphic" in2="BackgroundImageFix" result="shape"/>
<feGaussianBlur stdDeviation="0.182846" result="effect1_foregroundBlur_324_500"/>
</filter>
<filter id="filter28_f_324_500" x="2198.15" y="231.975" width="1.59979" height="1.63422" filterUnits="userSpaceOnUse" color-interpolation-filters="sRGB">
<feFlood flood-opacity="0" result="BackgroundImageFix"/>
<feBlend mode="normal" in="SourceGraphic" in2="BackgroundImageFix" result="shape"/>
<feGaussianBlur stdDeviation="0.182846" result="effect1_foregroundBlur_324_500"/>
</filter>
<filter id="filter29_f_324_500" x="2193.65" y="228.648" width="6.05759" height="4.82041" filterUnits="userSpaceOnUse" color-interpolation-filters="sRGB">
<feFlood flood-opacity="0" result="BackgroundImageFix"/>
<feBlend mode="normal" in="SourceGraphic" in2="BackgroundImageFix" result="shape"/>
<feGaussianBlur stdDeviation="0.200951" result="effect1_foregroundBlur_324_500"/>
</filter>
<filter id="filter30_f_324_500" x="1569.5" y="211.887" width="87.7193" height="96.5694" filterUnits="userSpaceOnUse" color-interpolation-filters="sRGB">
<feFlood flood-opacity="0" result="BackgroundImageFix"/>
<feBlend mode="normal" in="SourceGraphic" in2="BackgroundImageFix" result="shape"/>
<feGaussianBlur stdDeviation="4.07105" result="effect1_foregroundBlur_324_500"/>
</filter>
<filter id="filter31_f_324_500" x="1631.56" y="228.57" width="6.08254" height="5.02615" filterUnits="userSpaceOnUse" color-interpolation-filters="sRGB">
<feFlood flood-opacity="0" result="BackgroundImageFix"/>
<feBlend mode="normal" in="SourceGraphic" in2="BackgroundImageFix" result="shape"/>
<feGaussianBlur stdDeviation="0.117376" result="effect1_foregroundBlur_324_500"/>
</filter>
<filter id="filter32_f_324_500" x="1642.1" y="236.365" width="1.88122" height="1.90282" filterUnits="userSpaceOnUse" color-interpolation-filters="sRGB">
<feFlood flood-opacity="0" result="BackgroundImageFix"/>
<feBlend mode="normal" in="SourceGraphic" in2="BackgroundImageFix" result="shape"/>
<feGaussianBlur stdDeviation="0.251585" result="effect1_foregroundBlur_324_500"/>
</filter>
<filter id="filter33_f_324_500" x="1642.29" y="236.515" width="1.49452" height="1.51319" filterUnits="userSpaceOnUse" color-interpolation-filters="sRGB">
<feFlood flood-opacity="0" result="BackgroundImageFix"/>
<feBlend mode="normal" in="SourceGraphic" in2="BackgroundImageFix" result="shape"/>
<feGaussianBlur stdDeviation="0.183841" result="effect1_foregroundBlur_324_500"/>
</filter>
<filter id="filter34_f_324_500" x="1631.59" y="228.541" width="1.59967" height="1.63422" filterUnits="userSpaceOnUse" color-interpolation-filters="sRGB">
<feFlood flood-opacity="0" result="BackgroundImageFix"/>
<feBlend mode="normal" in="SourceGraphic" in2="BackgroundImageFix" result="shape"/>
<feGaussianBlur stdDeviation="0.182846" result="effect1_foregroundBlur_324_500"/>
</filter>
<filter id="filter35_f_324_500" x="1632.09" y="228.922" width="1.59967" height="1.63422" filterUnits="userSpaceOnUse" color-interpolation-filters="sRGB">
<feFlood flood-opacity="0" result="BackgroundImageFix"/>
<feBlend mode="normal" in="SourceGraphic" in2="BackgroundImageFix" result="shape"/>
<feGaussianBlur stdDeviation="0.182846" result="effect1_foregroundBlur_324_500"/>
</filter>
<filter id="filter36_f_324_500" x="1632.6" y="229.304" width="1.59967" height="1.63422" filterUnits="userSpaceOnUse" color-interpolation-filters="sRGB">
<feFlood flood-opacity="0" result="BackgroundImageFix"/>
<feBlend mode="normal" in="SourceGraphic" in2="BackgroundImageFix" result="shape"/>
<feGaussianBlur stdDeviation="0.182846" result="effect1_foregroundBlur_324_500"/>
</filter>
<filter id="filter37_f_324_500" x="1633.11" y="229.686" width="1.59967" height="1.63422" filterUnits="userSpaceOnUse" color-interpolation-filters="sRGB">
<feFlood flood-opacity="0" result="BackgroundImageFix"/>
<feBlend mode="normal" in="SourceGraphic" in2="BackgroundImageFix" result="shape"/>
<feGaussianBlur stdDeviation="0.182846" result="effect1_foregroundBlur_324_500"/>
</filter>
<filter id="filter38_f_324_500" x="1633.62" y="230.067" width="1.59967" height="1.63422" filterUnits="userSpaceOnUse" color-interpolation-filters="sRGB">
<feFlood flood-opacity="0" result="BackgroundImageFix"/>
<feBlend mode="normal" in="SourceGraphic" in2="BackgroundImageFix" result="shape"/>
<feGaussianBlur stdDeviation="0.182846" result="effect1_foregroundBlur_324_500"/>
</filter>
<filter id="filter39_f_324_500" x="1634.12" y="230.449" width="1.59967" height="1.63422" filterUnits="userSpaceOnUse" color-interpolation-filters="sRGB">
<feFlood flood-opacity="0" result="BackgroundImageFix"/>
<feBlend mode="normal" in="SourceGraphic" in2="BackgroundImageFix" result="shape"/>
<feGaussianBlur stdDeviation="0.182846" result="effect1_foregroundBlur_324_500"/>
</filter>
<filter id="filter40_f_324_500" x="1634.63" y="230.83" width="1.59967" height="1.63422" filterUnits="userSpaceOnUse" color-interpolation-filters="sRGB">
<feFlood flood-opacity="0" result="BackgroundImageFix"/>
<feBlend mode="normal" in="SourceGraphic" in2="BackgroundImageFix" result="shape"/>
<feGaussianBlur stdDeviation="0.182846" result="effect1_foregroundBlur_324_500"/>
</filter>
<filter id="filter41_f_324_500" x="1635.14" y="231.211" width="1.59967" height="1.63422" filterUnits="userSpaceOnUse" color-interpolation-filters="sRGB">
<feFlood flood-opacity="0" result="BackgroundImageFix"/>
<feBlend mode="normal" in="SourceGraphic" in2="BackgroundImageFix" result="shape"/>
<feGaussianBlur stdDeviation="0.182846" result="effect1_foregroundBlur_324_500"/>
</filter>
<filter id="filter42_f_324_500" x="1635.65" y="231.593" width="1.59967" height="1.63422" filterUnits="userSpaceOnUse" color-interpolation-filters="sRGB">
<feFlood flood-opacity="0" result="BackgroundImageFix"/>
<feBlend mode="normal" in="SourceGraphic" in2="BackgroundImageFix" result="shape"/>
<feGaussianBlur stdDeviation="0.182846" result="effect1_foregroundBlur_324_500"/>
</filter>
<filter id="filter43_f_324_500" x="1636.15" y="231.975" width="1.59967" height="1.63422" filterUnits="userSpaceOnUse" color-interpolation-filters="sRGB">
<feFlood flood-opacity="0" result="BackgroundImageFix"/>
<feBlend mode="normal" in="SourceGraphic" in2="BackgroundImageFix" result="shape"/>
<feGaussianBlur stdDeviation="0.182846" result="effect1_foregroundBlur_324_500"/>
</filter>
<filter id="filter44_f_324_500" x="1631.65" y="228.648" width="6.05759" height="4.82041" filterUnits="userSpaceOnUse" color-interpolation-filters="sRGB">
<feFlood flood-opacity="0" result="BackgroundImageFix"/>
<feBlend mode="normal" in="SourceGraphic" in2="BackgroundImageFix" result="shape"/>
<feGaussianBlur stdDeviation="0.200951" result="effect1_foregroundBlur_324_500"/>
</filter>
<filter id="filter45_f_324_500" x="1007.5" y="211.887" width="87.7193" height="96.5694" filterUnits="userSpaceOnUse" color-interpolation-filters="sRGB">
<feFlood flood-opacity="0" result="BackgroundImageFix"/>
<feBlend mode="normal" in="SourceGraphic" in2="BackgroundImageFix" result="shape"/>
<feGaussianBlur stdDeviation="4.07105" result="effect1_foregroundBlur_324_500"/>
</filter>
<filter id="filter46_f_324_500" x="1069.56" y="228.57" width="6.08254" height="5.02615" filterUnits="userSpaceOnUse" color-interpolation-filters="sRGB">
<feFlood flood-opacity="0" result="BackgroundImageFix"/>
<feBlend mode="normal" in="SourceGraphic" in2="BackgroundImageFix" result="shape"/>
<feGaussianBlur stdDeviation="0.117376" result="effect1_foregroundBlur_324_500"/>
</filter>
<filter id="filter47_f_324_500" x="1080.1" y="236.365" width="1.88122" height="1.90282" filterUnits="userSpaceOnUse" color-interpolation-filters="sRGB">
<feFlood flood-opacity="0" result="BackgroundImageFix"/>
<feBlend mode="normal" in="SourceGraphic" in2="BackgroundImageFix" result="shape"/>
<feGaussianBlur stdDeviation="0.251585" result="effect1_foregroundBlur_324_500"/>
</filter>
<filter id="filter48_f_324_500" x="1080.29" y="236.515" width="1.49452" height="1.51319" filterUnits="userSpaceOnUse" color-interpolation-filters="sRGB">
<feFlood flood-opacity="0" result="BackgroundImageFix"/>
<feBlend mode="normal" in="SourceGraphic" in2="BackgroundImageFix" result="shape"/>
<feGaussianBlur stdDeviation="0.183841" result="effect1_foregroundBlur_324_500"/>
</filter>
<filter id="filter49_f_324_500" x="1069.59" y="228.541" width="1.59967" height="1.63422" filterUnits="userSpaceOnUse" color-interpolation-filters="sRGB">
<feFlood flood-opacity="0" result="BackgroundImageFix"/>
<feBlend mode="normal" in="SourceGraphic" in2="BackgroundImageFix" result="shape"/>
<feGaussianBlur stdDeviation="0.182846" result="effect1_foregroundBlur_324_500"/>
</filter>
<filter id="filter50_f_324_500" x="1070.09" y="228.922" width="1.59967" height="1.63422" filterUnits="userSpaceOnUse" color-interpolation-filters="sRGB">
<feFlood flood-opacity="0" result="BackgroundImageFix"/>
<feBlend mode="normal" in="SourceGraphic" in2="BackgroundImageFix" result="shape"/>
<feGaussianBlur stdDeviation="0.182846" result="effect1_foregroundBlur_324_500"/>
</filter>
<filter id="filter51_f_324_500" x="1070.6" y="229.304" width="1.59967" height="1.63422" filterUnits="userSpaceOnUse" color-interpolation-filters="sRGB">
<feFlood flood-opacity="0" result="BackgroundImageFix"/>
<feBlend mode="normal" in="SourceGraphic" in2="BackgroundImageFix" result="shape"/>
<feGaussianBlur stdDeviation="0.182846" result="effect1_foregroundBlur_324_500"/>
</filter>
<filter id="filter52_f_324_500" x="1071.11" y="229.686" width="1.59967" height="1.63422" filterUnits="userSpaceOnUse" color-interpolation-filters="sRGB">
<feFlood flood-opacity="0" result="BackgroundImageFix"/>
<feBlend mode="normal" in="SourceGraphic" in2="BackgroundImageFix" result="shape"/>
<feGaussianBlur stdDeviation="0.182846" result="effect1_foregroundBlur_324_500"/>
</filter>
<filter id="filter53_f_324_500" x="1071.62" y="230.067" width="1.59967" height="1.63422" filterUnits="userSpaceOnUse" color-interpolation-filters="sRGB">
<feFlood flood-opacity="0" result="BackgroundImageFix"/>
<feBlend mode="normal" in="SourceGraphic" in2="BackgroundImageFix" result="shape"/>
<feGaussianBlur stdDeviation="0.182846" result="effect1_foregroundBlur_324_500"/>
</filter>
<filter id="filter54_f_324_500" x="1072.12" y="230.449" width="1.59967" height="1.63422" filterUnits="userSpaceOnUse" color-interpolation-filters="sRGB">
<feFlood flood-opacity="0" result="BackgroundImageFix"/>
<feBlend mode="normal" in="SourceGraphic" in2="BackgroundImageFix" result="shape"/>
<feGaussianBlur stdDeviation="0.182846" result="effect1_foregroundBlur_324_500"/>
</filter>
<filter id="filter55_f_324_500" x="1072.63" y="230.83" width="1.59967" height="1.63422" filterUnits="userSpaceOnUse" color-interpolation-filters="sRGB">
<feFlood flood-opacity="0" result="BackgroundImageFix"/>
<feBlend mode="normal" in="SourceGraphic" in2="BackgroundImageFix" result="shape"/>
<feGaussianBlur stdDeviation="0.182846" result="effect1_foregroundBlur_324_500"/>
</filter>
<filter id="filter56_f_324_500" x="1073.14" y="231.211" width="1.59967" height="1.63422" filterUnits="userSpaceOnUse" color-interpolation-filters="sRGB">
<feFlood flood-opacity="0" result="BackgroundImageFix"/>
<feBlend mode="normal" in="SourceGraphic" in2="BackgroundImageFix" result="shape"/>
<feGaussianBlur stdDeviation="0.182846" result="effect1_foregroundBlur_324_500"/>
</filter>
<filter id="filter57_f_324_500" x="1073.65" y="231.593" width="1.59967" height="1.63422" filterUnits="userSpaceOnUse" color-interpolation-filters="sRGB">
<feFlood flood-opacity="0" result="BackgroundImageFix"/>
<feBlend mode="normal" in="SourceGraphic" in2="BackgroundImageFix" result="shape"/>
<feGaussianBlur stdDeviation="0.182846" result="effect1_foregroundBlur_324_500"/>
</filter>
<filter id="filter58_f_324_500" x="1074.15" y="231.975" width="1.59967" height="1.63422" filterUnits="userSpaceOnUse" color-interpolation-filters="sRGB">
<feFlood flood-opacity="0" result="BackgroundImageFix"/>
<feBlend mode="normal" in="SourceGraphic" in2="BackgroundImageFix" result="shape"/>
<feGaussianBlur stdDeviation="0.182846" result="effect1_foregroundBlur_324_500"/>
</filter>
<filter id="filter59_f_324_500" x="1069.65" y="228.648" width="6.05759" height="4.82041" filterUnits="userSpaceOnUse" color-interpolation-filters="sRGB">
<feFlood flood-opacity="0" result="BackgroundImageFix"/>
<feBlend mode="normal" in="SourceGraphic" in2="BackgroundImageFix" result="shape"/>
<feGaussianBlur stdDeviation="0.200951" result="effect1_foregroundBlur_324_500"/>
</filter>
<filter id="filter60_f_324_500" x="445.497" y="211.887" width="87.7193" height="96.5694" filterUnits="userSpaceOnUse" color-interpolation-filters="sRGB">
<feFlood flood-opacity="0" result="BackgroundImageFix"/>
<feBlend mode="normal" in="SourceGraphic" in2="BackgroundImageFix" result="shape"/>
<feGaussianBlur stdDeviation="4.07105" result="effect1_foregroundBlur_324_500"/>
</filter>
<filter id="filter61_f_324_500" x="507.565" y="228.57" width="6.08254" height="5.02615" filterUnits="userSpaceOnUse" color-interpolation-filters="sRGB">
<feFlood flood-opacity="0" result="BackgroundImageFix"/>
<feBlend mode="normal" in="SourceGraphic" in2="BackgroundImageFix" result="shape"/>
<feGaussianBlur stdDeviation="0.117376" result="effect1_foregroundBlur_324_500"/>
</filter>
<filter id="filter62_f_324_500" x="518.098" y="236.365" width="1.88134" height="1.90282" filterUnits="userSpaceOnUse" color-interpolation-filters="sRGB">
<feFlood flood-opacity="0" result="BackgroundImageFix"/>
<feBlend mode="normal" in="SourceGraphic" in2="BackgroundImageFix" result="shape"/>
<feGaussianBlur stdDeviation="0.251585" result="effect1_foregroundBlur_324_500"/>
</filter>
<filter id="filter63_f_324_500" x="518.286" y="236.515" width="1.4944" height="1.51319" filterUnits="userSpaceOnUse" color-interpolation-filters="sRGB">
<feFlood flood-opacity="0" result="BackgroundImageFix"/>
<feBlend mode="normal" in="SourceGraphic" in2="BackgroundImageFix" result="shape"/>
<feGaussianBlur stdDeviation="0.183841" result="effect1_foregroundBlur_324_500"/>
</filter>
<filter id="filter64_f_324_500" x="507.587" y="228.541" width="1.59979" height="1.63422" filterUnits="userSpaceOnUse" color-interpolation-filters="sRGB">
<feFlood flood-opacity="0" result="BackgroundImageFix"/>
<feBlend mode="normal" in="SourceGraphic" in2="BackgroundImageFix" result="shape"/>
<feGaussianBlur stdDeviation="0.182846" result="effect1_foregroundBlur_324_500"/>
</filter>
<filter id="filter65_f_324_500" x="508.094" y="228.922" width="1.59979" height="1.63422" filterUnits="userSpaceOnUse" color-interpolation-filters="sRGB">
<feFlood flood-opacity="0" result="BackgroundImageFix"/>
<feBlend mode="normal" in="SourceGraphic" in2="BackgroundImageFix" result="shape"/>
<feGaussianBlur stdDeviation="0.182846" result="effect1_foregroundBlur_324_500"/>
</filter>
<filter id="filter66_f_324_500" x="508.602" y="229.304" width="1.59979" height="1.63422" filterUnits="userSpaceOnUse" color-interpolation-filters="sRGB">
<feFlood flood-opacity="0" result="BackgroundImageFix"/>
<feBlend mode="normal" in="SourceGraphic" in2="BackgroundImageFix" result="shape"/>
<feGaussianBlur stdDeviation="0.182846" result="effect1_foregroundBlur_324_500"/>
</filter>
<filter id="filter67_f_324_500" x="509.109" y="229.686" width="1.59979" height="1.63422" filterUnits="userSpaceOnUse" color-interpolation-filters="sRGB">
<feFlood flood-opacity="0" result="BackgroundImageFix"/>
<feBlend mode="normal" in="SourceGraphic" in2="BackgroundImageFix" result="shape"/>
<feGaussianBlur stdDeviation="0.182846" result="effect1_foregroundBlur_324_500"/>
</filter>
<filter id="filter68_f_324_500" x="509.616" y="230.067" width="1.59979" height="1.63422" filterUnits="userSpaceOnUse" color-interpolation-filters="sRGB">
<feFlood flood-opacity="0" result="BackgroundImageFix"/>
<feBlend mode="normal" in="SourceGraphic" in2="BackgroundImageFix" result="shape"/>
<feGaussianBlur stdDeviation="0.182846" result="effect1_foregroundBlur_324_500"/>
</filter>
<filter id="filter69_f_324_500" x="510.124" y="230.449" width="1.59979" height="1.63422" filterUnits="userSpaceOnUse" color-interpolation-filters="sRGB">
<feFlood flood-opacity="0" result="BackgroundImageFix"/>
<feBlend mode="normal" in="SourceGraphic" in2="BackgroundImageFix" result="shape"/>
<feGaussianBlur stdDeviation="0.182846" result="effect1_foregroundBlur_324_500"/>
</filter>
<filter id="filter70_f_324_500" x="510.631" y="230.83" width="1.59979" height="1.63422" filterUnits="userSpaceOnUse" color-interpolation-filters="sRGB">
<feFlood flood-opacity="0" result="BackgroundImageFix"/>
<feBlend mode="normal" in="SourceGraphic" in2="BackgroundImageFix" result="shape"/>
<feGaussianBlur stdDeviation="0.182846" result="effect1_foregroundBlur_324_500"/>
</filter>
<filter id="filter71_f_324_500" x="511.138" y="231.211" width="1.59979" height="1.63422" filterUnits="userSpaceOnUse" color-interpolation-filters="sRGB">
<feFlood flood-opacity="0" result="BackgroundImageFix"/>
<feBlend mode="normal" in="SourceGraphic" in2="BackgroundImageFix" result="shape"/>
<feGaussianBlur stdDeviation="0.182846" result="effect1_foregroundBlur_324_500"/>
</filter>
<filter id="filter72_f_324_500" x="511.646" y="231.593" width="1.59979" height="1.63422" filterUnits="userSpaceOnUse" color-interpolation-filters="sRGB">
<feFlood flood-opacity="0" result="BackgroundImageFix"/>
<feBlend mode="normal" in="SourceGraphic" in2="BackgroundImageFix" result="shape"/>
<feGaussianBlur stdDeviation="0.182846" result="effect1_foregroundBlur_324_500"/>
</filter>
<filter id="filter73_f_324_500" x="512.153" y="231.975" width="1.59979" height="1.63422" filterUnits="userSpaceOnUse" color-interpolation-filters="sRGB">
<feFlood flood-opacity="0" result="BackgroundImageFix"/>
<feBlend mode="normal" in="SourceGraphic" in2="BackgroundImageFix" result="shape"/>
<feGaussianBlur stdDeviation="0.182846" result="effect1_foregroundBlur_324_500"/>
</filter>
<filter id="filter74_f_324_500" x="507.65" y="228.648" width="6.05771" height="4.82041" filterUnits="userSpaceOnUse" color-interpolation-filters="sRGB">
<feFlood flood-opacity="0" result="BackgroundImageFix"/>
<feBlend mode="normal" in="SourceGraphic" in2="BackgroundImageFix" result="shape"/>
<feGaussianBlur stdDeviation="0.200951" result="effect1_foregroundBlur_324_500"/>
</filter>
<radialGradient id="paint0_radial_324_500" cx="0" cy="0" r="1" gradientUnits="userSpaceOnUse" gradientTransform="translate(2739.26 255.643) rotate(36.9443) scale(15.3892 39.4149)">
<stop stop-color="white" stop-opacity="0.75"/>
<stop offset="1" stop-color="white" stop-opacity="0"/>
</radialGradient>
<radialGradient id="paint1_radial_324_500" cx="0" cy="0" r="1" gradientUnits="userSpaceOnUse" gradientTransform="translate(2716.68 287.585) rotate(36.9427) scale(17.6567 0.806369)">
<stop stop-color="white"/>
<stop offset="1"/>
</radialGradient>
<linearGradient id="paint2_linear_324_500" x1="2767.68" y1="237.675" x2="2766.53" y2="236.84" gradientUnits="userSpaceOnUse">
<stop stop-color="#333333" stop-opacity="0"/>
<stop offset="1"/>
</linearGradient>
<radialGradient id="paint3_radial_324_500" cx="0" cy="0" r="1" gradientUnits="userSpaceOnUse" gradientTransform="translate(2767.03 237.171) rotate(-15.4839) scale(1.07274 1.02093)">
<stop stop-color="#000080"/>
<stop offset="0.172942" stop-color="#4D4D4D"/>
<stop offset="0.352766" stop-color="#0000FF"/>
<stop offset="1" stop-color="#000080" stop-opacity="0"/>
</radialGradient>
<linearGradient id="paint4_linear_324_500" x1="2766.23" y1="221.321" x2="2718.32" y2="285.467" gradientUnits="userSpaceOnUse">
<stop stop-color="white"/>
<stop offset="1" stop-color="white" stop-opacity="0"/>
</linearGradient>
<linearGradient id="paint5_linear_324_500" x1="2733.56" y1="262.729" x2="2715.48" y2="286.901" gradientUnits="userSpaceOnUse">
<stop stop-color="#ECECEC"/>
<stop offset="1" stop-color="#ECECEC" stop-opacity="0"/>
</linearGradient>
<radialGradient id="paint6_radial_324_500" cx="0" cy="0" r="1" gradientUnits="userSpaceOnUse" gradientTransform="translate(2177.26 255.643) rotate(36.9443) scale(15.3892 39.4149)">
<stop stop-color="white" stop-opacity="0.75"/>
<stop offset="1" stop-color="white" stop-opacity="0"/>
</radialGradient>
<radialGradient id="paint7_radial_324_500" cx="0" cy="0" r="1" gradientUnits="userSpaceOnUse" gradientTransform="translate(2154.68 287.585) rotate(36.9427) scale(17.6567 0.806369)">
<stop stop-color="white"/>
<stop offset="1"/>
</radialGradient>
<linearGradient id="paint8_linear_324_500" x1="2205.68" y1="237.675" x2="2204.53" y2="236.84" gradientUnits="userSpaceOnUse">
<stop stop-color="#333333" stop-opacity="0"/>
<stop offset="1"/>
</linearGradient>
<radialGradient id="paint9_radial_324_500" cx="0" cy="0" r="1" gradientUnits="userSpaceOnUse" gradientTransform="translate(2205.03 237.171) rotate(-15.4839) scale(1.07274 1.02093)">
<stop stop-color="#000080"/>
<stop offset="0.172942" stop-color="#4D4D4D"/>
<stop offset="0.352766" stop-color="#0000FF"/>
<stop offset="1" stop-color="#000080" stop-opacity="0"/>
</radialGradient>
<linearGradient id="paint10_linear_324_500" x1="2204.23" y1="221.321" x2="2156.32" y2="285.467" gradientUnits="userSpaceOnUse">
<stop stop-color="white"/>
<stop offset="1" stop-color="white" stop-opacity="0"/>
</linearGradient>
<linearGradient id="paint11_linear_324_500" x1="2171.56" y1="262.729" x2="2153.48" y2="286.901" gradientUnits="userSpaceOnUse">
<stop stop-color="#ECECEC"/>
<stop offset="1" stop-color="#ECECEC" stop-opacity="0"/>
</linearGradient>
<radialGradient id="paint12_radial_324_500" cx="0" cy="0" r="1" gradientUnits="userSpaceOnUse" gradientTransform="translate(1615.26 255.643) rotate(36.9443) scale(15.3892 39.4149)">
<stop stop-color="white" stop-opacity="0.75"/>
<stop offset="1" stop-color="white" stop-opacity="0"/>
</radialGradient>
<radialGradient id="paint13_radial_324_500" cx="0" cy="0" r="1" gradientUnits="userSpaceOnUse" gradientTransform="translate(1592.68 287.585) rotate(36.9427) scale(17.6567 0.806369)">
<stop stop-color="white"/>
<stop offset="1"/>
</radialGradient>
<linearGradient id="paint14_linear_324_500" x1="1643.68" y1="237.675" x2="1642.53" y2="236.84" gradientUnits="userSpaceOnUse">
<stop stop-color="#333333" stop-opacity="0"/>
<stop offset="1"/>
</linearGradient>
<radialGradient id="paint15_radial_324_500" cx="0" cy="0" r="1" gradientUnits="userSpaceOnUse" gradientTransform="translate(1643.03 237.171) rotate(-15.4839) scale(1.07274 1.02093)">
<stop stop-color="#000080"/>
<stop offset="0.172942" stop-color="#4D4D4D"/>
<stop offset="0.352766" stop-color="#0000FF"/>
<stop offset="1" stop-color="#000080" stop-opacity="0"/>
</radialGradient>
<linearGradient id="paint16_linear_324_500" x1="1642.23" y1="221.321" x2="1594.32" y2="285.467" gradientUnits="userSpaceOnUse">
<stop stop-color="white"/>
<stop offset="1" stop-color="white" stop-opacity="0"/>
</linearGradient>
<linearGradient id="paint17_linear_324_500" x1="1609.56" y1="262.729" x2="1591.48" y2="286.901" gradientUnits="userSpaceOnUse">
<stop stop-color="#ECECEC"/>
<stop offset="1" stop-color="#ECECEC" stop-opacity="0"/>
</linearGradient>
<radialGradient id="paint18_radial_324_500" cx="0" cy="0" r="1" gradientUnits="userSpaceOnUse" gradientTransform="translate(1053.26 255.643) rotate(36.9443) scale(15.3892 39.4149)">
<stop stop-color="white" stop-opacity="0.75"/>
<stop offset="1" stop-color="white" stop-opacity="0"/>
</radialGradient>
<radialGradient id="paint19_radial_324_500" cx="0" cy="0" r="1" gradientUnits="userSpaceOnUse" gradientTransform="translate(1030.68 287.585) rotate(36.9427) scale(17.6567 0.806369)">
<stop stop-color="white"/>
<stop offset="1"/>
</radialGradient>
<linearGradient id="paint20_linear_324_500" x1="1081.68" y1="237.675" x2="1080.53" y2="236.84" gradientUnits="userSpaceOnUse">
<stop stop-color="#333333" stop-opacity="0"/>
<stop offset="1"/>
</linearGradient>
<radialGradient id="paint21_radial_324_500" cx="0" cy="0" r="1" gradientUnits="userSpaceOnUse" gradientTransform="translate(1081.03 237.171) rotate(-15.4839) scale(1.07274 1.02093)">
<stop stop-color="#000080"/>
<stop offset="0.172942" stop-color="#4D4D4D"/>
<stop offset="0.352766" stop-color="#0000FF"/>
<stop offset="1" stop-color="#000080" stop-opacity="0"/>
</radialGradient>
<linearGradient id="paint22_linear_324_500" x1="1080.23" y1="221.321" x2="1032.32" y2="285.467" gradientUnits="userSpaceOnUse">
<stop stop-color="white"/>
<stop offset="1" stop-color="white" stop-opacity="0"/>
</linearGradient>
<linearGradient id="paint23_linear_324_500" x1="1047.56" y1="262.729" x2="1029.48" y2="286.901" gradientUnits="userSpaceOnUse">
<stop stop-color="#ECECEC"/>
<stop offset="1" stop-color="#ECECEC" stop-opacity="0"/>
</linearGradient>
<radialGradient id="paint24_radial_324_500" cx="0" cy="0" r="1" gradientUnits="userSpaceOnUse" gradientTransform="translate(491.263 255.643) rotate(36.9443) scale(15.3892 39.4149)">
<stop stop-color="white" stop-opacity="0.75"/>
<stop offset="1" stop-color="white" stop-opacity="0"/>
</radialGradient>
<radialGradient id="paint25_radial_324_500" cx="0" cy="0" r="1" gradientUnits="userSpaceOnUse" gradientTransform="translate(468.678 287.585) rotate(36.9427) scale(17.6567 0.806369)">
<stop stop-color="white"/>
<stop offset="1"/>
</radialGradient>
<linearGradient id="paint26_linear_324_500" x1="519.683" y1="237.675" x2="518.525" y2="236.84" gradientUnits="userSpaceOnUse">
<stop stop-color="#333333" stop-opacity="0"/>
<stop offset="1"/>
</linearGradient>
<radialGradient id="paint27_radial_324_500" cx="0" cy="0" r="1" gradientUnits="userSpaceOnUse" gradientTransform="translate(519.026 237.171) rotate(-15.4839) scale(1.07274 1.02093)">
<stop stop-color="#000080"/>
<stop offset="0.172942" stop-color="#4D4D4D"/>
<stop offset="0.352766" stop-color="#0000FF"/>
<stop offset="1" stop-color="#000080" stop-opacity="0"/>
</radialGradient>
<linearGradient id="paint28_linear_324_500" x1="518.23" y1="221.321" x2="470.32" y2="285.467" gradientUnits="userSpaceOnUse">
<stop stop-color="white"/>
<stop offset="1" stop-color="white" stop-opacity="0"/>
</linearGradient>
<linearGradient id="paint29_linear_324_500" x1="485.564" y1="262.729" x2="467.484" y2="286.901" gradientUnits="userSpaceOnUse">
<stop stop-color="#ECECEC"/>
<stop offset="1" stop-color="#ECECEC" stop-opacity="0"/>
</linearGradient>
</defs>
</svg>
