<svg width="1466" height="246" viewBox="0 0 1466 246" fill="none" xmlns="http://www.w3.org/2000/svg">
<path d="M0 246V67.2242C39.8342 63.4008 79.6684 59.5774 135.401 43.6257C191.134 27.6741 262.766 -0.405753 311.525 0.00444478C360.284 0.414643 386.17 29.3149 429.619 59.358C473.069 89.4011 534.081 120.587 593.526 117.996C652.972 115.406 710.851 79.0388 758.451 81.5262C806.052 84.0137 843.373 125.356 888.763 128.008C934.152 130.66 987.61 94.6224 1040.45 86.532C1093.3 78.4415 1145.52 98.2983 1186.03 101.549C1226.55 104.8 1255.35 91.4449 1300.06 82.9564C1344.77 74.468 1405.38 70.8461 1466 67.2242V246H0Z" fill="#0693E3"/>
</svg>
